<?xml version="1.0" encoding="utf-8"?>
<!-- Generator: Adobe Illustrator 16.0.1, SVG Export Plug-In . SVG Version: 6.00 Build 0)  -->
<!DOCTYPE svg PUBLIC "-//W3C//DTD SVG 1.1//EN" "http://www.w3.org/Graphics/SVG/1.1/DTD/svg11.dtd">
<svg version="1.1" id="GLYPHICONS_Halflings" xmlns="http://www.w3.org/2000/svg"
	 x="0px" y="0px" width="469px" height="183px" viewBox="0 0 469 183" enable-background="new 0 0 469 183" xml:space="preserve">
<g id="collapse-top">
	<path id="collapse_x5F_top" fill="#FFFFFF" d="M468,178v-3c0-2.2-1.801-4-4-4h-3c-2.2,0-4,1.8-4,4v3c0,2.156,1.78,4,4,4
		c0,0,2,0,3,0C466.172,182,468,180.156,468,178z M466,179c0,0.55-0.45,1-1,1h-5c-0.551,0-1-0.45-1-1v-5c0-0.55,0.449-1,1-1h5
		c0.55,0,1,0.45,1,1V179z M465,178h-5l2.5-3.333L465,178z"/>
</g>
<g id="collapse_1_">
	<path id="collapse" fill="#FFFFFF" d="M440,171c-1,0-3,0-3,0c-2.22,0-4,1.844-4,4v3c0,2.2,1.8,4,4,4h3c2.199,0,4-1.8,4-4v-3
		C444,172.844,442.172,171,440,171z M442,179c0,0.55-0.45,1-1,1h-5c-0.551,0-1-0.45-1-1v-5c0-0.55,0.449-1,1-1h5c0.55,0,1,0.45,1,1
		V179z M438.5,178.333L436,175h5L438.5,178.333z"/>
</g>
<g id="expand_1_">
	<path id="expand" fill="#FFFFFF" d="M408,175c0,1,0,3,0,3c0,2.219,1.844,4,4,4h3c2.2,0,4-1.8,4-4v-3c0-2.2-1.8-4-4-4h-3
		C409.844,171,408,172.828,408,175z M416,173c0.55,0,1,0.45,1,1v5c0,0.55-0.45,1-1,1h-5c-0.55,0-1-0.45-1-1v-5c0-0.55,0.45-1,1-1
		H416z M415.333,176.5L412,179v-5L415.333,176.5z"/>
</g>
<g id="unchecked_1_">
	<path id="unchecked" fill="#FFFFFF" d="M391,171h-3c-2.2,0-4,1.8-4,4v3c0,2.2,1.8,4,4,4h3c2.155,0,4-1.781,4-4c0,0,0-2,0-3
		C395,172.828,393.156,171,391,171z M392,173c0.55,0,1,0.45,1,1v5c0,0.55-0.45,1-1,1h-5c-0.55,0-1-0.45-1-1v-5c0-0.55,0.45-1,1-1
		H392z"/>
</g>
<g id="sort-by-attributes-alt">
	<path fill="#FFFFFF" d="M360.024,179H362v-9h2v9h1.976L363,182L360.024,179z M369,179h-2v2h2V179z M370,176h-3v2h3V176z M372,170
		h-5v2h5V170z M371,173h-4v2h4V173z"/>
</g>
<g id="sort-by-attributes">
	<path fill="#FFFFFF" d="M336.024,179H338v-9h2v9h1.976L339,182L336.024,179z M345,170h-2v2h2V170z M346,173h-3v2h3V173z M348,179
		h-5v2h5V179z M347,176h-4v2h4V176z"/>
</g>
<g id="sort-by-order-alt">
	<path fill="#FFFFFF" d="M312.024,179H314v-9h2v9h1.976L315,182L312.024,179z M320,170v4h2v1h1v-5H320z M322.008,173h-1v-2h1V173z
		 M321,182h1v-5h-2v1h1V182z"/>
</g>
<g id="sort-by-order">
	<path fill="#FFFFFF" d="M288.024,179H290v-9h2v9h1.976L291,182L288.024,179z M296,177v4h2v1h1v-5H296z M298.008,180h-1v-2h1V180z
		 M297,175h1v-5h-2v1h1V175z"/>
</g>
<g id="sort-by-alphabet-alt">
	<path fill="#FFFFFF" d="M264.024,179H266v-9h2v9h1.976L267,182L264.024,179z M271,177v5h1v-1h1v1h1v-5H271z M273.008,180h-1v-2h1
		V180z M271,170v1h2v1h1v-2H271z M271,175h3v-1h-2v-1h-1V175z M272.008,173h1v-1h-1V173z"/>
</g>
<g id="sort-by-alphabet">
	<path fill="#FFFFFF" d="M240.024,179H242v-9h2v9h1.976L243,182L240.024,179z M247,170v5h1v-1h1v1h1v-5H247z M249.008,173h-1v-2h1
		V173z M247,177v1h2v1h1v-2H247z M247,182h3v-1h-2v-1h-1V182z M248.008,180h1v-1h-1V180z"/>
</g>
<g id="sort">
	<path fill="#FFFFFF" d="M216.024,179H218v-9h2v9h1.976L219,182L216.024,179z M222.024,173H224v9h2v-9h1.976L225,170L222.024,173z"
		/>
</g>
<g id="gbp">
	<path fill="#FFFFFF" d="M200.655,179c-0.073,0.042-0.523,0.3-1.357,0.3c-0.672,0-1.422-0.347-2.058-0.332
		c-0.218,0.005-1.021,0.095-1.542,0.255c0.544-0.5,0.812-0.873,0.995-1.127c0.273-0.386,0.446-1.424,0.336-2.096H199v-1h-2.415
		c-0.376-0.65-0.854-1.424-0.854-2.042c0-0.377,0.138-0.716,0.409-1.005c0.273-0.291,0.926-0.5,1.406-0.5
		c0.63,0,1.844,0.422,1.844,1.547h1.531c0-1.609-1.609-2.971-3.315-2.971c-1.099,0-1.982,0.298-2.629,0.882
		c-1.273,1.151-0.955,2.515-0.759,3.047c0.116,0.313,0.255,0.661,0.442,1.042H193v1h2.208c0.472,0.951,0.404,1.955-0.239,2.688
		c-0.37,0.422-0.562,0.517-0.922,0.75l0.551,1.455c0,0,0.839-0.455,1.724-0.526c0.886-0.072,2.24,0.618,2.828,0.618
		c0.588-0.002,1.138,0.02,2.013-0.518L200.655,179z"/>
</g>
<g id="usd_1_">
	<path id="usd" fill="#FFFFFF" d="M178.327,177.854c0-2.186-1.766-2.744-2.685-2.93c0,0-0.269-0.043-0.643-0.138v-3.067
		c1.062,0.188,1.266,0.752,1.363,1.6h1.59c-0.098-2.31-1.86-2.881-2.953-3.014v-0.789h-1v0.779
		c-1.497,0.143-2.974,1.092-2.974,3.014c0,1.893,1.395,2.465,2.7,2.854c0.087,0.025,0.174,0.051,0.272,0.079v3.346
		c-0.984-0.202-1.59-0.878-1.658-1.909h-1.389c0.027,0.957,0.095,1.741,0.679,2.331c0.578,0.583,1.41,0.933,2.368,1.034v0.786h1
		v-0.771C177.058,180.907,178.327,179.717,178.327,177.854z M172.656,173.111c0-1.064,0.672-1.307,1.345-1.395v2.741
		C173.344,174.281,172.656,174.178,172.656,173.111z M175,179.635v-3.109c0.937,0.291,1.699,0.673,1.699,1.598
		C176.699,179.291,175.646,179.57,175,179.635z"/>
</g>
<g id="euro">
	<path fill="#FFFFFF" d="M151.529,180.141c-0.612,0-2.198-0.543-2.527-3.141H152l1-1h-4.062c0-0.365,0.024-0.693,0.062-1h3l1-1
		h-3.793c0.541-1.748,1.758-2.156,2.313-2.156c0.716,0,2.308,0.594,2.308,2.156h1.81c-0.036-0.701-0.255-1.396-0.661-2.093
		c-0.748-1.259-1.924-1.888-3.532-1.888c-1.206,0-2.197,0.471-2.976,1.407c-0.354,0.425-0.844,1.308-1.124,2.572H146l-1,1h2.182
		c-0.033,0.317-0.056,0.647-0.057,1H146l-1,1h2.173c0.172,1.794,0.781,2.899,1.134,3.37c0.788,1.052,1.87,1.576,3.246,1.576
		c1.113,0,2.025-0.389,2.736-1.168c0.661-0.723,1.081-1.654,1.277-2.778h-1.737C153.828,179.516,152.23,180.141,151.529,180.141z"/>
</g>
<g id="pushpin">
	<path fill="#FFFFFF" d="M131.853,172.975l-2.829-2.828c-0.194-0.194-0.512-0.194-0.707,0c-0.194,0.195-0.194,0.513,0,0.707
		l0.354,0.354L126,174h-3l2.101,2.122l-2.075,2.075L120,182l3.803-3.025l2.075-2.074L128,179v-3l2.792-2.671l0.354,0.354
		c0.195,0.193,0.513,0.194,0.708,0C132.049,173.486,132.048,173.17,131.853,172.975z"/>
</g>
<g id="phone_1_">
	<g opacity="0.3">
		<rect x="99" y="172" fill="#FFFFFF" width="6" height="7"/>
	</g>
	<path fill="#FFFFFF" d="M102.031,170c-2.391,0-4.03,0.919-4.03,1.469V181c0,0.55,0.45,1,1,1h6c0.55,0,1-0.45,1-1v-9.531
		C106,170.919,104.422,170,102.031,170z M102,181.536c-0.573,0-1.037-0.464-1.037-1.036c0-0.574,0.464-1.038,1.037-1.038
		c0.572,0,1.037,0.464,1.037,1.038C103.037,181.072,102.573,181.536,102,181.536z M105,179h-6v-7h6V179z"/>
</g>
<g id="link">
	<path fill="#FFFFFF" d="M76.232,182.139c-0.601,0-1.166-0.232-1.591-0.658l-1.415-1.414c-0.425-0.426-0.659-0.989-0.659-1.592
		c0-0.601,0.234-1.166,0.659-1.591l0.551-0.551c0.192,0.362,0.445,0.703,0.756,1.013l0.177,0.178l-0.953,0.951l2.475,2.477
		l3.89-3.891L78,174.939l1.05-1.051c0.063,0.051,0.127,0.106,0.187,0.166l1.414,1.414c0.877,0.877,0.877,2.305,0,3.182l-2.829,2.83
		C77.398,181.904,76.833,182.139,76.232,182.139z M76.763,177.943l-1.414-1.414c-0.425-0.424-0.659-0.989-0.659-1.59
		c0-0.602,0.234-1.166,0.659-1.592l2.828-2.828c0.425-0.426,0.99-0.658,1.591-0.658c0.602,0,1.166,0.232,1.591,0.658l1.415,1.414
		c0.426,0.426,0.659,0.989,0.659,1.592c0,0.601-0.48,1.412-0.907,1.838l-0.283,0.283c-0.21-0.353-0.471-0.685-0.776-0.99
		l-0.177-0.178l0.955-0.953l-2.476-2.476l-3.889,3.89l2.12,2.121l-1.055,1.056C76.889,178.064,76.821,178.003,76.763,177.943z"/>
</g>
<g id="heart-empty">
	<path fill="#FFFFFF" d="M54.495,172.512c-1.859-2.848-5.5-0.98-5.5,1.646c0,2.022,3.165,3.768,5.5,6.96
		c2.334-3.192,5.499-4.938,5.499-6.96C59.994,171.529,56.47,169.664,54.495,172.512z M56.578,176.906
		c-0.669,0.654-1.371,1.369-2.083,2.189c-0.713-0.82-1.373-1.52-2.042-2.175c-1.125-1.103-2.158-2.06-2.158-2.767
		c0-1.055,0.916-1.871,1.79-1.871c0.55,0,1.021,0.297,1.404,0.883l0.976,1.492l1.016-1.465c0.414-0.596,0.923-0.91,1.476-0.91
		c0.868,0,1.737,0.8,1.737,1.871C58.693,174.863,57.703,175.805,56.578,176.906z"/>
</g>
<g id="paperclip">
	<path fill="#FFFFFF" d="M29.175,180.691l-0.073-0.07l2.537-2.557l2.515-2.496c0.61-0.608,0.932-1.236,0.982-1.918
		c0.099-1.309-0.785-2.469-2.055-2.698c-0.165-0.03-0.322-0.041-0.475-0.041c-1.152,0-1.963,0.815-2.746,1.604l-3.476,3.477
		c-0.132,0.133-0.282,0.271-0.438,0.415c-0.754,0.694-1.463,1.349-1.32,2.331c0.128,0.884,0.863,1.279,1.536,1.279
		c0.469,0,0.924-0.187,1.249-0.512l5.477-5.479c0.224-0.225,0.297-0.504,0.197-0.746c-0.091-0.221-0.3-0.362-0.532-0.362
		c-0.175,0-0.349,0.081-0.502,0.233c-0.137,0.119-0.262,0.25-0.387,0.382l-3.769,3.731l-0.692-0.674l0.069-0.072
		c0,0,3.504-3.572,3.887-3.953c0.42-0.42,0.811-0.681,1.463-0.681c0.092,0,0.188,0.005,0.292,0.017
		c0.579,0.107,1.004,0.486,1.174,1.039c0.195,0.629,0.019,1.338-0.448,1.804l-3.931,3.933c-0.188,0.188-0.379,0.396-0.576,0.612
		c-0.623,0.68-1.071,1.17-1.766,1.507c-0.367,0.18-0.781,0.273-1.197,0.273c-0.929,0-1.761-0.451-2.227-1.211
		c-0.637-1.043-0.442-2.455,0.461-3.358l5.115-5.115c0.396-0.397,0.708-0.712,1.113-0.956c0.591-0.359,1.273-0.549,1.974-0.549
		c0.526,0,1.053,0.113,1.521,0.327c1.044,0.479,1.761,1.416,1.967,2.569c0.223,1.244-0.172,2.517-1.058,3.4l-5.169,5.113
		C29.868,181.292,29.209,180.725,29.175,180.691z"/>
</g>
<g id="dashboard">
	<path opacity="0.3" fill="#FFFFFF" enable-background="new    " d="M2.668,178c0.683,1.134,1.914,1.9,3.332,1.9
		s2.647-0.768,3.332-1.9H2.668z"/>
	<g>
		<path fill="#FFFFFF" d="M7.547,172.952c-0.301,0-0.547,0.246-0.547,0.547c0,0.104,0.038,0.196,0.089,0.28
			c-0.003,0.004-0.009,0.005-0.012,0.01l-1.218,1.263c-0.41,0.066-0.725,0.425-0.725,0.855c0,0.479,0.39,0.872,0.872,0.872
			c0.479,0,0.87-0.393,0.87-0.872c0-0.189-0.062-0.365-0.166-0.509l0.548-1.446c0.085,0.055,0.18,0.094,0.288,0.094
			c0.301,0,0.547-0.246,0.547-0.547C8.094,173.197,7.848,172.952,7.547,172.952z"/>
		<circle fill="#FFFFFF" cx="8.547" cy="175.452" r="0.547"/>
		<circle fill="#FFFFFF" cx="4.547" cy="173.499" r="0.547"/>
		<circle fill="#FFFFFF" cx="3.454" cy="175.452" r="0.547"/>
		<path fill="#FFFFFF" d="M6,170.229c-3.188,0-5.771,2.584-5.771,5.771S2.812,181.77,6,181.77c3.187,0,5.771-2.584,5.771-5.771
			S9.188,170.229,6,170.229z M6,180.271c-2.355,0-4.271-1.916-4.271-4.271s1.916-4.271,4.271-4.271c2.354,0,4.271,1.916,4.271,4.271
			S8.355,180.271,6,180.271z"/>
	</g>
</g>
<g id="fullscreen">
	<path fill="#FFFFFF" d="M457.291,148.708L456,150v-4h4l-1.293,1.292l2,2l-1.415,1.416L457.291,148.708z M460.707,154.708
		l-1.415-1.416l-2,2L456,154v4h4l-1.293-1.292L460.707,154.708z M464.707,153.292l-1.415,1.416l2,2L464,158h4v-4l-1.293,1.292
		L464.707,153.292z M464,146l1.291,1.292l-2,2l1.416,1.416l2-2L468,150v-4H464z"/>
</g>
<g id="briefcase">
	<rect x="437" y="152" opacity="0.5" fill="#FFFFFF" enable-background="new    " width="2" height="1"/>
	<rect x="432" y="153" opacity="0.3" fill="#FFFFFF" enable-background="new    " width="12" height="1"/>
	<g>
		<path fill="#FFFFFF" d="M437,154h-5v2c0,0.55,0.449,1,1,1h10c0.55,0,1-0.45,1-1v-2h-5H437z"/>
		<path fill="#FFFFFF" d="M443,148h-3v-1c0-0.551-0.448-1-1-1h-2c-0.553,0-1,0.449-1,1v1h-3c-0.551,0-1,0.45-1,1v4h5v-1h2v1h5v-4
			C444,148.45,443.55,148,443,148z M437,147h2v1h-2V147z"/>
	</g>
</g>
<g id="filter">
	<g>
		<path fill="#FFFFFF" d="M413,153v5l2-2v-3l3.5-5h-9L413,153z"/>
		<rect x="409" y="146" fill="#FFFFFF" width="10" height="1"/>
	</g>
</g>
<g id="tasks">
	<g id="tasks_x5F_alt">
		<path fill="#FFFFFF" d="M396,152c0-0.553-0.447-1-1-1h-10c-0.554,0-1,0.447-1,1v1c0,0.553,0.446,1,1,1h10c0.553,0,1-0.447,1-1V152
			z M395,153h-10v-1h10V153z M396,156c0-0.553-0.447-1-1-1h-10c-0.554,0-1,0.447-1,1v1c0,0.553,0.446,1,1,1h10c0.553,0,1-0.447,1-1
			V156z M395,157h-10v-1h10V157z M396,148c0-0.553-0.447-1-1-1h-10c-0.554,0-1,0.447-1,1v1c0,0.553,0.446,1,1,1h10
			c0.553,0,1-0.447,1-1V148z M395,149h-10v-1h10V149z"/>
	</g>
	<rect x="385" y="148" opacity="0.5" fill="#FFFFFF" enable-background="new    " width="8" height="1"/>
	<rect x="385" y="152" opacity="0.5" fill="#FFFFFF" enable-background="new    " width="5" height="1"/>
	<rect x="385" y="156" opacity="0.5" fill="#FFFFFF" enable-background="new    " width="7" height="1"/>
</g>
<g id="wrench">
	<path fill="#FFFFFF" d="M371.989,148.955l-2.513,1.268l-1.447-2.32l2.59-1.383c-1.006-0.717-2.083-0.64-3.062-0.088
		c-1.284,0.723-1.85,2.219-1.41,3.562l-5.994,5.991c-0.2,0.203-0.2,0.535,0,0.736l1.104,1.104c0.202,0.202,0.534,0.202,0.736,0
		l5.959-5.96c0.798,0.283,1.718,0.224,2.528-0.233C371.459,151.081,372.079,150.189,371.989,148.955z"/>
</g>
<g id="globe">
	<path fill="#FFFFFF" d="M342.473,149.163c-0.057-0.386-0.343-0.708-0.347-1.104c-0.245,0.123-0.332,0.525-0.623,0.233
		c-0.074,0.181-0.27,0.342-0.321,0.554C341.527,149.074,342.076,149.085,342.473,149.163
		C342.455,149.043,342.403,149.148,342.473,149.163z"/>
	<path fill="#FFFFFF" d="M342,146.24c-3.141,0-5.761,2.619-5.761,5.76s2.62,5.76,5.761,5.76c3.14,0,5.76-2.619,5.76-5.76
		S345.14,146.24,342,146.24z M345.148,155.885c-0.562,0.549-1.393,1.135-2.208,1.115c-0.121-0.203,0.018-0.289,0.018-0.468
		c-0.409-0.087-0.665-0.466-0.867-0.798c-0.066-0.418,0.507-0.772,0.354-1.121c-0.67,0.076-1.116-0.579-1.706-0.811
		c-0.358-0.139-0.729-0.248-1.072-0.426c-0.229-0.118-0.391-0.352-0.664-0.336c0.018-0.443-0.344-0.809-0.328-1.042
		c0.125-0.595-0.294-1.155-0.136-1.796c0.145-0.59,0.521-1.092,0.576-1.708c0.023-0.146-0.199-0.197-0.153-0.406
		c0.05-0.226,0.664-0.544,0.857-0.604c0.327-0.104,0.586,0.045,0.915-0.021c0.534-0.107,1.095-0.128,1.541-0.479
		c0.115,0.024,0.251,0.025,0.367,0.002c0.438,0.365,1.516,0.23,1.369,1.055c0,0-0.387,0.216-1.088-0.075
		c0.115,0.048,0.014,0.331-0.014,0.441c0.574,0.327,1.318,0.573,1.612,1.223c-0.249,0.308-0.56,0.17-0.891,0.17
		c-0.104,0.115-0.149,0.214-0.104,0.364c-0.616,0.261-0.478,0.579-0.675,1.107c-0.123,0.33-0.439,0.354-0.368,0.758
		c0.057,0.359-0.101,0.631-0.149,0.97c0,0-0.546-0.304-0.804-0.729c-0.13-0.215-0.558-0.146-0.796-0.193
		c-0.517,0.199-0.133,1.287,0.284,0.841c0.523-0.558,0.6,0.146,0.566,0.489c0.167,0.101,0.409,0.025,0.514,0.242
		c0.018,0.103-0.043,0.41,0.031,0.51c0.145,0.221,0.555-0.047,0.663-0.119c0.457-0.309,1.119-0.229,1.64-0.246
		c0.308,0.203,0.685,0.172,1.003,0.34c0.27,0.141,0.478-0.008,0.732,0.162C346.097,154.963,345.607,155.443,345.148,155.885z"/>
</g>
<g id="circle-arrow-down">
	<g id="arrow_4_">
		<path fill="#FFFFFF" d="M318,146.219c-3.191,0-5.781,2.588-5.781,5.781s2.59,5.781,5.781,5.781c3.192,0,5.78-2.588,5.78-5.781
			S321.193,146.219,318,146.219z M319.012,148.984v3h1.973L318,156l-2.938-4.016L317,152v-3L319.012,148.984z"/>
	</g>
</g>
<g id="circle-arrow-top">
	<g id="arrow_3_">
		<path fill="#FFFFFF" d="M294,157.781c3.19,0,5.78-2.588,5.78-5.781s-2.59-5.781-5.78-5.781c-3.193,0-5.781,2.588-5.781,5.781
			S290.807,157.781,294,157.781z M292.988,155.016v-3h-1.973L294,148l2.938,4.016L295,152v3L292.988,155.016z"/>
	</g>
</g>
<g id="circle-arrow-left">
	<g id="arrow_2_">
		<path fill="#FFFFFF" d="M270,146.219c-3.193,0-5.781,2.588-5.781,5.781c0,3.191,2.588,5.781,5.781,5.781
			c3.192,0,5.78-2.59,5.78-5.781C275.781,148.807,273.193,146.219,270,146.219z M273,153h-3l0.016,1.938L266,152l4.016-2.984v1.974
			h3L273,153z"/>
	</g>
</g>
<g id="circle-arrow-right">
	<g id="arrow_1_">
		<path fill="#FFFFFF" d="M240.219,152c0,3.191,2.588,5.781,5.781,5.781c3.192,0,5.78-2.59,5.78-5.781
			c0-3.193-2.588-5.781-5.78-5.781C242.807,146.219,240.219,148.807,240.219,152z M242.984,150.988h3v-1.973L250,152l-4.017,2.938
			L246,153h-3L242.984,150.988z"/>
	</g>
</g>
<g id="hand-down">
	<g id="hand_x5F_top_1_">
		<g id="hand_x5F_right_2_">
			<rect x="219" y="145" fill="#FFFFFF" width="6" height="2"/>
			<path opacity="0.3" fill="#FFFFFF" enable-background="new    " d="M221.608,154.242c-0.216,0.061-0.607,0.258-0.607,0.482
				v-1.537l4-1.656v1.402L221.608,154.242z"/>
			<rect x="219" y="147" opacity="0.5" fill="#FFFFFF" enable-background="new    " width="6" height="1"/>
			<path fill="#FFFFFF" d="M225.391,153.63L222,154.938V156c0,1.07-0.5,1.938-1.5,1.938s-1.484-0.852-1.484-1.922
				c0-0.94,0.004-2.015,0.008-3.02l-1.211,0.848c-0.199,0.153-0.48,0.15-0.66-0.027l-1.12-1.098
				c-0.151-0.152-0.157-0.339-0.062-0.531l2.299-3.623c0,0,0.342-0.563,0.732-0.563c0.39,0,5.252,0,5.252,0
				c0.189,0,1.748,1.649,1.748,1.729v3.418C226,153.371,225.607,153.568,225.391,153.63z M224.109,149h-5.025l-2.364,3.391
				l0.828,0.859l1.835-1.463c0.151-0.116,0.294-0.137,0.464-0.051c0.172,0.084,0.154,0.259,0.154,0.449v0.002c0,0,0,4.094,0,4.562
				s1,0.453,1,0s0-2.024,0-2.024c0-0.226,0.393-0.422,0.607-0.482l3.393-1.309V150L224.109,149z"/>
		</g>
	</g>
</g>
<g id="hand-top">
	<g id="hand_x5F_right_1_">
		<rect x="196" y="156" fill="#FFFFFF" width="6" height="2"/>
		<path opacity="0.3" fill="#FFFFFF" enable-background="new    " d="M198.608,148.758c-0.216-0.061-0.607-0.258-0.607-0.482v1.537
			l4,1.656v-1.402L198.608,148.758z"/>
		<rect x="196" y="155" opacity="0.5" fill="#FFFFFF" enable-background="new    " width="6" height="1"/>
		<path fill="#FFFFFF" d="M203,149.854v3.418c0,0.078-1.559,1.729-1.748,1.729c0,0-4.861,0-5.252,0
			c-0.392,0-0.732-0.563-0.732-0.563l-2.299-3.623c-0.095-0.192-0.089-0.379,0.062-0.531l1.121-1.098
			c0.18-0.179,0.461-0.182,0.66-0.027l1.211,0.848c-0.004-1.005-0.008-2.078-0.008-3.02c0-1.07,0.484-1.922,1.484-1.922
			S199,145.93,199,147v1.062l3.391,1.308C202.607,149.432,203,149.629,203,149.854z M202,153v-2.936l-3.393-1.308
			c-0.216-0.062-0.607-0.258-0.607-0.481c0,0,0-1.572,0-2.025s-1-0.469-1,0s0,4.562,0,4.562v0.002c0,0.189,0.018,0.365-0.154,0.449
			c-0.17,0.084-0.312,0.064-0.464-0.052l-1.835-1.463l-0.828,0.858l2.364,3.392h5.025L202,153z"/>
	</g>
</g>
<g id="hand-left">
	<rect x="178" y="150" fill="#FFFFFF" width="2" height="6"/>
	<path opacity="0.3" fill="#FFFFFF" enable-background="new    " d="M170.696,152.607c-0.062-0.215-0.258-0.607-0.481-0.607h1.537
		l1.656,4h-1.403L170.696,152.607z"/>
	<rect x="177" y="150" opacity="0.5" fill="#FFFFFF" enable-background="new    " width="1" height="6"/>
	<path fill="#FFFFFF" d="M171.308,156.391L170,153h-1.062c-1.069,0-1.938-0.5-1.938-1.5s0.852-1.484,1.922-1.484
		c0.94,0,2.015,0.004,3.02,0.008l-0.848-1.211c-0.153-0.199-0.15-0.48,0.028-0.66l1.097-1.12c0.152-0.151,0.339-0.157,0.531-0.062
		l3.654,2.299c0,0,0.596,0.342,0.596,0.731s0,5.252,0,5.252c0,0.19-1.713,1.748-1.792,1.748h-3.418
		C171.566,157,171.369,156.607,171.308,156.391z M176,155.109v-5.026l-3.422-2.364l-0.875,0.828l1.455,1.835
		c0.116,0.151,0.132,0.294,0.047,0.464c-0.084,0.172-0.264,0.154-0.454,0.154h-0.001c0,0-3.75,0-4.75,0v1c1,0,2.213,0,2.213,0
		c0.224,0,0.421,0.393,0.481,0.607l1.308,3.393h2.935L176,155.109z"/>
</g>
<g id="hand-right">
	<rect x="144" y="150" fill="#FFFFFF" width="2" height="6"/>
	<path opacity="0.3" fill="#FFFFFF" enable-background="new    " d="M153.242,152.607c0.062-0.215,0.258-0.607,0.481-0.607h-1.537
		l-1.656,4h1.403L153.242,152.607z"/>
	<rect x="146" y="150" opacity="0.5" fill="#FFFFFF" enable-background="new    " width="1" height="6"/>
	<path fill="#FFFFFF" d="M152.147,157h-3.418c-0.078,0-1.729-1.559-1.729-1.748c0,0,0-4.861,0-5.252s0.562-0.732,0.562-0.732
		l3.624-2.299c0.192-0.095,0.379-0.089,0.531,0.062l1.097,1.121c0.179,0.179,0.183,0.461,0.028,0.66l-0.848,1.211
		c1.005-0.004,2.079-0.008,3.02-0.008c1.07,0,1.922,0.483,1.922,1.483S156.07,153,155,153h-1.062l-1.308,3.391
		C152.568,156.607,152.372,157,152.147,157z M149,156h2.935l1.308-3.393c0.062-0.215,0.258-0.607,0.481-0.607c0,0,1.573,0,2.026,0
		s0.469-1,0-1c-0.47,0-4.562,0-4.562,0h-0.001c-0.19,0-0.365,0.018-0.45-0.154c-0.085-0.17-0.064-0.312,0.052-0.464l1.462-1.835
		l-0.859-0.828L148,150.083v5.026L149,156z"/>
</g>
<g id="thumbs-down">
	<g id="thumbs_x5F_up_3_">
		<polygon opacity="0.3" fill="#FFFFFF" enable-background="new    " points="131,151.75 131,153 130,153 126.5,148 128.5,148 		"/>
		<path fill="#FFFFFF" d="M127,157h-0.5l-1-2.125l-1.5-2.125V149h1l1.356-1h2.144l2.5,3.75V153h-4.5l0.5,2.25V157 M127,158
			c0.552,0,1-0.697,1-1.25v-1.5c0-0.066-0.28-1.25-0.28-1.25H131c0.552,0,1-0.697,1-1.25v-1c0-0.266-0.105-0.551-0.293-0.738
			l-2.375-3.441c-0.187-0.277-0.498-0.569-0.832-0.569H126c-0.155,0-1.394,1-1.394,1H124c-0.553,0-1,0.197-1,0.75v4
			c0,0.217,0.069,0.458,0.2,0.631l1.445,1.959l0.959,1.981c0.169,0.34,0.517,0.679,0.896,0.679L127,158L127,158z M122,148h-2v6h2
			V148z"/>
	</g>
	<rect x="122" y="148" opacity="0.5" fill="#FFFFFF" enable-background="new    " width="1" height="6"/>
</g>
<g id="thumbs-up">
	<g id="thumbs_x5F_up">
		<polygon opacity="0.3" fill="#FFFFFF" enable-background="new    " points="107,152.25 107,151 106,151 102.5,156 104.5,156 		"/>
		<path fill="#FFFFFF" d="M103,147v1.75l-0.5,2.25h4.5v1.25l-2.5,3.75h-2.144L101,155h-1v-3.75l1.5-2.125l1-2.125H103 M103,146h-0.5
			c-0.379,0-0.726,0.339-0.896,0.678l-0.959,1.982l-1.445,1.959c-0.131,0.173-0.2,0.414-0.2,0.631v4c0,0.553,0.447,0.75,1,0.75
			h0.606c0,0,1.238,1,1.394,1h2.5c0.334,0,0.646-0.292,0.832-0.57l2.375-3.441c0.188-0.188,0.293-0.473,0.293-0.737v-1
			c0-0.554-0.448-1.25-1-1.25h-3.28c0,0,0.28-1.185,0.28-1.25v-1.5C104,146.697,103.552,146,103,146L103,146z M98,150h-2v6h2V150z"
			/>
	</g>
	<rect x="98" y="150" opacity="0.5" fill="#FFFFFF" enable-background="new    " width="1" height="6"/>
</g>
<g id="certificate">
	<polygon fill="#FFFFFF" points="78,148 79.553,146.204 80,148.536 82.243,147.758 81.464,150 83.795,150.447 82,152 
		83.795,153.553 81.464,154 82.243,156.242 80,155.464 79.553,157.796 78,156 76.447,157.796 76,155.464 73.757,156.242 74.536,154 
		72.205,153.553 74,152 72.205,150.447 74.536,150 73.757,147.758 76,148.536 76.447,146.204 	"/>
</g>
<g id="bell">
	<path fill="#FFFFFF" d="M58.792,154h-0.176l-1.174-1.73L56.816,149H56.81c-0.19-1-1.069-1.967-2.2-2.23
		c0.002-0.006,0.181-0.373,0.181-0.373c0.082-0.26-0.062-0.396-0.321-0.396h-0.938c-0.258,0-0.401,0.192-0.32,0.453
		c0,0,0.178,0.315,0.18,0.321c-1.129,0.264-2.009,1.226-2.2,2.226h-0.006l-0.626,3.269L49.385,154h-0.176
		c-0.258,0-0.47,0.225-0.47,0.497c0,0.274,0.197,0.581,0.438,0.679c0,0,2.007,0.819,4.823,0.819c2.815,0,4.823-0.82,4.823-0.82
		c0.24-0.098,0.438-0.401,0.438-0.677S59.049,154,58.792,154z M54,156.96c0.358,0,0.7-0.021,1.023-0.062
		C54.868,157.541,54.47,158,54,158c-0.471,0-0.869-0.459-1.025-1.104C53.3,156.938,53.641,156.96,54,156.96z"/>
</g>
<g id="bullhorn">
	<g>
		<path fill="#FFFFFF" d="M23,151.5v0.5c0,0.553,1,1,1,1v-2.5C24,150.5,23,150.947,23,151.5z"/>
		<path fill="#FFFFFF" d="M35.5,147c-0.275,0-0.5,0.225-0.5,0.5v8.5c0,0.275,0.225,0.5,0.5,0.5c0.274,0,0.5-0.225,0.5-0.5v-8.5
			C36,147.225,35.775,147,35.5,147z"/>
		<path fill="#FFFFFF" d="M25.25,150c-0.275,0-0.25,0.225-0.25,0.5v2.5c0,0.143,0.555,3.508,0.555,3.508
			c0.05,0.271,0.253,0.492,0.528,0.492h0.834c0.274,0,0.465,0.027,0.423-0.244L26.873,154h0.377l6.75,2v-8.5l-6.75,2.5H25.25z"/>
	</g>
</g>
<g id="hdd">
	<path fill="#FFFFFF" d="M11.69,154l-1.717-7.324C9.913,146.407,9.639,146,9.363,146H2.636c-0.275,0-0.549,0.346-0.61,0.613
		L0.311,154H11.69z"/>
	<path fill="#FFFFFF" d="M11,155H1c-0.553,0-1,0.447-1,1v1c0,0.553,0.447,1,1,1h10c0.552,0,1-0.447,1-1v-1
		C12,155.447,11.552,155,11,155z M9,157H8v-1h1V157z M11,157h-1v-1h1V157z"/>
	<rect x="10" y="156" opacity="0.3" fill="#FFFFFF" enable-background="new    " width="1" height="1"/>
</g>
<g id="resize-horizontal">
	<polygon fill="#FFFFFF" points="468,128 465,125.023 465,127 459,127 459,125.023 456,128 459,130.977 459,129 465,129 
		465,130.977 	"/>
</g>
<g id="resize-vertical">
	<polygon fill="#FFFFFF" points="438,134 440.976,131 439,131 439,125 440.976,125 438,122 435.024,125 437,125 437,131 
		435.024,131 	"/>
</g>
<g id="folder-open">
	<polygon fill="#FFFFFF" points="411,127 408,134 420,134 423,127 	"/>
	<path fill="#FFFFFF" d="M420,126v-2h-5c0-0.55-0.45-1-1-1h-3c-0.55,0-1,0.45-1,1h-2v6l2-4H420z"/>
</g>
<g id="folder-close">
	<rect x="384" y="126" fill="#FFFFFF" width="12" height="8"/>
	<path fill="#FFFFFF" d="M391,124c0-0.55-0.45-1-1-1h-3c-0.55,0-1,0.45-1,1h-2v1h12v-1H391z"/>
</g>
<g id="shopping-cart">
	<path fill="#FFFFFF" d="M371.438,122H370.5c-0.231,0-0.435,0.159-0.486,0.385L369.631,124h-8.964c-0.151,0-0.295,0.068-0.392,0.188
		c-0.095,0.119-0.131,0.273-0.098,0.422l1,4.75c0.051,0.229,0.337,0.642,0.821,0.642h6.328l-0.475,2H362.5
		c-0.275,0-0.5,0.226-0.5,0.5s0.225,0.5,0.5,0.5h0.5v0.5c0,0.274,0.225,0.5,0.5,0.5c0.274,0,0.5-0.226,0.5-0.5V133h3v0.5
		c0,0.275,0.225,0.5,0.5,0.5c0.274,0,0.5-0.225,0.5-0.5V133h0.312c0.406,0,0.578-0.391,0.578-0.391l2.005-9.609h0.542
		c0.276,0,0.5-0.225,0.5-0.5S371.714,122,371.438,122z"/>
</g>
<g id="retweet">
	<path fill="#FFFFFF" d="M350,130l-2.992,2.829L344.015,130H346v-4h-3.808l-2.153-2H348v6H350z M336,127v6h8l-2.154-2H338v-4h2.023
		l-2.993-2.829L334.039,127H336z"/>
</g>
<g id="chevron-down">
	<polygon fill="#FFFFFF" points="314.965,124.046 318.492,127.573 322.021,124.046 324,126.025 318.5,131.54 318.495,131.536 
		318.487,131.542 312.985,126.025 	"/>
</g>
<g id="chevron-up">
	<polygon fill="#FFFFFF" points="297.021,131.875 293.493,128.348 289.965,131.875 287.985,129.895 293.485,124.381 293.49,124.385 
		293.498,124.379 299,129.895 	"/>
</g>
<g id="magnet">
	<path fill="#FFFFFF" d="M272,126c0,0,0,1.154,0,2.5s0.153,2.73-2,2.73c-2.154,0-2-1.315-2-2.73V126h-3v2c0,1.57,0.333,6,5,6
		s5-4.43,5-6v-2H272z"/>
	<path opacity="0.5" fill="#FFFFFF" enable-background="new    " d="M268,125h-3v-3h3V125z M275,122h-3v3h3V122z"/>
</g>
<g id="comments">
	<path fill="#FFFFFF" d="M251,123h-10c-0.55,0-1,0.45-1,1v6c0,0.55,0.45,1,1,1h1v3l3.037-3H251c0.55,0,1-0.45,1-1v-6
		C252,123.45,251.55,123,251,123z"/>
</g>
<g id="random">
	<path fill="#FFFFFF" d="M218.586,126H216v-2h3.414l1.809,1.809l-1.414,1.414L218.586,126z M227,126v1.977l3-3l-3-2.951V124h-2.414
		l-6,6H216v2h3.414l6-6H227z M227,130h-1.586l-1.224-1.223l-1.414,1.414l1.81,1.809H227v1.977l3-3l-3-2.951V130z"/>
</g>
<g id="calendar_1_">
	<path fill="#FFFFFF" d="M203,123.5v1.5h-11v-1.5c0-0.275,0.225-0.5,0.5-0.5h1.5v-1h1v1h5v-1h1v1h1.5
		C202.775,123,203,123.225,203,123.5z M192,126h11v7.5c0,0.275-0.226,0.5-0.5,0.5h-10c-0.275,0-0.5-0.225-0.5-0.5V126z M201,129h1
		v-1h-1V129z M201,131h1v-1h-1V131z M201,133h1v-1h-1V133z M199,129h1v-1h-1V129z M199,131h1v-1h-1V131z M199,133h1v-1h-1V133z
		 M197,129h1v-1h-1V129z M197,131h1v-1h-1V131z M197,133h1v-1h-1V133z M195,129h1v-1h-1V129z M195,131h1v-1h-1V131z M195,133h1v-1
		h-1V133z M193,129h1v-1h-1V129z M193,131h1v-1h-1V131z M193,133h1v-1h-1V133z"/>
</g>
<g id="plane">
	<path fill="#FFFFFF" d="M179.627,130.139L176,126.895V123.5c0-0.828-0.671-1.5-1.5-1.5s-1.5,0.672-1.5,1.5v3.395l-3.627,3.244
		c-0.205,0.185-0.373,0.56-0.373,0.834v0.404c0,0.275,0.185,0.371,0.411,0.215l3.589-2.496V131v0.727c-0.446,0.418-1,0.969-1,1.133
		v0.642c0,0.274,0.201,0.399,0.446,0.276l0.945-0.776h2.215l0.945,0.776c0.246,0.123,0.447-0.002,0.447-0.276v-0.642
		c0-0.164-0.555-0.715-1-1.133V131v-1.904l3.589,2.496c0.226,0.156,0.411,0.061,0.411-0.215v-0.404
		C180,130.697,179.833,130.322,179.627,130.139z"/>
</g>
<g id="warning-sign">
	<path fill="#FFFFFF" d="M151,128l-1,3l-1-3v-1h2V128z M156.467,134h-12.934c-0.507,0-0.704-0.57-0.438-1.002l6.422-10.654
		c0.267-0.432,0.699-0.369,0.965,0.062l6.422,10.561C157.17,133.396,156.973,134,156.467,134z M154.448,132L150,124.773L145.552,132
		H149v-1h1h1v1H154.448z"/>
</g>
<g id="eye-close">
	<path fill="#FFFFFF" d="M132.351,127.596c-0.066-0.104-1.044-1.6-2.556-2.808l-0.384,1.465c0.619,0.683,1.108,1.368,1.394,1.751
		c-0.519,0.703-1.556,2.229-2.62,2.936l-0.381,1.453c2.61-1.01,4.454-3.842,4.547-3.988l0.259-0.403L132.351,127.596z"/>
	<path fill="#FFFFFF" d="M127.579,122l-0.372,1.419c-0.391-0.104-0.792-0.169-1.208-0.169c-3.528,0-6.237,4.168-6.352,4.346
		L119.391,128l0.259,0.404c0.102,0.156,2.233,3.412,5.162,4.17L124.438,134h1.481l3.142-12H127.579z M124.835,126.377
		c0,0,0.508,0.996,1.172,1.63l-0.229,0.872l-0.468,0.469c-0.704-0.449-1.229-1.125-1.539-1.906L124.835,126.377z M121.196,127.996
		c0.483-0.655,1.298-1.742,2.267-2.579c-0.288,0.46-0.461,1-0.461,1.583c0,1.484,1.082,2.709,2.498,2.949l-0.368,1.406
		C123.33,130.832,121.808,128.818,121.196,127.996z"/>
</g>
<g id="eye-open">
	<path fill="#FFFFFF" d="M108.351,127.596c-0.114-0.178-2.822-4.346-6.351-4.346c-3.529,0-6.237,4.168-6.352,4.346L95.391,128
		l0.259,0.404c0.114,0.178,2.822,4.346,6.352,4.346c3.528,0,6.236-4.168,6.351-4.346l0.259-0.404L108.351,127.596z M100.835,126.377
		c0,0,0.695,1.373,1.523,1.92l-1.048,1.051c-0.704-0.449-1.229-1.125-1.539-1.906L100.835,126.377z M102,131.604
		c-2.688,0-4.099-2.658-4.805-3.606c0.483-0.655,1.298-1.742,2.267-2.579c-0.288,0.46-0.461,1-0.461,1.583c0,1.656,1.343,3,3,3
		s3-1.344,3-3c0-0.603-0.183-1.161-0.487-1.631c1.048,0.896,1.88,2.082,2.292,2.635C105.934,129.184,104.688,131.604,102,131.604z"
		/>
</g>
<g id="fire">
	<path fill="#FFFFFF" d="M76.001,126.462c-0.546-2.983,2.624-5.004,2.624-5.004c-1,3-0.377,4.683,1.167,5.334
		s0.345-2.479,0.222-2.747c2.124,1.424,3.431,3.866,2.91,6.205c-0.521,2.339-2.348,3.023-3.783,3.525
		c-2.188,0.553-0.335-1.191-0.087-2.672c0.249-1.479-0.633-2.611-1.479-3.479c0.246,0.562,0.182,2.498-0.267,3.42
		s-1.612,2.461-2.659,1.789s-1.396-1.729-1.489-2.279c-0.095-0.551-0.253-2.242,1.249-3.555c-0.294,0.825,0.045,2.578,1.125,2.312
		C76.614,129.046,76.233,127.729,76.001,126.462z"/>
</g>
<g id="leaf">
	<path fill="#FFFFFF" d="M51.188,125.576c-1.605,2.061-1.241,4.072-1.032,5.283L48,132.793v1.414v0.011l2.006-2.017L51,131.646
		c1.313-0.018,8.993,3.379,8.993-9.646C55.101,123.419,53.103,123.119,51.188,125.576z M54.922,127.891
		c-1.344,0.723-3.138,1.696-3.673,2.34c-0.874,1.052-1.249,1.129-0.577-0.412c0.797-1.829,2.986-3.155,4.579-4.006
		c0,0,2.358-1.158,3.134-2.299c0.368-0.541,0.666-0.621,0.775-0.496c0.108,0.125,0.108,0.125-0.179,0.797
		C57.851,126.134,56.56,127.014,54.922,127.891z"/>
</g>
<g id="gift">
	<g>
		<path fill="#FFFFFF" d="M25,130h4v4h-4V130z M31,134h4v-4h-4V134z M36,125v1h-1v2h-4v-3h-2v3h-4v-2h-1v-1h1.111
			c-0.017,0-0.005-0.217,0.042-0.385l0.343-1.772C25.642,122.322,26.085,122,26.6,122c0.21,0,0.422,0.07,0.614,0.184l2.387,1.438
			c0.158,0.091,0.292,0.215,0.398,0.356c0.105-0.143,0.239-0.261,0.396-0.353l2.393-1.437c0.191-0.11,0.404-0.17,0.614-0.17
			c0.516,0,0.958,0.348,1.104,0.869l0.339,1.719c0.047,0.172,0.06,0.392,0.042,0.392L36,125L36,125z M26.675,123.096
			c0,0-0.732,1.904-0.675,1.904c0,0,2.677,0,2.813,0L26.675,123.096z M33.326,123.031L31.314,125c0.139,0,2.687,0,2.687,0
			C34.061,125,33.326,123.031,33.326,123.031z"/>
	</g>
	<g opacity="0.3">
		<path fill="#FFFFFF" d="M35,130h-4v4h-2v-4h-4v-2h4v-3h2v3h4V130z"/>
	</g>
</g>
<g id="exclamation-sign">
	<path id="circle_x5F_exclamation_x5F_mark" fill="#FFFFFF" d="M6,122.229c-3.188,0-5.771,2.584-5.771,5.771
		s2.584,5.771,5.771,5.771c3.187,0,5.771-2.584,5.771-5.771S9.187,122.229,6,122.229z M7,131H5v-1h2V131z M6.862,128.509
		C6.81,128.779,6.542,129,6.268,129H5.732c-0.274,0-0.542-0.221-0.594-0.491l-0.579-3.018C4.507,125.221,4.69,125,4.965,125h2.07
		c0.274,0,0.458,0.221,0.405,0.491L6.862,128.509z"/>
</g>
<g id="asterisk">
	<polygon fill="#FFFFFF" points="467,103 464.413,103 466.241,101.172 464.827,99.758 463,101.586 463,99 461,99 461,101.586 
		459.172,99.758 457.757,101.172 459.585,103 457,103 457,105 459.586,105 457.758,106.828 459.172,108.242 461,106.414 461,109 
		463,109 463,106.415 464.826,108.242 466.241,106.828 464.413,105 467,105 	"/>
</g>
<g id="minus_1_">
	<rect id="minus" x="434" y="103" fill="#FFFFFF" width="9" height="3"/>
</g>
<g id="plus">
	<polygon fill="#FFFFFF" points="419,103 415,103 415,99 412,99 412,103 408,103 408,106 412,106 412,110 415,110 415,106 419,106 	
		"/>
</g>
<g id="resize-small">
	<polygon fill="#FFFFFF" points="387.293,105.293 384.343,108.242 385.758,109.657 388.707,106.707 390,108 390,104 386,104 	"/>
	<polygon fill="#FFFFFF" points="395.657,99.758 394.242,98.343 391.293,101.293 390,100 390,104 394,104 392.707,102.707 	"/>
</g>
<g id="resize-full">
	<path fill="#FFFFFF" d="M372,102l-1.292-1.292l-2.938,2.938l-1.416-1.416l2.938-2.938L368,98h4V102z M364.232,104.354l-2.938,2.939
		L360,106v4h4l-1.293-1.293l2.938-2.939L364.232,104.354z"/>
</g>
<g id="share-alt">
	<path fill="#FFFFFF" d="M342,108.008l6-4.479L342,99v2.708c-4.292,0.229-5.845,2.917-6,6.292c0.983-2.125,3.594-2.938,6-3V108.008z
		"/>
</g>
<g id="arrow-down">
	<polygon fill="#FFFFFF" points="319,104 319,98 316,98 316,104 313.038,104 317.486,110 321.983,104 	"/>
</g>
<g id="arrow-up">
	<polygon fill="#FFFFFF" points="294.535,98 290.038,104 293,104 293,110 296,110 296,104 298.983,104 	"/>
</g>
<g id="arrow-right">
	<polygon fill="#FFFFFF" points="270,109.008 276,104.527 270,100 270,103 264,103 264,106 270,106 	"/>
</g>
<g id="arrow-left">
	<polygon fill="#FFFFFF" points="252,103 246,103 246,100 240,104.527 246,109.008 246,106 252,106 	"/>
</g>
<g id="ban-circle">
	<path fill="#FFFFFF" d="M222,98.229c-3.188,0-5.771,2.584-5.771,5.771s2.584,5.771,5.771,5.771c3.187,0,5.771-2.584,5.771-5.771
		S225.187,98.229,222,98.229z M217.729,104c0-2.355,1.916-4.271,4.271-4.271c0.827,0,1.594,0.248,2.249,0.656l-5.865,5.863
		C217.976,105.594,217.729,104.827,217.729,104z M222,108.271c-0.804,0-1.546-0.236-2.188-0.623l5.837-5.836
		c0.387,0.643,0.622,1.385,0.622,2.188C226.271,106.355,224.355,108.271,222,108.271z"/>
</g>
<g id="ok-circle">
	<path fill="#FFFFFF" d="M198,99.729c2.354,0,4.271,1.916,4.271,4.271s-1.916,4.271-4.271,4.271c-2.355,0-4.271-1.916-4.271-4.271
		S195.645,99.729,198,99.729 M198,98.229c-3.188,0-5.771,2.584-5.771,5.771s2.584,5.771,5.771,5.771
		c3.187,0,5.771-2.584,5.771-5.771S201.187,98.229,198,98.229L198,98.229z"/>
	<polygon fill="#FFFFFF" points="195.501,104.635 196.633,103.504 197.499,104.37 199.543,102.326 200.674,103.457 197.5,106.631 	
		"/>
</g>
<g id="remove-circle">
	<path fill="#FFFFFF" d="M174,99.729c2.354,0,4.271,1.916,4.271,4.271s-1.916,4.271-4.271,4.271c-2.355,0-4.271-1.916-4.271-4.271
		S171.645,99.729,174,99.729 M174,98.229c-3.188,0-5.771,2.584-5.771,5.771s2.584,5.771,5.771,5.771
		c3.187,0,5.771-2.584,5.771-5.771S177.187,98.229,174,98.229L174,98.229z"/>
	<polygon fill="#FFFFFF" points="173.999,104.807 172.647,106.157 171.842,105.354 173.194,104 171.841,102.646 172.646,101.842 
		173.999,103.193 175.352,101.842 176.157,102.646 174.804,104 176.156,105.354 175.352,106.158 	"/>
</g>
<g id="screenshot">
	<path fill="#FFFFFF" d="M155.678,103h-1.65h-0.062c-0.374-1.479-1.966-2.636-2.966-3.004v-0.073v-1.104V98h-2v0.818v1.104v0.076
		c-2,0.371-2.683,1.525-3.056,3.001h-0.07h-1.65H144v2h0.224h1.65h0.062c0.366,1.487,1.063,2.653,3.063,3.026v0.051v1.104V110h2
		v-0.818v-1.104v-0.049c1-0.37,2.606-1.538,2.974-3.028h0.054h1.65H156v-2L155.678,103L155.678,103z M151,107.062V105h-2v2.061
		c-1-0.321-1.78-1.086-2.098-2.061H149v-2h-2.089c0.32-0.962,1.089-1.715,2.089-2.034V103h2v-2.037c1,0.316,1.678,1.072,2,2.037h-2
		v2h2.008C152.69,105.977,152,106.743,151,107.062z"/>
</g>
<g id="info-sign">
	<path fill="#FFFFFF" d="M126,98.229c-3.188,0-5.771,2.584-5.771,5.771s2.584,5.771,5.771,5.771c3.187,0,5.771-2.584,5.771-5.771
		S129.187,98.229,126,98.229z M125,101h2v1h-2V101z M128,107h-4v-1h1v-2h-1v-1h3v3h1V107z"/>
</g>
<g id="question-sign">
	<path fill="#FFFFFF" d="M102,98.229c-3.188,0-5.771,2.584-5.771,5.771s2.584,5.771,5.771,5.771c3.187,0,5.771-2.584,5.771-5.771
		S105.187,98.229,102,98.229z M103,107h-2v-1h2V107z M103,105c0,0-1.375,0-2,0c-0.031-1.359,1.105-1.585,1.105-1.585
		c0.296-0.192,0.312-0.2,0.312-0.493c0-0.222-0.157-0.365-0.406-0.365c-0.404,0-0.601-0.033-0.623,0.346
		c-0.01,0.174-0.151,0.099-0.323,0.099c0,0-0.812,0-1.432,0c0-1.833,1.136-2.392,2.382-2.392c0.71,0,2.28,0.173,2.28,1.97
		S103,105,103,105z"/>
</g>
<g id="ok-sign">
	<path fill="#FFFFFF" d="M78,98.229c-3.188,0-5.771,2.584-5.771,5.771s2.584,5.771,5.771,5.771c3.187,0,5.771-2.584,5.771-5.771
		S81.187,98.229,78,98.229z M77.463,107.26l-2.767-2.77l1.745-1.744l1.021,1.021l2.361-2.361l1.742,1.744L77.463,107.26z"/>
</g>
<g id="remove-sign">
	<path fill="#FFFFFF" d="M54,98.229c-3.188,0-5.771,2.584-5.771,5.771s2.584,5.771,5.771,5.771c3.187,0,5.771-2.584,5.771-5.771
		S57.187,98.229,54,98.229z M57.535,105.414l-2.121,2.121L54,106.121l-1.414,1.414l-2.122-2.121L51.879,104l-1.414-1.414
		l2.121-2.122L54,101.878l1.414-1.413l2.122,2.121L56.122,104L57.535,105.414z"/>
</g>
<g id="minus-sign">
	<path fill="#FFFFFF" d="M30,98.229c-3.188,0-5.771,2.584-5.771,5.771s2.584,5.771,5.771,5.771c3.187,0,5.771-2.584,5.771-5.771
		S33.187,98.229,30,98.229z M33,105h-6v-2h6V105z"/>
</g>
<g id="plus-sign">
	<path fill="#FFFFFF" d="M6,98.229c-3.188,0-5.771,2.584-5.771,5.771s2.584,5.771,5.771,5.771c3.187,0,5.771-2.584,5.771-5.771
		S9.187,98.229,6,98.229z M9,105H7v2H5v-2H3v-2h2v-2h2v2h2V105z"/>
</g>
<g id="chevron-right">
	<polygon fill="#FFFFFF" points="459.149,84.059 462.677,80.531 459.149,77.003 461.129,75.023 466.644,80.523 466.639,80.528 
		466.646,80.536 461.129,86.038 	"/>
</g>
<g id="chevron-left">
	<polygon fill="#FFFFFF" points="440.854,84.059 437.326,80.531 440.854,77.003 438.875,75.023 433.36,80.523 433.365,80.528 
		433.358,80.536 438.875,86.038 	"/>
</g>
<g id="eject">
	<path fill="#FFFFFF" d="M420,82.5c0-0.276-0.225-0.5-0.5-0.5h-10c-0.276,0-0.5,0.224-0.5,0.5v1c0,0.276,0.224,0.5,0.5,0.5h10
		c0.275,0,0.5-0.224,0.5-0.5V82.5z"/>
	<polygon fill="#FFFFFF" points="420,81 409,81 414.5,75.359 	"/>
</g>
<g id="step-forward">
	<path fill="#FFFFFF" d="M393.5,75h-1c-0.276,0-0.5,0.224-0.5,0.5v4.375L387,75v11l5-4.875V85.5c0,0.276,0.224,0.5,0.5,0.5h1
		c0.275,0,0.5-0.224,0.5-0.5v-10C394,75.224,393.776,75,393.5,75z"/>
</g>
<g id="fast-forward">
	<path fill="#FFFFFF" d="M371.5,75h-1c-0.276,0-0.5,0.224-0.5,0.5v4.375L365,75v4.875L360,75v11l5-4.875V86l5-4.875V85.5
		c0,0.276,0.224,0.5,0.5,0.5h1c0.275,0,0.5-0.224,0.5-0.5v-10C372,75.224,371.776,75,371.5,75z"/>
</g>
<g id="forward">
	<polygon fill="#FFFFFF" points="346.641,80.5 341,75 341,79.875 336,75 336,86 341,81.125 341,86 	"/>
</g>
<g id="stop">
	<path fill="#FFFFFF" d="M323,84.5c0,0.275-0.226,0.5-0.5,0.5h-8c-0.275,0-0.5-0.225-0.5-0.5v-8c0-0.275,0.225-0.5,0.5-0.5h8
		c0.274,0,0.5,0.225,0.5,0.5V84.5z"/>
</g>
<g id="pause">
	<path fill="#FFFFFF" d="M293,84.5c0,0.276-0.225,0.5-0.5,0.5h-2c-0.276,0-0.5-0.224-0.5-0.5v-8c0-0.276,0.224-0.5,0.5-0.5h2
		c0.275,0,0.5,0.224,0.5,0.5V84.5z"/>
	<path fill="#FFFFFF" d="M297,84.5c0,0.276-0.225,0.5-0.5,0.5h-2c-0.276,0-0.5-0.224-0.5-0.5v-8c0-0.276,0.224-0.5,0.5-0.5h2
		c0.275,0,0.5,0.224,0.5,0.5V84.5z"/>
</g>
<g id="play">
	<polygon fill="#FFFFFF" points="266,86 266,75 275,80.5 	"/>
</g>
<g id="backward">
	<polygon fill="#FFFFFF" points="252,75 247,79.875 247,75 241.359,80.5 247,86 247,81.125 252,86 	"/>
</g>
<g id="fast-backward">
	<path fill="#FFFFFF" d="M228,75l-5,4.875V75l-5,4.875V75.5c0-0.276-0.225-0.5-0.5-0.5h-1c-0.276,0-0.5,0.224-0.5,0.5v10
		c0,0.276,0.224,0.5,0.5,0.5h1c0.275,0,0.5-0.224,0.5-0.5v-4.375L223,86v-4.875L228,86V75z"/>
</g>
<g id="step-backward">
	<path fill="#FFFFFF" d="M201,75l-5,4.875V75.5c0-0.276-0.225-0.5-0.5-0.5h-1c-0.276,0-0.5,0.224-0.5,0.5v10
		c0,0.276,0.224,0.5,0.5,0.5h1c0.275,0,0.5-0.224,0.5-0.5v-4.375L201,86V75z"/>
</g>
<g id="move">
	<polygon fill="#FFFFFF" points="180,79.976 177,77.024 177,79 175,79 175,77 176.951,77 174,74 171,77 173,77 173,79 171,79 
		171,77.024 168,79.976 171,82.976 171,81 173,81 173,83 171,83 174,86 176.951,83 175,83 175,81 177,81 177,82.976 	"/>
</g>
<g id="check">
	<polygon fill="#FFFFFF" points="147.422,79.684 148.785,78.321 150.25,79.787 154.553,75.484 155.915,76.848 150.252,82.516 	"/>
	<path fill="#FFFFFF" d="M153,82.309V83c0,0.55-0.45,1-1,1h-5c-0.55,0-1-0.45-1-1v-5c0-0.55,0.45-1,1-1h3.492l1.773-1.774
		C151.865,75.091,151.444,75,151,75h-3c-2.2,0-4,1.8-4,4v3c0,2.2,1.8,4,4,4h3c2.2,0,4-1.8,4-4v-1.691L153,82.309z"/>
</g>
<g id="share_1_">
	<path fill="#FFFFFF" d="M128.129,79.601c0,0-2.819-0.187-3.902,1.158c0.565-3.276,3.913-3.328,3.913-3.328l-0.006-2.165
		l3.592,3.188l-3.597,3.239V79.601z"/>
	<path fill="#FFFFFF" d="M129,82.998V83c0,0.55-0.45,1-1,1h-5c-0.55,0-1-0.45-1-1v-5c0-0.55,0.45-1,1-1h1.449
		c0.521-0.543,1.222-0.969,2.176-1.204L126.609,75H124c-2.2,0-4,1.8-4,4v3c0,2.2,1.8,4,4,4h3c2.2,0,4-1.8,4-4v-0.525L129,82.998z"/>
</g>
<g id="edit">
	<path fill="#FFFFFF" d="M100.906,80.894l4.054-4.052l1.131,1.131l-4.118,4.118l-1.61,0.499L100.906,80.894z M105.949,75.852
		l1.131-1.131L108,75l0.212,0.852l-1.132,1.131L105.949,75.852z"/>
	<path fill="#FFFFFF" d="M105,81.75V83c0,0.55-0.45,1-1,1h-5c-0.55,0-1-0.45-1-1v-5c0-0.55,0.45-1,1-1h3.112l1.864-1.864
		C103.663,75.056,100,75,100,75c-2.2,0-4,1.8-4,4v3c0,2.2,1.8,4,4,4h3c2.2,0,4-1.8,4-4v-2.25L105,81.75z"/>
</g>
<g id="tint">
	<path fill="#FFFFFF" d="M77.542,73.054c-1.108,3.556-4.371,5.514-4.371,8.892c0,2.474,2.155,3.907,4.371,4.021
		c2.079-0.114,4.371-1.575,4.371-4.052C81.913,78.541,78.604,76.609,77.542,73.054z M76.55,83.041c0,0-0.097,0.611-0.161,0.981
		c-1.271-0.37-1.776-1.124-1.961-2.163c-0.185-1.04,0.063-1.891,1.318-3.402c0,0-0.387,1.802-0.049,3.169
		C75.923,82.539,76.55,83.041,76.55,83.041z"/>
</g>
<g id="adjust">
	<path fill="#FFFFFF" d="M54,74.229c-3.188,0-5.771,2.584-5.771,5.771s2.584,5.771,5.771,5.771c3.187,0,5.771-2.584,5.771-5.771
		S57.187,74.229,54,74.229z M49.729,80c0-2.355,1.916-4.271,4.271-4.271v8.543C51.645,84.271,49.729,82.355,49.729,80z"/>
</g>
<g id="map-marker">
	<path fill="#FFFFFF" d="M34.779,78.699c0,0.843-0.279,1.73-0.695,2.585c-1.568,2.435-3.553,4.669-3.553,4.669
		s-2.28-2.156-3.738-4.713c-0.365-0.798-0.604-1.643-0.604-2.488c0-2.377,1.922-4.441,4.295-4.441S34.779,76.322,34.779,78.699z
		 M32.737,78.478c0-1.225-0.991-2.215-2.214-2.215c-1.222,0-2.214,0.99-2.214,2.215c0,1.224,0.992,2.214,2.214,2.214
		C31.745,80.692,32.737,79.701,32.737,78.478z"/>
</g>
<g id="pencil">
	<path fill="#FFFFFF" d="M0.94,82.814l2.229,2.229l-3.327,1.114L0.94,82.814z M1.843,82l6.142-6.142L10.126,78l-6.143,6.142
		L1.843,82z M8.844,75.001l0.941-0.966c0.087-0.087,0.202-0.135,0.326-0.135c0.123,0,0.239,0.048,0.326,0.134l1.53,1.53
		c0.179,0.18,0.179,0.473,0,0.651l-0.986,0.923L8.844,75.001z"/>
</g>
<g id="picture_1_">
	<path id="picture_4_" fill="#FFFFFF" d="M468,51.438c0-0.241-0.195-0.438-0.438-0.438h-11.125c-0.242,0-0.438,0.196-0.438,0.438
		v10.125c0,0.241,0.195,0.438,0.438,0.438h11.125c0.242,0,0.438-0.196,0.438-0.438V51.438z M467,57l-2.359-2.875l-2.932,3.178
		l0.743,1.557l-2.983-1.312L457,59.375V52h10V57z M460.762,54.498c0-0.742-0.603-1.342-1.342-1.342c-0.74,0-1.343,0.6-1.343,1.342
		s0.603,1.342,1.343,1.342C460.159,55.84,460.762,55.24,460.762,54.498z"/>
</g>
<g id="facetime-video">
	<path fill="#FFFFFF" d="M441,56.434v-0.867V52.75c0-0.412-0.339-0.75-0.75-0.75h-7.5c-0.412,0-0.75,0.338-0.75,0.75v6.5
		c0,0.412,0.338,0.75,0.75,0.75h7.5c0.411,0,0.75-0.338,0.75-0.75V56.434z"/>
	<polygon fill="#FFFFFF" points="444,53 441,56 444,59 	"/>
</g>
<g id="indent-right">
	<path fill="#FFFFFF" d="M410,52.5c0,0.275-0.226,0.5-0.5,0.5h-1c-0.275,0-0.5-0.225-0.5-0.5v-1c0-0.275,0.225-0.5,0.5-0.5h1
		c0.274,0,0.5,0.225,0.5,0.5V52.5z"/>
	<path fill="#FFFFFF" d="M414,55.5c0,0.275-0.226,0.5-0.5,0.5h-5c-0.275,0-0.5-0.225-0.5-0.5v-1c0-0.275,0.225-0.5,0.5-0.5h5
		c0.274,0,0.5,0.225,0.5,0.5V55.5z"/>
	<path fill="#FFFFFF" d="M412,58.5c0,0.275-0.226,0.5-0.5,0.5h-3c-0.275,0-0.5-0.225-0.5-0.5v-1c0-0.275,0.225-0.5,0.5-0.5h3
		c0.274,0,0.5,0.225,0.5,0.5V58.5z"/>
	<path fill="#FFFFFF" d="M415,61.5c0,0.275-0.226,0.5-0.5,0.5h-6c-0.275,0-0.5-0.225-0.5-0.5v-1c0-0.275,0.225-0.5,0.5-0.5h6
		c0.274,0,0.5,0.225,0.5,0.5V61.5z"/>
	<rect x="416" y="51" fill="#FFFFFF" width="1" height="11"/>
	<polygon fill="#FFFFFF" points="417.334,56.5 419,55.25 419,56 421,56 421,57 419,57 419,57.75 	"/>
</g>
<g id="indent-left">
	<path fill="#FFFFFF" d="M391,52.5c0,0.275-0.226,0.5-0.5,0.5h-1c-0.275,0-0.5-0.225-0.5-0.5v-1c0-0.275,0.225-0.5,0.5-0.5h1
		c0.274,0,0.5,0.225,0.5,0.5V52.5z"/>
	<path fill="#FFFFFF" d="M395,55.5c0,0.275-0.226,0.5-0.5,0.5h-5c-0.275,0-0.5-0.225-0.5-0.5v-1c0-0.275,0.225-0.5,0.5-0.5h5
		c0.274,0,0.5,0.225,0.5,0.5V55.5z"/>
	<path fill="#FFFFFF" d="M393,58.5c0,0.275-0.226,0.5-0.5,0.5h-3c-0.275,0-0.5-0.225-0.5-0.5v-1c0-0.275,0.225-0.5,0.5-0.5h3
		c0.274,0,0.5,0.225,0.5,0.5V58.5z"/>
	<path fill="#FFFFFF" d="M396,61.5c0,0.275-0.226,0.5-0.5,0.5h-6c-0.275,0-0.5-0.225-0.5-0.5v-1c0-0.275,0.225-0.5,0.5-0.5h6
		c0.274,0,0.5,0.225,0.5,0.5V61.5z"/>
	<rect x="387" y="51" fill="#FFFFFF" width="1" height="11"/>
	<polygon fill="#FFFFFF" points="386.666,56.5 385,55.25 385,56 383,56 383,57 385,57 385,57.75 	"/>
</g>
<g id="list">
	<path fill="#FFFFFF" d="M360,61.5c0,0.275,0.225,0.5,0.5,0.5h1c0.274,0,0.5-0.225,0.5-0.5v-1c0-0.275-0.226-0.5-0.5-0.5h-1
		c-0.275,0-0.5,0.225-0.5,0.5V61.5z"/>
	<path fill="#FFFFFF" d="M360,58.5c0,0.275,0.225,0.5,0.5,0.5h1c0.274,0,0.5-0.225,0.5-0.5v-1c0-0.275-0.226-0.5-0.5-0.5h-1
		c-0.275,0-0.5,0.225-0.5,0.5V58.5z"/>
	<path fill="#FFFFFF" d="M360,55.5c0,0.275,0.225,0.5,0.5,0.5h1c0.274,0,0.5-0.225,0.5-0.5v-1c0-0.275-0.226-0.5-0.5-0.5h-1
		c-0.275,0-0.5,0.225-0.5,0.5V55.5z"/>
	<path fill="#FFFFFF" d="M360,52.5c0,0.275,0.225,0.5,0.5,0.5h1c0.274,0,0.5-0.225,0.5-0.5v-1c0-0.275-0.226-0.5-0.5-0.5h-1
		c-0.275,0-0.5,0.225-0.5,0.5V52.5z"/>
	<path fill="#FFFFFF" d="M363,61.5c0,0.275,0.225,0.5,0.5,0.5h8c0.274,0,0.5-0.225,0.5-0.5v-1c0-0.275-0.226-0.5-0.5-0.5h-8
		c-0.275,0-0.5,0.225-0.5,0.5V61.5z"/>
	<path fill="#FFFFFF" d="M363,58.5c0,0.275,0.225,0.5,0.5,0.5h8c0.274,0,0.5-0.225,0.5-0.5v-1c0-0.275-0.226-0.5-0.5-0.5h-8
		c-0.275,0-0.5,0.225-0.5,0.5V58.5z"/>
	<path fill="#FFFFFF" d="M363,55.5c0,0.275,0.225,0.5,0.5,0.5h8c0.274,0,0.5-0.225,0.5-0.5v-1c0-0.275-0.226-0.5-0.5-0.5h-8
		c-0.275,0-0.5,0.225-0.5,0.5V55.5z"/>
	<path fill="#FFFFFF" d="M363,52.5c0,0.275,0.225,0.5,0.5,0.5h8c0.274,0,0.5-0.225,0.5-0.5v-1c0-0.275-0.226-0.5-0.5-0.5h-8
		c-0.275,0-0.5,0.225-0.5,0.5V52.5z"/>
</g>
<g id="align-justify">
	<path fill="#FFFFFF" d="M336,61.5c0,0.275,0.225,0.5,0.5,0.5h11c0.274,0,0.5-0.225,0.5-0.5v-1c0-0.275-0.226-0.5-0.5-0.5h-11
		c-0.275,0-0.5,0.225-0.5,0.5V61.5z"/>
	<path fill="#FFFFFF" d="M336,58.5c0,0.275,0.225,0.5,0.5,0.5h11c0.274,0,0.5-0.225,0.5-0.5v-1c0-0.275-0.226-0.5-0.5-0.5h-11
		c-0.275,0-0.5,0.225-0.5,0.5V58.5z"/>
	<path fill="#FFFFFF" d="M336,55.5c0,0.275,0.225,0.5,0.5,0.5h11c0.274,0,0.5-0.225,0.5-0.5v-1c0-0.275-0.226-0.5-0.5-0.5h-11
		c-0.275,0-0.5,0.225-0.5,0.5V55.5z"/>
	<path fill="#FFFFFF" d="M336,52.5c0,0.275,0.225,0.5,0.5,0.5h11c0.274,0,0.5-0.225,0.5-0.5v-1c0-0.275-0.226-0.5-0.5-0.5h-11
		c-0.275,0-0.5,0.225-0.5,0.5V52.5z"/>
</g>
<g id="align_x5F_right">
	<path fill="#FFFFFF" d="M317,52.5c0,0.275,0.225,0.5,0.5,0.5h6c0.274,0,0.5-0.225,0.5-0.5v-1c0-0.275-0.226-0.5-0.5-0.5h-6
		c-0.275,0-0.5,0.225-0.5,0.5V52.5z"/>
	<path fill="#FFFFFF" d="M313,55.5c0,0.275,0.225,0.5,0.5,0.5h10c0.274,0,0.5-0.225,0.5-0.5v-1c0-0.275-0.226-0.5-0.5-0.5h-10
		c-0.275,0-0.5,0.225-0.5,0.5V55.5z"/>
	<path fill="#FFFFFF" d="M315,58.5c0,0.275,0.225,0.5,0.5,0.5h8c0.274,0,0.5-0.225,0.5-0.5v-1c0-0.275-0.226-0.5-0.5-0.5h-8
		c-0.275,0-0.5,0.225-0.5,0.5V58.5z"/>
	<path fill="#FFFFFF" d="M312,61.5c0,0.275,0.225,0.5,0.5,0.5h11c0.274,0,0.5-0.225,0.5-0.5v-1c0-0.275-0.226-0.5-0.5-0.5h-11
		c-0.275,0-0.5,0.225-0.5,0.5V61.5z"/>
</g>
<g id="align-center">
	<path fill="#FFFFFF" d="M298,52.5c0,0.275-0.226,0.5-0.5,0.5h-7c-0.275,0-0.5-0.225-0.5-0.5v-1c0-0.275,0.225-0.5,0.5-0.5h7
		c0.274,0,0.5,0.225,0.5,0.5V52.5z"/>
	<path fill="#FFFFFF" d="M298,58.5c0,0.275-0.226,0.5-0.5,0.5h-7c-0.275,0-0.5-0.225-0.5-0.5v-1c0-0.275,0.225-0.5,0.5-0.5h7
		c0.274,0,0.5,0.225,0.5,0.5V58.5z"/>
	<path fill="#FFFFFF" d="M300,61.5c0,0.275-0.226,0.5-0.5,0.5h-11c-0.275,0-0.5-0.225-0.5-0.5v-1c0-0.275,0.225-0.5,0.5-0.5h11
		c0.274,0,0.5,0.225,0.5,0.5V61.5z"/>
	<path fill="#FFFFFF" d="M300,55.5c0,0.275-0.226,0.5-0.5,0.5h-11c-0.275,0-0.5-0.225-0.5-0.5v-1c0-0.275,0.225-0.5,0.5-0.5h11
		c0.274,0,0.5,0.225,0.5,0.5V55.5z"/>
</g>
<g id="align-left">
	<path fill="#FFFFFF" d="M271,52.5c0,0.275-0.226,0.5-0.5,0.5h-6c-0.275,0-0.5-0.225-0.5-0.5v-1c0-0.275,0.225-0.5,0.5-0.5h6
		c0.274,0,0.5,0.225,0.5,0.5V52.5z"/>
	<path fill="#FFFFFF" d="M275,55.5c0,0.275-0.226,0.5-0.5,0.5h-10c-0.275,0-0.5-0.225-0.5-0.5v-1c0-0.275,0.225-0.5,0.5-0.5h10
		c0.274,0,0.5,0.225,0.5,0.5V55.5z"/>
	<path fill="#FFFFFF" d="M273,58.5c0,0.275-0.226,0.5-0.5,0.5h-8c-0.275,0-0.5-0.225-0.5-0.5v-1c0-0.275,0.225-0.5,0.5-0.5h8
		c0.274,0,0.5,0.225,0.5,0.5V58.5z"/>
	<path fill="#FFFFFF" d="M276,61.5c0,0.275-0.226,0.5-0.5,0.5h-11c-0.275,0-0.5-0.225-0.5-0.5v-1c0-0.275,0.225-0.5,0.5-0.5h11
		c0.274,0,0.5,0.225,0.5,0.5V61.5z"/>
</g>
<g id="text-width">
	<path fill="#FFFFFF" d="M249.5,50H246h-3.5c-0.567,0-1.5,0-1.5,0v3c0,0,0,0,0.498,0c0.002-1,0.617-1,1.502-1h2v6.5l-1,0.5v1h2h2v-1
		l-1-0.5V52h2c0.885,0,1.5,0,1.502,1C251,53,251,53,251,53v-3C251,50,250.067,50,249.5,50z"/>
	<polygon fill="#FFFFFF" points="242,60.25 240.334,61.5 242,62.75 242,62 250,62 250,62.75 251.666,61.5 250,60.25 250,61 242,61 	
		"/>
</g>
<g id="text-height">
	<path fill="#FFFFFF" d="M227.5,50H224h-3.5c-0.567,0-1.5,0-1.5,0v3c0,0,0,0,0.498,0c0.002-1,0.617-1,1.502-1h2v8.5l-1,0.5v1h2h2v-1
		l-1-0.5V52h2c0.885,0,1.5,0,1.502,1C229,53,229,53,229,53v-3C229,50,228.067,50,227.5,50z"/>
	<polygon fill="#FFFFFF" points="217.75,52 216.5,50.334 215.25,52 216,52 216,60 215.25,60 216.5,61.666 217.75,60 217,60 217,52 	
		"/>
</g>
<g id="italic_2_">
	<path fill="#FFFFFF" d="M200.786,50.572L200.774,50h-2.358h-1.899v0.572c1,0.269,1.37,0.3,1.219,1.162L196,60.219
		c-0.114,0.646-1,1.12-2,1.209V62h5v-0.572c-1-0.089-1.208-0.531-1.095-1.178l1.281-8.25C199.188,52,199.596,50.841,200.786,50.572z
		"/>
</g>
<g id="bold_2_">
	<path fill="#FFFFFF" d="M175.634,55.75c0,0,1.137-0.63,1.137-2.58c0-1.955-1.562-3.16-3.062-3.16L169,50v0.715
		c1,0.235,1,0.391,1,1.145v8.275c0,0.565-0.5,0.895-1,0.975V62h5c1.55,0,3.625-1.281,3.625-3.061
		C177.625,56.439,175.634,55.75,175.634,55.75z M172,51c2.108,0,3.229,0.672,3.229,2c0,0.988-0.802,2-1.838,2S172,55,172,55
		S172,51.391,172,51z M173.609,60H172v-4c0,0,0.329,0,1.594,0s2.187,1.014,2.187,2.188C175.781,59.357,174.719,60,173.609,60z"/>
</g>
<g id="font">
	<path id="XMLID_2_" fill="#FFFFFF" d="M156,61.338V62h-4.17c0,0,0-0.355,0-0.662c0.75,0,1.002-0.771,0.799-1.321
		c-0.148-0.403-0.824-2.22-0.824-2.22h-3.91c0,0-0.574,1.455-0.918,2.348c-0.344,0.895,0.462,1.193,1.203,1.193
		c0,0.418,0,0.662,0,0.662h-3.649v-0.662c0,0,0.562-0.24,0.839-0.515c0.275-0.276,0.517-0.75,0.517-0.75l3.995-10.063h0.931
		l3.85,9.978c0,0,0.2,0.504,0.6,0.925C155.662,61.332,156,61.338,156,61.338z M151.56,56.787l-1.16-3.167l-0.457-1.399l-1.787,4.566
		H151.56z"/>
</g>
<g id="camera">
	<path fill="#FFFFFF" d="M127.062,57c0,0.586-0.477,1.062-1.062,1.062s-1.062-0.477-1.062-1.062s0.478-1.062,1.062-1.062
		S127.062,56.414,127.062,57z M132,54v6c0,0.55-0.45,1-1,1h-10c-0.55,0-1-0.45-1-1v-6c0-0.55,0.45-1,1-1h1.5c0,0,1.016-2,2.5-2
		c0,0,0.5,0,2,0s2.5,2,2.5,2h1.5C131.55,53,132,53.45,132,54z M128.438,57c0-1.344-1.094-2.438-2.438-2.438
		c-1.345,0-2.438,1.094-2.438,2.438s1.094,2.438,2.438,2.438C127.344,59.438,128.438,58.344,128.438,57z M130,54h-1v1h1V54z"/>
	<rect x="129" y="54" opacity="0.5" fill="#FFFFFF" enable-background="new    " width="1" height="1"/>
</g>
<g id="print">
	<path fill="#FFFFFF" d="M105.474,53.708l-0.625,1.245h-5.922l-0.4-1.245l0.947-3.46C99.488,50.111,99.612,50,99.75,50h4.5
		c0.138,0,0.262,0.111,0.275,0.248L105.474,53.708z"/>
	<path fill="#FFFFFF" d="M104.811,60.242C104.777,60.109,104.638,60,104.5,60h-5c-0.139,0-0.277,0.109-0.312,0.242l-0.379,1.516
		C98.777,61.891,98.862,62,99,62h6c0.138,0,0.223-0.109,0.188-0.242L104.811,60.242z"/>
	<polygon fill="#FFFFFF" points="106,54 105,56 99,56 98,54 96,54 96,61 98,61 98,59 106,59 106.003,61 108,61 108,54 	"/>
</g>
<g id="bookmark_1_">
	<path id="bookmark_4_" fill="#FFFFFF" d="M74,50.5c0-0.275,0.225-0.5,0.5-0.5h8c0.274,0,0.5,0.225,0.5,0.5V62l-4.5-4.438L74,62.007
		V50.5z"/>
</g>
<g id="book_2_">
	<polygon fill="#FFFFFF" points="50.75,50 49,51.75 49,62 58,62 58,52 50.5,52 51.5,51 59,51 59,61 60,60 60,50 	"/>
</g>
<g id="tags">
	<g id="tag_1_">
		<path id="tag_2_" fill="#FFFFFF" d="M29,50h-4.735c-0.139,0-0.254,0.112-0.254,0.252L24,55l7,7l5-5L29,50z M27.197,53.183
			c-0.394,0.395-1.031,0.395-1.425,0c-0.394-0.394-0.394-1.03,0-1.425c0.395-0.394,1.031-0.394,1.425,0
			C27.591,52.152,27.591,52.789,27.197,53.183z"/>
	</g>
	<polygon fill="#FFFFFF" points="32,50 31,50 38,57 33.5,61.5 34,62 39,57 	"/>
</g>
<g id="tag_3_">
	<path id="tag_4_" fill="#FFFFFF" d="M5,50H0.265c-0.139,0-0.254,0.112-0.254,0.252L0,55l7,7l5-5L5,50z M3.197,53.183
		c-0.394,0.395-1.031,0.395-1.425,0c-0.394-0.394-0.394-1.03,0-1.425c0.395-0.394,1.031-0.394,1.425,0
		C3.591,52.152,3.591,52.789,3.197,53.183z"/>
</g>
<g id="barcode">
	<path fill="#FFFFFF" d="M457,36h-1V26h1V36z M461,38h1v-0.906h-1V38z M459,26h-1v10h1V26z M463,26h-2v10h2V26z M457,37v1h3v-1H457z
		 M463,38h1v-0.906h-1V38z M465,37.094V38h2v-0.906H465z M467,26h-1v10h1h1V26H467z M465,26h-1v10h1V26z"/>
</g>
<g id="qrcode">
	<path fill="#FFFFFF" d="M434,28h1v1h-1V28z M442,31v1h2v1v1h-3v-1v-1v-1h-2v-3h-1v-2h1h5v5H442z M443,30v-3h-3v3H443z M441,29h1v-1
		h-1V29z M435,35h-1v1h1V35z M438,38h1v-1h-1V38z M435,33h2v5h-5v-5h2v-1h1V33z M433,34v3h3v-3H433z M433,32h-1v-1v-5h5v3h1v1h-1v1
		h-4V32z M433,30h3v-3h-3V30z M443,36h1v-1h-1V36z M441,37v1h2h1v-1h-1H441z M442,36v-1h-2v-1v-1v-1h-1h-2v1h2v1v1h-1v1h1v1h1h1v-1
		H442z"/>
</g>
<g id="volume-up">
	<path fill="#FFFFFF" d="M419.225,32.016c0,1.466-0.506,2.904-1.424,4.051l-0.063,0.079l-0.803-0.658l0.062-0.077
		c0.768-0.962,1.19-2.168,1.19-3.395c0-1.249-0.437-2.472-1.228-3.443l-0.065-0.08l0.82-0.635l0.062,0.076
		C418.711,29.085,419.225,30.535,419.225,32.016z M415.021,29.427c0.581,0.698,0.932,1.594,0.932,2.569
		c0,0.934-0.324,1.795-0.862,2.479l0.673,0.549c0.662-0.832,1.059-1.886,1.059-3.028c0-1.177-0.418-2.256-1.112-3.099
		L415.021,29.427z M408,30v4h3l3,2v-8l-3,2H408z"/>
</g>
<g id="volume-down">
	<path fill="#FFFFFF" d="M387,30l3-2v8l-3-2h-3v-4H387z M391.687,28.897L391,29.427c0.58,0.698,0.932,1.594,0.932,2.569
		c0,0.934-0.324,1.795-0.863,2.479l0.675,0.549c0.659-0.832,1.057-1.886,1.057-3.028C392.799,30.819,392.382,29.74,391.687,28.897z"
		/>
</g>
<g id="volume-off">
	<path fill="#FFFFFF" d="M363,30l3-2v8l-3-2h-3v-4H363z M371.121,30.586l-0.707-0.707L369,31.293l-1.414-1.415l-0.707,0.708
		L368.293,32l-1.414,1.414l0.707,0.707L369,32.707l1.414,1.414l0.707-0.707L369.707,32L371.121,30.586z"/>
</g>
<g id="headphones">
	<path fill="#FFFFFF" d="M348,32.25v0.25v2.75c0,0.138-0.112,0.25-0.25,0.25h-0.5c-0.139,0-0.25-0.112-0.25-0.25V32.5v-0.25
		c0-2.619-2.381-4.5-5-4.5s-5,1.881-5,4.5v0.25v2.75c0,0.138-0.112,0.25-0.25,0.25h-0.5c-0.139,0-0.25-0.112-0.25-0.25V32.5v-0.25
		c0-3.17,2.83-6,6-6S348,29.08,348,32.25z M340,33.2c0-0.11-0.09-0.2-0.2-0.2h-1.6c-0.11,0-0.2,0.09-0.2,0.2v4.6
		c0,0.11,0.09,0.2,0.2,0.2h1.6c0.11,0,0.2-0.09,0.2-0.2V33.2z M346,33.2c0-0.11-0.09-0.2-0.2-0.2h-1.6c-0.11,0-0.2,0.09-0.2,0.2v4.6
		c0,0.11,0.09,0.2,0.2,0.2h1.6c0.11,0,0.2-0.09,0.2-0.2V33.2z"/>
</g>
<g id="flag">
	<path fill="#FFFFFF" d="M323,27c0,1,0,2,0,5c-2,4-5-1-8,2c0-2,0-3,0-5C316,25,321,31,323,27z M314,27h-1v11h1V27z"/>
</g>
<g id="lock">
	<path fill="#FFFFFF" d="M298,30h-1v-2c0-1.1-0.9-2-2-2h-3c-1.101,0-2,0.9-2,2v2h-1c-0.55,0-1,0.45-1,1v6c0,0.55,0.45,1,1,1h9
		c0.55,0,1-0.45,1-1v-6C299,30.45,298.55,30,298,30z M292,28.5c0-0.275,0.225-0.5,0.5-0.5h2c0.274,0,0.5,0.225,0.5,0.5V30h-3V28.5z"
		/>
</g>
<g id="list-alt">
	<path fill="#FFFFFF" d="M274,36h-5v-1h5V36z M274,29h-5v1h5V29z M274,31h-5v1h5V31z M268,29h-1v1h1V29z M274,33h-5v1h5V33z M276,26
		v2v9v1h-11v-1v-9v-2H276z M275,28h-9v9h9V28z M268,35h-1v1h1V35z M268,31h-1v1h1V31z M268,33h-1v1h1V33z"/>
</g>
<g id="refresh">
	<path fill="#FFFFFF" d="M246,36.271c-0.923,0-1.772-0.301-2.472-0.801l1.471-1.471H241v2v2l1.453-1.454
		c0.979,0.766,2.208,1.226,3.547,1.226c3.187,0,5.771-2.584,5.771-5.771h-1.5C250.271,34.355,248.355,36.271,246,36.271z"/>
	<path fill="#FFFFFF" d="M246,27.729c0.922,0,1.771,0.301,2.471,0.801L247,30h4v-4l-1.454,1.453
		c-0.979-0.765-2.208-1.225-3.546-1.225c-3.188,0-5.771,2.584-5.771,5.771h1.5C241.729,29.645,243.645,27.729,246,27.729z"/>
</g>
<g id="repeat">
	<path fill="#FFFFFF" d="M227.771,32c0,3.188-2.584,5.771-5.771,5.771c-3.188,0-5.771-2.584-5.771-5.771s2.584-5.771,5.771-5.771
		c1.339,0,2.569,0.458,3.548,1.224L227,26v4h-4l1.463-1.463c-0.694-0.503-1.539-0.809-2.463-0.809c-2.355,0-4.271,1.916-4.271,4.271
		s1.916,4.271,4.271,4.271c2.354,0,4.271-1.916,4.271-4.271L227.771,32L227.771,32z"/>
</g>
<g id="play-circle">
	<path fill="#FFFFFF" d="M198,27.729c2.354,0,4.271,1.916,4.271,4.271s-1.916,4.271-4.271,4.271c-2.355,0-4.271-1.916-4.271-4.271
		S195.645,27.729,198,27.729 M198,26.229c-3.188,0-5.771,2.584-5.771,5.771s2.584,5.771,5.771,5.771
		c3.187,0,5.771-2.584,5.771-5.771S201.187,26.229,198,26.229L198,26.229z"/>
	<polygon fill="#FFFFFF" points="197,34.027 197,30.018 199.969,32.022 	"/>
</g>
<g id="inbox_3_">
	<path fill="#FFFFFF" d="M180,33c-0.001,0-2-7-2-7h-8c0,0-1.99,7-1.991,7L168,37.75c0,0.138,0.111,0.25,0.25,0.25h11.5
		c0.138,0,0.25-0.112,0.25-0.25V33z M170.969,28h6.062l0.97,5h-2l-0.5,2h-3l-0.5-2h-2L170.969,28z"/>
</g>
<g id="upload">
	<path fill="#FFFFFF" d="M150,26.229c-3.188,0-5.771,2.584-5.771,5.771s2.583,5.771,5.771,5.771c3.187,0,5.771-2.584,5.771-5.771
		S153.187,26.229,150,26.229z M150,36.271c-2.355,0-4.271-1.916-4.271-4.271s1.916-4.271,4.271-4.271
		c2.354,0,4.271,1.916,4.271,4.271S152.355,36.271,150,36.271z"/>
	<g id="XMLID_1_">
		<g>
			<polygon fill="#FFFFFF" points="150,29 152.5,32 151,32 151,35 149,35 149,32 147.5,32 			"/>
		</g>
	</g>
</g>
<g id="download">
	<path fill="#FFFFFF" d="M126,26.229c-3.188,0-5.771,2.584-5.771,5.771s2.583,5.771,5.771,5.771c3.187,0,5.771-2.584,5.771-5.771
		S129.187,26.229,126,26.229z M126,36.271c-2.355,0-4.271-1.916-4.271-4.271s1.916-4.271,4.271-4.271
		c2.354,0,4.271,1.916,4.271,4.271S128.355,36.271,126,36.271z"/>
	<polygon fill="#FFFFFF" points="127,29 125,29 125,32 123.5,32 126,35 128.5,32 127,32 	"/>
</g>
<g id="download-alt">
	<path fill="#FFFFFF" d="M102.104,34L105,31h-2v-5h-3v5h-2l2.896,3H96v4h11v-4H102.104z M105.875,36h-1.75v-1h1.75V36z"/>
</g>
<g id="road_2_">
	<path fill="#FFFFFF" d="M79.615,38H85l-4.309-12h-2.083l0.198,3h-1.615l0.203-3h-2.088L71,38h5.385l0.403-4h2.424L79.615,38z
		 M76.878,33l0.27-3h1.705l0.271,3H76.878z"/>
</g>
<g id="time">
	<polygon fill="#FFFFFF" points="54,29 53,29 53,33 56,33 56,32 54,32 	"/>
	<path fill="#FFFFFF" d="M54,26.229c-3.188,0-5.771,2.584-5.771,5.771s2.584,5.771,5.771,5.771c3.187,0,5.771-2.584,5.771-5.771
		S57.187,26.229,54,26.229z M54,36.271c-2.355,0-4.271-1.916-4.271-4.271s1.916-4.271,4.271-4.271c2.354,0,4.271,1.916,4.271,4.271
		S56.355,36.271,54,36.271z"/>
</g>
<g id="file">
	<polygon fill="#FFFFFF" points="31,27 31,30 34,30 	"/>
	<path fill="#FFFFFF" d="M30,26h-4.75C25.112,26,25,26.112,25,26.25v11.5c0,0.138,0.111,0.25,0.25,0.25h8.5
		c0.138,0,0.25-0.112,0.25-0.25V31h-4V26z"/>
</g>
<g id="home">
	<polygon fill="#FFFFFF" points="6.562,25.562 0,32 2,32 2,38 5,38 5,34 8,34 8,38 11,38 11,32 13,32 	"/>
</g>
<g id="trash">
	<path fill="#FFFFFF" d="M467.75,3H465V2c0-0.55-0.45-1-1-1h-3c-0.551,0-1,0.45-1,1v1h-2.75C457.112,3,457,3.112,457,3.25v0.5
		c0,0.138,0.111,0.25,0.25,0.25h10.5c0.138,0,0.25-0.112,0.25-0.25v-0.5C468,3.112,467.888,3,467.75,3z M461.021,3H461V2h3v1
		H461.021z M458,13c0,0.55,0.449,1,1,1h7c0.55,0,1-0.45,1-1V5h-9V13z M465,6h1v7h-1V6z M463,6h1v7h-1V6z M461,6h1v7h-1V6z M459,6h1
		v7h-1V6z"/>
	<path opacity="0.5" fill="#FFFFFF" enable-background="new    " d="M460,13h-1V6h1V13z M462,6h-1v7h1V6z M464,6h-1v7h1V6z M466,6
		h-1v7h1V6z"/>
</g>
<g id="cog">
	<path fill="#FFFFFF" d="M438,13.732c-0.25,0-0.496-0.021-0.738-0.053l-0.379-1.515l-0.057-0.016
		c-0.325-0.093-0.641-0.224-0.935-0.387l-0.051-0.028l-1.337,0.803c-0.422-0.331-0.757-0.671-1.047-1.047l0.803-1.337l-0.028-0.051
		c-0.165-0.297-0.295-0.611-0.385-0.934l-0.017-0.056l-1.516-0.379c-0.034-0.278-0.053-0.507-0.053-0.74
		c0-0.25,0.021-0.496,0.053-0.738l1.516-0.379l0.017-0.056c0.09-0.321,0.22-0.636,0.386-0.935l0.028-0.051l-0.804-1.338
		c0.328-0.417,0.667-0.752,1.048-1.045l1.337,0.802l0.051-0.028c0.297-0.165,0.611-0.295,0.934-0.385l0.057-0.016l0.379-1.516
		c0.277-0.034,0.507-0.053,0.737-0.053c0.253,0,0.496,0.021,0.74,0.053l0.379,1.516l0.057,0.016c0.321,0.09,0.637,0.22,0.934,0.385
		l0.051,0.028l1.336-0.802c0.421,0.331,0.757,0.669,1.048,1.045l-0.803,1.338l0.028,0.051c0.163,0.294,0.294,0.608,0.387,0.935
		l0.017,0.056l1.515,0.379c0.034,0.278,0.053,0.507,0.053,0.738c0,0.252-0.021,0.498-0.053,0.74l-1.515,0.379l-0.017,0.056
		c-0.094,0.326-0.224,0.641-0.387,0.934l-0.027,0.051l0.802,1.336c-0.33,0.421-0.669,0.757-1.045,1.048l-1.337-0.804l-0.051,0.028
		c-0.293,0.163-0.606,0.294-0.936,0.388l-0.057,0.016l-0.379,1.515C438.461,13.714,438.233,13.732,438,13.732z M438,5.848
		c-1.185,0-2.146,0.963-2.146,2.146c0,1.185,0.963,2.148,2.146,2.148c1.185,0,2.147-0.964,2.147-2.148
		C440.148,6.811,439.185,5.848,438,5.848z"/>
</g>
<g id="signal">
	<path fill="#FFFFFF" d="M411,14h-2v-3h2V14z M414,9h-2v5h2V9z M417,6h-2v8h2V6z M420,2h-2v12h2V2z"/>
</g>
<g id="off">
	<path fill="#FFFFFF" d="M391,6.5c0,0.276-0.225,0.5-0.5,0.5h-1c-0.276,0-0.5-0.224-0.5-0.5v-4c0-0.276,0.224-0.5,0.5-0.5h1
		c0.275,0,0.5,0.224,0.5,0.5V6.5z M392,2.592v1.657c1.345,0.72,2.271,2.122,2.271,3.751c0,2.355-1.916,4.271-4.271,4.271
		c-2.355,0-4.271-1.916-4.271-4.271c0-1.629,0.927-3.031,2.271-3.751V2.592c-2.2,0.814-3.771,2.925-3.771,5.408
		c0,3.188,2.584,5.771,5.771,5.771c3.187,0,5.771-2.584,5.771-5.771C395.771,5.517,394.2,3.406,392,2.592z"/>
</g>
<g id="zoom-out">
	<g id="search_7_">
		<path id="search_8_" fill="#FFFFFF" d="M372.131,12.684l-2.996-2.996c0.486-0.757,0.773-1.653,0.773-2.615
			c0-2.67-2.172-4.841-4.841-4.841c-2.668,0-4.84,2.171-4.84,4.841c0,2.668,2.172,4.838,4.84,4.838c0.965,0,1.861-0.286,2.616-0.773
			l2.996,2.996c0.1,0.1,0.264,0.1,0.363,0l1.087-1.087C372.23,12.947,372.23,12.783,372.131,12.684z M361.766,7.072
			c0-1.822,1.482-3.304,3.303-3.304c1.822,0,3.304,1.481,3.304,3.304c0,1.82-1.48,3.302-3.304,3.302
			C363.248,10.374,361.766,8.893,361.766,7.072z"/>
	</g>
	<rect x="363" y="6" fill="#FFFFFF" width="4" height="2"/>
</g>
<g id="zoom-in">
	<path fill="#FFFFFF" d="M348.131,12.684l-2.996-2.996c0.486-0.757,0.773-1.653,0.773-2.615c0-2.67-2.172-4.841-4.841-4.841
		c-2.668,0-4.84,2.171-4.84,4.841c0,2.668,2.172,4.838,4.84,4.838c0.965,0,1.861-0.286,2.616-0.773l2.996,2.996
		c0.1,0.1,0.264,0.1,0.363,0l1.087-1.087C348.23,12.947,348.23,12.783,348.131,12.684z M341.068,10.374
		c-1.819,0-3.303-1.481-3.303-3.302c0-1.822,1.482-3.304,3.303-3.304c1.822,0,3.304,1.481,3.304,3.304
		C344.371,8.893,342.891,10.374,341.068,10.374z"/>
	<polygon fill="#FFFFFF" points="342,5 340,5 340,6 339,6 339,8 340,8 340,9 342,9 342,8 343,8 343,6 342,6 	"/>
</g>
<g id="remove_1_">
	<polygon fill="#FFFFFF" points="322.94,10.82 320.119,7.999 322.939,5.179 320.821,3.06 318,5.881 315.18,3.061 313.061,5.178 
		315.882,7.999 313.061,10.82 315.179,12.939 318,10.118 320.822,12.939 	"/>
</g>
<g id="ok_1_">
	<polygon fill="#FFFFFF" points="288.28,9.464 290.402,7.343 292.469,9.41 298.536,3.343 300.657,5.465 292.473,13.656 	"/>
</g>
<g id="th-list">
	<path fill="#FFFFFF" d="M267,9.5c0,0.275-0.226,0.5-0.5,0.5h-2c-0.275,0-0.5-0.225-0.5-0.5v-2c0-0.275,0.225-0.5,0.5-0.5h2
		c0.274,0,0.5,0.225,0.5,0.5V9.5z M267,11.5c0-0.275-0.226-0.5-0.5-0.5h-2c-0.275,0-0.5,0.225-0.5,0.5v2c0,0.275,0.225,0.5,0.5,0.5
		h2c0.274,0,0.5-0.225,0.5-0.5V11.5z M267,3.5c0-0.275-0.226-0.5-0.5-0.5h-2c-0.275,0-0.5,0.225-0.5,0.5v2
		c0,0.275,0.225,0.5,0.5,0.5h2c0.274,0,0.5-0.225,0.5-0.5V3.5z M276,7.5c0-0.275-0.226-0.5-0.5-0.5h-7c-0.275,0-0.5,0.225-0.5,0.5v2
		c0,0.275,0.225,0.5,0.5,0.5h7c0.274,0,0.5-0.225,0.5-0.5V7.5z M276,11.5c0-0.275-0.226-0.5-0.5-0.5h-7c-0.275,0-0.5,0.225-0.5,0.5
		v2c0,0.275,0.225,0.5,0.5,0.5h7c0.274,0,0.5-0.225,0.5-0.5V11.5z M276,3.5c0-0.275-0.226-0.5-0.5-0.5h-7
		c-0.275,0-0.5,0.225-0.5,0.5v2c0,0.275,0.225,0.5,0.5,0.5h7c0.274,0,0.5-0.225,0.5-0.5V3.5z"/>
</g>
<g id="th">
	<path fill="#FFFFFF" d="M251,3.5c0-0.275-0.226-0.5-0.5-0.5h-2c-0.275,0-0.5,0.225-0.5,0.5v2c0,0.275,0.225,0.5,0.5,0.5h2
		c0.274,0,0.5-0.225,0.5-0.5V3.5z M251,7.5c0-0.275-0.226-0.5-0.5-0.5h-2c-0.275,0-0.5,0.225-0.5,0.5v2c0,0.275,0.225,0.5,0.5,0.5h2
		c0.274,0,0.5-0.225,0.5-0.5V7.5z M251,11.5c0-0.275-0.226-0.5-0.5-0.5h-2c-0.275,0-0.5,0.225-0.5,0.5v2c0,0.275,0.225,0.5,0.5,0.5
		h2c0.274,0,0.5-0.225,0.5-0.5V11.5z M247,3.5c0-0.275-0.226-0.5-0.5-0.5h-2c-0.275,0-0.5,0.225-0.5,0.5v2
		c0,0.275,0.225,0.5,0.5,0.5h2c0.274,0,0.5-0.225,0.5-0.5V3.5z M247,7.5c0-0.275-0.226-0.5-0.5-0.5h-2c-0.275,0-0.5,0.225-0.5,0.5v2
		c0,0.275,0.225,0.5,0.5,0.5h2c0.274,0,0.5-0.225,0.5-0.5V7.5z M247,11.5c0-0.275-0.226-0.5-0.5-0.5h-2c-0.275,0-0.5,0.225-0.5,0.5
		v2c0,0.275,0.225,0.5,0.5,0.5h2c0.274,0,0.5-0.225,0.5-0.5V11.5z M243,3.5c0-0.275-0.226-0.5-0.5-0.5h-2
		c-0.275,0-0.5,0.225-0.5,0.5v2c0,0.275,0.225,0.5,0.5,0.5h2c0.274,0,0.5-0.225,0.5-0.5V3.5z M243,7.5c0-0.275-0.226-0.5-0.5-0.5h-2
		c-0.275,0-0.5,0.225-0.5,0.5v2c0,0.275,0.225,0.5,0.5,0.5h2c0.274,0,0.5-0.225,0.5-0.5V7.5z M243,11.5c0-0.275-0.226-0.5-0.5-0.5
		h-2c-0.275,0-0.5,0.225-0.5,0.5v2c0,0.275,0.225,0.5,0.5,0.5h2c0.274,0,0.5-0.225,0.5-0.5V11.5z"/>
</g>
<g id="th-large">
	<path fill="#FFFFFF" d="M227,3.5c0-0.275-0.226-0.5-0.5-0.5h-4c-0.275,0-0.5,0.225-0.5,0.5v4c0,0.275,0.225,0.5,0.5,0.5h4
		c0.274,0,0.5-0.225,0.5-0.5V3.5z M227,9.5c0-0.275-0.226-0.5-0.5-0.5h-4c-0.275,0-0.5,0.225-0.5,0.5v4c0,0.275,0.225,0.5,0.5,0.5h4
		c0.274,0,0.5-0.225,0.5-0.5V9.5z M221,3.5c0-0.275-0.226-0.5-0.5-0.5h-4c-0.275,0-0.5,0.225-0.5,0.5v4c0,0.275,0.225,0.5,0.5,0.5h4
		c0.274,0,0.5-0.225,0.5-0.5V3.5z M221,9.5c0-0.275-0.226-0.5-0.5-0.5h-4c-0.275,0-0.5,0.225-0.5,0.5v4c0,0.275,0.225,0.5,0.5,0.5h4
		c0.274,0,0.5-0.225,0.5-0.5V9.5z"/>
</g>
<g id="film">
	<path fill="#FFFFFF" d="M192,3v11h12V3H192z M194,13h-1v-1h1V13z M194,11h-1v-1h1V11z M194,9h-1V8h1V9z M194,7h-1V6h1V7z M194,5h-1
		V4h1V5z M201,13h-6V9h6V13z M201,8h-6V4h6V8z M203,13h-1v-1h1V13z M203,11h-1v-1h1V11z M203,9h-1V8h1V9z M203,7h-1V6h1V7z M203,5
		h-1V4h1V5z"/>
	<rect x="195" y="4" opacity="0.3" fill="#FFFFFF" enable-background="new    " width="6" height="4"/>
	<rect x="195" y="9" opacity="0.3" fill="#FFFFFF" enable-background="new    " width="6" height="4"/>
</g>
<g id="user">
	<path fill="#FFFFFF" d="M176,10V9c0.55,0,1-1.45,1-2V5c0-1.65-1.351-3-3-3c-1.65,0-3,1.35-3,3v2c0,0.55,0.45,2,1,2v1l-4,2.574
		c0,0,0,1.281,0,1.426h12c0-0.145,0-1.426,0-1.426L176,10z"/>
</g>
<g id="star-empty">
	<path fill="#FFFFFF" d="M155.734,6h-4.719l-1.461-4h-0.016l-1.471,4h-4.788l3.88,2.803l-1.457,4.478l-0.017,0.015l3.84-2.777
		l3.841,2.753l-1.455-4.489L155.734,6z M149.525,9.285l-1.923,1.391l0.734-2.257L146.373,7h2.395l0.777-2.114L150.316,7h2.345
		l-1.924,1.399l0.741,2.286L149.525,9.285z"/>
</g>
<g id="star_1_">
	<path id="star_4_" fill="#FFFFFF" d="M131.734,6l-3.821,2.781l1.455,4.489l-3.841-2.753l-3.84,2.777l0.017-0.015l1.457-4.478
		L119.281,6h4.788l1.471-4h0.016l1.461,4H131.734z"/>
</g>
<g id="heart_2_">
	<path fill="#FFFFFF" d="M102.495,4.511c-1.859-2.847-5.5-0.979-5.5,1.646c0,2.023,3.165,3.768,5.5,6.96
		c2.334-3.192,5.499-4.937,5.499-6.96C107.994,3.53,104.47,1.664,102.495,4.511z"/>
</g>
<g id="envelope_2_">
	<path fill="#FFFFFF" d="M78,9.031L72,3h12L78,9.031z M78,11l-2-2l-4,4h12l-4-4L78,11z M81,8l3,3V5L81,8z M72,5v6l3-3L72,5z"/>
</g>
<g id="search_1_">
	<path id="search_4_" fill="#FFFFFF" d="M60.131,12.684l-2.997-2.996c0.487-0.757,0.774-1.653,0.774-2.615
		c0-2.67-2.172-4.841-4.841-4.841s-4.84,2.171-4.84,4.841c0,2.668,2.171,4.838,4.84,4.838c0.963,0,1.86-0.286,2.616-0.773
		l2.996,2.996c0.1,0.1,0.264,0.1,0.363,0l1.087-1.087C60.231,12.947,60.231,12.783,60.131,12.684z M49.766,7.072
		c0-1.822,1.482-3.304,3.303-3.304c1.821,0,3.303,1.481,3.303,3.304c0,1.82-1.48,3.302-3.303,3.302
		C51.248,10.374,49.766,8.893,49.766,7.072z"/>
</g>
<g id="music_1_">
	<path id="music_4_" fill="#FFFFFF" d="M35,2.192c0,0,0,8.042,0,8.808s-0.64,1.301-1.527,1.589
		c-1.053,0.341-2.098,0.026-2.335-0.704c-0.236-0.729,0.425-1.598,1.479-1.939c0.489-0.159,0.978-0.174,1.384-0.073v-5.21l-6,1.551
		c0,0,0,5.364,0,6.06c0,0.539-0.64,1.301-1.527,1.589c-1.053,0.341-2.098,0.026-2.335-0.704c-0.236-0.729,0.425-1.598,1.479-1.939
		c0.489-0.159,0.978-0.174,1.384-0.073v-6.89c0-0.139,0.107-0.28,0.241-0.316l7.518-1.931C34.892,1.972,35,2.055,35,2.192z"/>
</g>
<g id="glass_1_">
	<polygon id="glass" fill="#FFFFFF" points="7,7.5 12,2 0,2 5,7.5 5,13 2,13 2,14 10,14 10,13 7,13 	"/>
</g>
</svg>
