<svg version="1" xmlns="http://www.w3.org/2000/svg" viewBox="0 0 48 48" enable-background="new 0 0 48 48">
    <polygon fill="#42A5F5" points="36,44 8,44 8,8 28,8 36,16"/>
    <polygon fill="#90CAF9" points="40,40 12,40 12,4 32,4 40,12"/>
    <polygon fill="#E1F5FE" points="38.5,13 31,13 31,5.5"/>
    <path fill="#1976D2" d="M23.4,29.9c0-0.2,0-0.4,0.1-0.6s0.2-0.3,0.3-0.5s0.3-0.2,0.5-0.3s0.4-0.1,0.6-0.1s0.5,0,0.7,0.1 s0.4,0.2,0.5,0.3s0.2,0.3,0.3,0.5s0.1,0.4,0.1,0.6s0,0.4-0.1,0.6s-0.2,0.3-0.3,0.5s-0.3,0.2-0.5,0.3s-0.4,0.1-0.7,0.1 s-0.5,0-0.6-0.1s-0.4-0.2-0.5-0.3s-0.2-0.3-0.3-0.5S23.4,30.1,23.4,29.9z M26.1,26.8h-2.3L23.4,17h3L26.1,26.8z"/>
</svg>
