<svg version="1" xmlns="http://www.w3.org/2000/svg" viewBox="0 0 48 48" enable-background="new 0 0 48 48">
    <g fill="#37474F">
        <circle cx="33" cy="16" r="6"/>
        <circle cx="15" cy="16" r="6"/>
        <path d="M46.7,25l-15.3,3H16.7L1.4,25l4.3-7.9c1.1-1.9,3.1-3.1,5.3-3.1h26.2c2.2,0,4.2,1.2,5.3,3.1L46.7,25z"/>
        <circle cx="38" cy="30" r="10"/>
        <circle cx="10" cy="30" r="10"/>
        <circle cx="24" cy="28" r="5"/>
    </g>
    <circle fill="#546E7A" cx="24" cy="28" r="2"/>
    <g fill="#a0f">
        <circle cx="38" cy="30" r="7"/>
        <circle cx="10" cy="30" r="7"/>
    </g>
    <g fill="#CE93D8">
        <path d="M41.7,27.7c-1-1.1-2.3-1.7-3.7-1.7s-2.8,0.6-3.7,1.7c-0.4,0.4-0.3,1,0.1,1.4c0.4,0.4,1,0.3,1.4-0.1 c1.2-1.3,3.3-1.3,4.5,0c0.2,0.2,0.5,0.3,0.7,0.3c0.2,0,0.5-0.1,0.7-0.3C42.1,28.7,42.1,28.1,41.7,27.7z"/>
        <path d="M10,26c-1.4,0-2.8,0.6-3.7,1.7c-0.4,0.4-0.3,1,0.1,1.4c0.4,0.4,1,0.3,1.4-0.1c1.2-1.3,3.3-1.3,4.5,0 c0.2,0.2,0.5,0.3,0.7,0.3c0.2,0,0.5-0.1,0.7-0.3c0.4-0.4,0.4-1,0.1-1.4C12.8,26.6,11.4,26,10,26z"/>
    </g>
</svg>
