<svg version="1" xmlns="http://www.w3.org/2000/svg" viewBox="0 0 48 48" enable-background="new 0 0 48 48">
    <path fill="#00A344" d="M24,13c-7.2,0-13,5.8-13,13s5.8,13,13,13s13-5.8,13-13S31.2,13,24,13z M24,35c-5,0-9-4-9-9s4-9,9-9s9,4,9,9 S29,35,24,35z"/>
    <path fill="#00C853" d="M8.5,25.4c4-2.2,9-1.1,11.5,2.5c0.1,0.1,0.2,0.1,0.3,0.1l1.2-0.7c0.1-0.1,0.2-0.2,0.1-0.3 c0-0.2-0.1-0.4-0.1-0.6c0,0,0,0,0,0c0-0.1,0-0.1,0-0.2c0,0,0,0,0,0c0-0.1,0-0.1,0-0.2c0,0,0,0,0,0c0-0.1,0-0.1,0-0.2l0,0 c0-0.1,0-0.1,0.1-0.2c0,0,0,0,0,0c0-0.1,0-0.1,0.1-0.2c0,0,0,0,0,0c0,0,0-0.1,0.1-0.1c0,0,0-0.1,0.1-0.1c0,0,0-0.1,0.1-0.1 c0,0,0.1-0.1,0.1-0.1c0,0,0,0,0,0c0,0,0.1-0.1,0.1-0.1c0,0,0,0,0,0c0,0,0.1-0.1,0.1-0.1c0,0,0,0,0,0c0,0,0.1-0.1,0.1-0.1 c0,0,0,0,0,0c0,0,0.1-0.1,0.1-0.1c0,0,0,0,0.1,0c0.2-0.1,0.4-0.2,0.5-0.2c0.1,0,0.2-0.1,0.2-0.3v-1.3c0-0.1-0.1-0.2-0.2-0.2 c-4.5-0.4-8-4.1-8-8.6c0-4.1,3-7.6,6.9-8.4c0.1,0,0.2-0.1,0.2-0.3V4.8c0-0.1-0.1-0.2-0.2-0.2C16.4,5.5,12,10.4,12,16.3 c0,1.3,0.2,2.6,0.6,3.8c-1.2,0.2-2.5,0.7-3.6,1.3c-5.2,3-7.3,9.2-5.2,14.5C3.9,36,4,36,4.1,36l0.3-0.2c0.1-0.1,0.2-0.2,0.1-0.3 C3.3,31.7,4.8,27.4,8.5,25.4L8.5,25.4z M39,21.4c-1.2-0.7-2.4-1.1-3.6-1.3c0.4-1.2,0.6-2.4,0.6-3.8c0-5.9-4.4-10.8-10.2-11.7 c-0.1,0-0.2,0.1-0.2,0.2v0.4c0,0.1,0.1,0.2,0.2,0.3c4,0.8,6.9,4.3,6.9,8.4c0,4.5-3.5,8.2-8,8.6c-0.1,0-0.2,0.1-0.2,0.2v1.3 c0,0.1,0.1,0.2,0.2,0.3c0.2,0.1,0.4,0.1,0.6,0.2c0,0,0,0,0,0c0,0,0.1,0.1,0.1,0.1c0,0,0,0,0,0c0.1,0,0.1,0.1,0.1,0.1c0,0,0,0,0,0 c0.1,0.1,0.2,0.2,0.3,0.3c0,0,0,0,0,0c0,0,0.1,0.1,0.1,0.1c0,0,0,0,0,0c0,0,0.1,0.1,0.1,0.1c0,0,0,0.1,0,0.1c0,0,0,0.1,0,0.1 c0,0,0,0.1,0.1,0.1c0,0,0,0,0,0c0,0.1,0,0.1,0.1,0.2c0,0,0,0,0,0c0,0.1,0,0.1,0,0.2c0,0,0,0,0,0c0,0.1,0,0.1,0,0.2c0,0,0,0,0,0.1 c0,0,0,0.1,0,0.1c0,0,0,0,0,0.1c0,0.2,0,0.4-0.1,0.6c0,0.1,0,0.2,0.1,0.3l1.2,0.7c0.1,0.1,0.2,0,0.3-0.1c2.6-3.6,7.6-4.8,11.5-2.5 c3.6,2.1,5.2,6.3,3.9,10.1c0,0.1,0,0.2,0.1,0.3l0.3,0.2c0.1,0.1,0.2,0,0.3-0.1C46.3,30.5,44.2,24.3,39,21.4L39,21.4z M30.8,40.3 c-4-2.2-5.5-7.1-3.5-11.1c0.1-0.1,0-0.2-0.1-0.3L26,28.2c-0.1-0.1-0.2,0-0.3,0c-0.2,0.1-0.3,0.3-0.5,0.3c0,0,0,0,0,0 c-0.1,0-0.1,0.1-0.2,0.1c0,0,0,0,0,0c-0.1,0-0.1,0-0.2,0.1c0,0,0,0,0,0c-0.1,0-0.3,0.1-0.4,0.1c0,0,0,0,0,0c-0.1,0-0.1,0-0.2,0 c0,0,0,0-0.1,0c0,0-0.1,0-0.1,0c0,0-0.1,0-0.1,0c0,0-0.1,0-0.1,0c0,0-0.1,0-0.1,0c0,0,0,0-0.1,0c-0.1,0-0.1,0-0.2,0c0,0,0,0,0,0 c-0.1,0-0.1,0-0.2,0c0,0,0,0,0,0c-0.1,0-0.1,0-0.2-0.1c0,0,0,0,0,0c0,0-0.1,0-0.1-0.1c0,0,0,0-0.1,0c-0.2-0.1-0.3-0.2-0.5-0.3 c-0.1-0.1-0.2-0.1-0.3,0l-1.2,0.7c-0.1,0.1-0.1,0.2-0.1,0.3c1.9,4,0.4,8.8-3.5,11.1c-3.6,2.1-8.2,1.3-10.9-1.7 c-0.1-0.1-0.2-0.1-0.3-0.1l-0.3,0.2c-0.1,0.1-0.1,0.2-0.1,0.3c3.6,4.5,10.2,5.8,15.4,2.8c1.2-0.7,2.2-1.5,3-2.4 c0.8,0.9,1.8,1.8,3,2.4c5.2,3,11.7,1.6,15.4-2.8c0.1-0.1,0-0.2-0.1-0.3L42,38.5c-0.1-0.1-0.2,0-0.3,0.1C39,41.5,34.4,42.3,30.8,40.3 L30.8,40.3z"/>
</svg>
