<svg version="1" xmlns="http://www.w3.org/2000/svg" viewBox="0 0 48 48" enable-background="new 0 0 48 48">
    <path fill="#AD1457" d="M36,4c0,9.3-6,13.2-12.8,17.8C16.1,26.5,8,31.8,8,44h4c0-10.1,6.5-14.4,13.4-18.9C32.2,20.6,40,15.4,40,4 H36z"/>
    <path fill="#AD1457" d="M38,41H11c-0.6,0-1-0.4-1-1s0.4-1,1-1h27c0.6,0,1,0.4,1,1S38.6,41,38,41z"/>
    <path fill="#AD1457" d="M36,37H12c-0.6,0-1-0.4-1-1s0.4-1,1-1h24c0.6,0,1,0.4,1,1S36.6,37,36,37z"/>
    <path fill="#AD1457" d="M34,33H14c-0.6,0-1-0.4-1-1s0.4-1,1-1h20c0.6,0,1,0.4,1,1S34.6,33,34,33z"/>
    <path fill="#AD1457" d="M29,29H19c-0.6,0-1-0.4-1-1s0.4-1,1-1h10c0.6,0,1,0.4,1,1S29.6,29,29,29z"/>
    <path fill="#E91E63" d="M37,9H10C9.4,9,9,8.6,9,8s0.4-1,1-1h27c0.6,0,1,0.4,1,1S37.6,9,37,9z"/>
    <path fill="#E91E63" d="M36,13H12c-0.6,0-1-0.4-1-1s0.4-1,1-1h24c0.6,0,1,0.4,1,1S36.6,13,36,13z"/>
    <path fill="#E91E63" d="M34,17H14c-0.6,0-1-0.4-1-1s0.4-1,1-1h20c0.6,0,1,0.4,1,1S34.6,17,34,17z"/>
    <path fill="#E91E63" d="M29,21H19c-0.6,0-1-0.4-1-1s0.4-1,1-1h10c0.6,0,1,0.4,1,1S29.6,21,29,21z"/>
    <path fill="#E91E63" d="M40,44h-4c0-10.1-6.5-14.4-13.4-18.9C15.8,20.6,8,15.4,8,4h4c0,9.3,6,13.2,12.8,17.8 C31.9,26.5,40,31.8,40,44z"/>
</svg>
