<svg version="1" xmlns="http://www.w3.org/2000/svg" viewBox="0 0 48 48" enable-background="new 0 0 48 48">
    <g fill="#1976D2">
        <path d="M17.5,27c-1.1,1.2-2.7,2-4.5,2h-3c-3.3,0-6-2.7-6-6s2.7-6,6-6h3c1.8,0,3.4,0.8,4.5,2h4.7 c-1.5-3.5-5.1-6-9.2-6h-3C4.5,13,0,17.5,0,23s4.5,10,10,10h3c4.1,0,7.6-2.5,9.2-6H17.5z"/>
        <path d="M38,13h-3c-4.1,0-7.6,2.5-9.2,6h4.7c1.1-1.2,2.7-2,4.5-2h3c3.3,0,6,2.7,6,6s-2.7,6-6,6h-3 c-1.8,0-3.4-0.8-4.5-2h-4.7c1.5,3.5,5.1,6,9.2,6h3c5.5,0,10-4.5,10-10S43.5,13,38,13z"/>
    </g>
    <g fill="#00BCD4">
        <polygon points="19.5,4 16,6 22.1,14.1 23.4,13.3"/>
        <polygon points="28.5,4 32,6 25.9,14.1 24.6,13.3"/>
        <polygon points="28.5,44 32,42 25.9,33.9 24.6,34.7"/>
        <polygon points="19.5,44 16,42 22.1,33.9 23.4,34.7"/>
    </g>
</svg>
