<svg version="1" xmlns="http://www.w3.org/2000/svg" viewBox="0 0 48 48" enable-background="new 0 0 48 48">
    <g fill="#263238">
        <path d="M11,44H9c-0.6,0-1-0.4-1-1v-2h4v2C12,43.6,11.6,44,11,44z"/>
        <path d="M39,44h-2c-0.6,0-1-0.4-1-1v-2h4v2C40,43.6,39.6,44,39,44z"/>
    </g>
    <path fill="#37474F" d="M27,7h-6c-1.7,0-3,1.3-3,3v3h2v-3c0-0.6,0.4-1,1-1h6c0.6,0,1,0.4,1,1v3h2v-3C30,8.3,28.7,7,27,7z"/>
    <path fill="#78909C" d="M40,43H8c-2.2,0-4-1.8-4-4V15c0-2.2,1.8-4,4-4h32c2.2,0,4,1.8,4,4v24C44,41.2,42.2,43,40,43z"/>
</svg>
