<svg version="1" xmlns="http://www.w3.org/2000/svg" viewBox="0 0 48 48" enable-background="new 0 0 48 48">
    <path fill="#512DA8" d="M33.9,12.1H14.2L17.6,7c0.4-0.6,1-0.9,1.7-0.9h9.6c0.7,0,1.3,0.3,1.7,0.9L33.9,12.1z"/>
    <path fill="#8667C4" d="M14,11H8V9.2C8,8.5,8.5,8,9.2,8h3.6C13.5,8,14,8.5,14,9.2V11z"/>
    <path fill="#5E35B1" d="M40,42H8c-2.2,0-4-1.8-4-4V14c0-2.2,1.8-4,4-4h32c2.2,0,4,1.8,4,4v24C44,40.2,42.2,42,40,42z"/>
    <circle fill="#512DA8" cx="24" cy="26" r="12"/>
    <circle fill="#B388FF" cx="24" cy="26" r="9"/>
    <path fill="#C7A7FF" d="M29,23c-1.2-1.4-3-2.2-4.8-2.2c-1.8,0-3.6,0.8-4.8,2.2c-0.5,0.5-0.4,1.3,0.1,1.8c0.5,0.5,1.3,0.4,1.8-0.1 c1.5-1.7,4.3-1.7,5.8,0c0.3,0.3,0.6,0.4,1,0.4c0.3,0,0.6-0.1,0.9-0.3C29.4,24.4,29.5,23.5,29,23z"/>
    <ellipse fill="#8667C4" cx="11" cy="13.5" rx="2" ry="1.5"/>
</svg>
