<svg version="1" xmlns="http://www.w3.org/2000/svg" viewBox="0 0 48 48" enable-background="new 0 0 48 48">
    <path fill="#512DA8" d="M33.9,12.1H14.2L17.6,7c0.4-0.6,1-0.9,1.7-0.9h9.6c0.7,0,1.3,0.3,1.7,0.9L33.9,12.1z"/>
    <path fill="#8667C4" d="M14,11H8V9.2C8,8.5,8.5,8,9.2,8h3.6C13.5,8,14,8.5,14,9.2V11z"/>
    <path fill="#5E35B1" d="M40,42H8c-2.2,0-4-1.8-4-4V14c0-2.2,1.8-4,4-4h32c2.2,0,4,1.8,4,4v24C44,40.2,42.2,42,40,42z"/>
    <circle fill="#512DA8" cx="24" cy="26" r="12"/>
    <circle fill="#B388FF" cx="24" cy="26" r="9"/>
    <g fill="#616161">
        <rect x="42.2" y="38.3" transform="matrix(.707 -.707 .707 .707 -18.002 43.46)" width="2.4" height="10.4"/>
        <circle cx="35" cy="35" r="10"/>
    </g>
    <rect x="43.9" y="42.4" transform="matrix(.707 -.707 .707 .707 -18.709 45.167)" fill="#37474F" width="2.4" height="5.6"/>
    <circle fill="#64B5F6" cx="35" cy="35" r="8"/>
    <path fill="#BBDEFB" d="M39.3,31.4c-1.1-1.3-2.6-2-4.2-2s-3.2,0.7-4.2,2c-0.2,0.3-0.2,0.6,0.1,0.9c0.3,0.2,0.6,0.2,0.9-0.1 c0.8-1,2-1.5,3.3-1.5s2.5,0.6,3.3,1.5c0.1,0.1,0.3,0.2,0.5,0.2c0.1,0,0.3,0,0.4-0.1C39.5,32.1,39.5,31.7,39.3,31.4z"/>
    <path fill="#C7A7FF" d="M29,23c-1.2-1.4-3-2.2-4.8-2.2c-1.8,0-3.6,0.8-4.8,2.2c-0.5,0.5-0.4,1.3,0.1,1.8c0.5,0.5,1.3,0.4,1.8-0.1 c1.5-1.7,4.3-1.7,5.8,0c0.3,0.3,0.6,0.4,1,0.4c0.3,0,0.6-0.1,0.9-0.3C29.4,24.4,29.5,23.5,29,23z"/>
    <ellipse fill="#8667C4" cx="11" cy="13.5" rx="2" ry="1.5"/>
</svg>
