<svg version="1" xmlns="http://www.w3.org/2000/svg" viewBox="0 0 48 48" enable-background="new 0 0 48 48">
    <g fill="#FF9800">
        <rect y="27" width="25" height="4"/>
        <rect y="17" width="25" height="4"/>
    </g>
    <g fill="#3F51B5">
        <path d="M46,35c1.1,0,2-0.9,2-2V15c0-1.1-0.9-2-2-2H27v22H46z"/>
        <path d="M21,13c-1.1,0-2,0.9-2,2v18c0,1.1,0.9,2,2,2h2V13H21z"/>
    </g>
    <path fill="#303F9F" d="M25,33c1.1,0,2,0.9,2,2V13c0,1.1-0.9,2-2,2c-1.1,0-2-0.9-2-2v22C23,33.9,23.9,33,25,33z"/>
</svg>
