<svg version="1" xmlns="http://www.w3.org/2000/svg" viewBox="0 0 48 48" enable-background="new 0 0 48 48">
    <path fill="#3F51B5" d="M43.4,8.3L4,15l-0.3-2c-0.4-2.2,1.1-4.2,3.3-4.6l31.6-5.3c2.2-0.4,4.2,1.1,4.6,3.3L43.4,8.3z"/>
    <path fill="#3F51B5" d="M40,41H8c-2.2,0-4-1.8-4-4V15h40v22C44,39.2,42.2,41,40,41z"/>
    <g fill="#9FA8DA">
        <polygon points="18.8,6.4 23.7,11.7 27.7,11 22.7,5.7"/>
        <polygon points="10.9,7.7 15.8,13 19.8,12.3 14.8,7.1"/>
        <polygon points="26.7,5.1 31.6,10.3 35.5,9.7 30.6,4.4"/>
        <polygon points="34.5,3.8 39.5,9 43.4,8.3 38.5,3.1"/>
    </g>
    <circle fill="#9FA8DA" cx="7.5" cy="11.5" r="1.5"/>
    <g fill="#9FA8DA">
        <polygon points="40,15 36,21 40,21 44,15"/>
        <polygon points="32,15 28,21 32,21 36,15"/>
        <polygon points="24,15 20,21 24,21 28,15"/>
        <polygon points="16,15 12,21 16,21 20,15"/>
        <polygon points="8,15 4,21 8,21 12,15"/>
    </g>
</svg>
