<svg version="1" xmlns="http://www.w3.org/2000/svg" viewBox="0 0 48 48" enable-background="new 0 0 48 48">
    <path fill="#607D8B" d="M40,39H8c-2.2,0-4-1.8-4-4V13c0-2.2,1.8-4,4-4h32c2.2,0,4,1.8,4,4v22C44,37.2,42.2,39,40,39z"/>
    <circle fill="#455A64" cx="29" cy="24" r="12"/>
    <circle fill="#42A5F5" cx="29" cy="24" r="9"/>
    <path fill="#90CAF9" d="M33.8,21c-1.2-1.4-3-2.2-4.8-2.2s-3.6,0.8-4.8,2.2c-0.5,0.5-0.4,1.3,0.1,1.8c0.5,0.5,1.3,0.4,1.8-0.1 c1.5-1.7,4.3-1.7,5.8,0c0.3,0.3,0.6,0.4,1,0.4c0.3,0,0.6-0.1,0.9-0.3C34.2,22.4,34.3,21.5,33.8,21z"/>
    <rect x="8" y="13" fill="#ADD8FB" width="6" height="3"/>
</svg>
