<svg version="1" xmlns="http://www.w3.org/2000/svg" viewBox="0 0 48 48" enable-background="new 0 0 48 48">
    <circle fill="#FFA726" cx="12" cy="21" r="5"/>
    <g fill="#455A64">
        <path d="M2,34.7c0,0,2.8-6.3,10-6.3s10,6.3,10,6.3V38H2V34.7z"/>
        <path d="M46,34.7c0,0-2.8-6.3-10-6.3s-10,6.3-10,6.3V38h20V34.7z"/>
    </g>
    <circle fill="#FFB74D" cx="24" cy="17" r="6"/>
    <path fill="#607D8B" d="M36,34.1c0,0-3.3-7.5-12-7.5s-12,7.5-12,7.5V38h24V34.1z"/>
    <circle fill="#FFA726" cx="36" cy="21" r="5"/>
    <circle fill="#FFA726" cx="12" cy="21" r="5"/>
    <circle fill="#FFA726" cx="36" cy="21" r="5"/>
</svg>
