<svg version="1" xmlns="http://www.w3.org/2000/svg" viewBox="0 0 48 48" enable-background="new 0 0 48 48">
    <circle fill="#3F51B5" cx="18" cy="18" r="15"/>
    <path fill="#FFF59D" d="M20.3,16v1.7h-3.8v1.4h3.8v1.7h-3.8c0,0.6,0.1,1.2,0.3,1.6c0.2,0.4,0.4,0.8,0.7,1c0.3,0.3,0.7,0.4,1.1,0.6 c0.4,0.1,0.9,0.2,1.4,0.2c0.4,0,0.7,0,1.1-0.1c0.4-0.1,0.7-0.1,1-0.3l0.4,2.7c-0.4,0.1-0.9,0.2-1.4,0.2c-0.5,0.1-1,0.1-1.5,0.1 c-0.9,0-1.8-0.1-2.6-0.4c-0.8-0.2-1.5-0.6-2-1.1c-0.6-0.5-1-1.1-1.4-1.9c-0.3-0.7-0.5-1.6-0.5-2.6h-1.9v-1.7h1.9v-1.4h-1.9V16h1.9 c0.1-1,0.3-1.8,0.6-2.6c0.4-0.7,0.8-1.4,1.4-1.9c0.6-0.5,1.3-0.9,2.1-1.1c0.8-0.3,1.7-0.4,2.6-0.4c0.4,0,0.9,0,1.3,0.1 c0.4,0.1,0.9,0.1,1.3,0.3l-0.4,2.7c-0.3-0.1-0.6-0.2-1-0.3c-0.4-0.1-0.7-0.1-1.1-0.1c-0.5,0-1,0.1-1.4,0.2c-0.4,0.1-0.8,0.3-1,0.6 c-0.3,0.3-0.5,0.6-0.7,1s-0.3,0.9-0.3,1.5H20.3z"/>
    <circle fill="#4CAF50" cx="30" cy="30" r="15"/>
    <path fill="#fff" d="M28.4,27c0.1,0.2,0.2,0.4,0.4,0.6c0.2,0.2,0.4,0.4,0.7,0.5c0.3,0.2,0.7,0.3,1.1,0.5c0.7,0.3,1.4,0.6,2,0.9 c0.6,0.3,1.1,0.7,1.5,1.1c0.4,0.4,0.8,0.9,1,1.4c0.2,0.5,0.4,1.2,0.4,1.9c0,0.7-0.1,1.3-0.3,1.8c-0.2,0.5-0.5,1-0.9,1.4 s-0.9,0.7-1.4,0.9c-0.6,0.2-1.2,0.4-1.8,0.5v2.2h-1.8v-2.2c-0.6-0.1-1.2-0.2-1.8-0.4s-1.1-0.5-1.5-1c-0.5-0.4-0.8-1-1.1-1.6 c-0.3-0.6-0.4-1.4-0.4-2.3h3.3c0,0.5,0.1,1,0.2,1.3c0.1,0.4,0.3,0.6,0.6,0.9c0.2,0.2,0.5,0.4,0.8,0.5c0.3,0.1,0.6,0.1,0.9,0.1 c0.4,0,0.7,0,0.9-0.1c0.3-0.1,0.5-0.2,0.7-0.4c0.2-0.2,0.3-0.4,0.4-0.6c0.1-0.2,0.1-0.5,0.1-0.8c0-0.3,0-0.6-0.1-0.8 c-0.1-0.2-0.2-0.5-0.4-0.7s-0.4-0.4-0.7-0.5c-0.3-0.2-0.7-0.3-1.1-0.5c-0.7-0.3-1.4-0.6-2-0.9c-0.6-0.3-1.1-0.7-1.5-1.1 c-0.4-0.4-0.8-0.9-1-1.4c-0.2-0.5-0.4-1.2-0.4-1.9c0-0.6,0.1-1.2,0.3-1.7c0.2-0.5,0.5-1,0.9-1.4c0.4-0.4,0.9-0.7,1.4-1 c0.5-0.2,1.2-0.4,1.8-0.5v-2.4h1.8v2.4c0.6,0.1,1.2,0.3,1.8,0.6c0.5,0.3,1,0.6,1.3,1.1c0.4,0.4,0.7,1,0.9,1.6c0.2,0.6,0.3,1.3,0.3,2 h-3.3c0-0.9-0.2-1.6-0.6-2c-0.4-0.4-0.9-0.7-1.5-0.7c-0.3,0-0.6,0.1-0.9,0.2c-0.2,0.1-0.4,0.2-0.6,0.4c-0.2,0.2-0.3,0.4-0.3,0.6 c-0.1,0.2-0.1,0.5-0.1,0.8C28.3,26.5,28.4,26.8,28.4,27z"/>
</svg>
