<svg version="1" xmlns="http://www.w3.org/2000/svg" viewBox="0 0 48 48" enable-background="new 0 0 48 48">
    <g fill="#81D4FA">
        <rect x="24" y="28" width="18" height="14"/>
        <rect x="6" y="10" width="12" height="32"/>
    </g>
    <g fill="#1976D2">
        <path d="M16,8h-2c0,1.1-0.9,2-2,2s-2-0.9-2-2H8c0,1.1-0.9,2-2,2v2c1.2,0,2.3-0.5,3-1.4c0.7,0.8,1.8,1.4,3,1.4 s2.3-0.5,3-1.4c0.7,0.8,1.8,1.4,3,1.4v-2C16.9,10,16,9.1,16,8z"/>
        <path d="M16,14h-2c0,1.1-0.9,2-2,2s-2-0.9-2-2H8c0,1.1-0.9,2-2,2v2c1.2,0,2.3-0.5,3-1.4c0.7,0.8,1.8,1.4,3,1.4 s2.3-0.5,3-1.4c0.7,0.8,1.8,1.4,3,1.4v-2C16.9,16,16,15.1,16,14z"/>
        <path d="M16,20h-2c0,1.1-0.9,2-2,2s-2-0.9-2-2H8c0,1.1-0.9,2-2,2v2c1.2,0,2.3-0.5,3-1.4c0.7,0.8,1.8,1.4,3,1.4 s2.3-0.5,3-1.4c0.7,0.8,1.8,1.4,3,1.4v-2C16.9,22,16,21.1,16,20z"/>
        <path d="M16,26h-2c0,1.1-0.9,2-2,2s-2-0.9-2-2H8c0,1.1-0.9,2-2,2v2c1.2,0,2.3-0.5,3-1.4c0.7,0.8,1.8,1.4,3,1.4 s2.3-0.5,3-1.4c0.7,0.8,1.8,1.4,3,1.4v-2C16.9,28,16,27.1,16,26z"/>
        <path d="M16,32h-2c0,1.1-0.9,2-2,2s-2-0.9-2-2H8c0,1.1-0.9,2-2,2v2c1.2,0,2.3-0.5,3-1.4c0.7,0.8,1.8,1.4,3,1.4 s2.3-0.5,3-1.4c0.7,0.8,1.8,1.4,3,1.4v-2C16.9,34,16,33.1,16,32z"/>
        <path d="M16,38h-2c0,1.1-0.9,2-2,2s-2-0.9-2-2H8c0,1.1-0.9,2-2,2v2c1.2,0,2.3-0.5,3-1.4c0.7,0.8,1.8,1.4,3,1.4 s2.3-0.5,3-1.4c0.7,0.8,1.8,1.4,3,1.4v-2C16.9,40,16,39.1,16,38z"/>
        <path d="M40,32h-2c0,1.1-0.9,2-2,2s-2-0.9-2-2h-2c0,1.1-0.9,2-2,2s-2-0.9-2-2h-2c0,1.1-0.9,2-2,2v2 c1.2,0,2.3-0.5,3-1.4c0.7,0.8,1.8,1.4,3,1.4s2.3-0.5,3-1.4c0.7,0.8,1.8,1.4,3,1.4s2.3-0.5,3-1.4c0.7,0.8,1.8,1.4,3,1.4v-2 C40.9,34,40,33.1,40,32z"/>
        <path d="M40,26h-2c0,1.1-0.9,2-2,2s-2-0.9-2-2h-2c0,1.1-0.9,2-2,2s-2-0.9-2-2h-2c0,1.1-0.9,2-2,2v2 c1.2,0,2.3-0.5,3-1.4c0.7,0.8,1.8,1.4,3,1.4s2.3-0.5,3-1.4c0.7,0.8,1.8,1.4,3,1.4s2.3-0.5,3-1.4c0.7,0.8,1.8,1.4,3,1.4v-2 C40.9,28,40,27.1,40,26z"/>
        <path d="M40,38h-2c0,1.1-0.9,2-2,2s-2-0.9-2-2h-2c0,1.1-0.9,2-2,2v2c1.2,0,2.3-0.5,3-1.4c0.7,0.8,1.8,1.4,3,1.4 s2.3-0.5,3-1.4c0.7,0.8,1.8,1.4,3,1.4v-2C40.9,40,40,39.1,40,38z"/>
    </g>
    <path fill="#455A64" d="M25.1,9.2L31.5,42H18V6h3.2C23.1,6,24.8,7.4,25.1,9.2z"/>
</svg>
