<svg version="1" xmlns="http://www.w3.org/2000/svg" viewBox="0 0 48 48" enable-background="new 0 0 48 48">
    <path fill="#90CAF9" d="M39,16v7h-6v-7h-2v7h-6v-7h-2v7h-7v2h7v6h-7v2h7v6h-7v2h25V16H39z M39,25v6h-6v-6H39z M25,25h6v6h-6V25z M25,33h6v6h-6V33z M33,39v-6h6v6H33z"/>
    <polygon fill="#00BCD4" points="40,8 8,8 8,40 16,40 16,16 40,16"/>
    <path fill="#0097A7" d="M7,7v34h10V17h24V7H7z M9,23v-6h6v6H9z M15,25v6H9v-6H15z M17,9h6v6h-6V9z M25,9h6v6h-6V9z M15,9v6H9V9H15z M9,39v-6h6v6H9z M39,15h-6V9h6V15z"/>
</svg>
