<svg version="1" xmlns="http://www.w3.org/2000/svg" viewBox="0 0 48 48" enable-background="new 0 0 48 48">
    <g fill="#D1C4E9">
        <path d="M38,7H10C8.9,7,8,7.9,8,9v6c0,1.1,0.9,2,2,2h28c1.1,0,2-0.9,2-2V9C40,7.9,39.1,7,38,7z"/>
        <path d="M38,19H10c-1.1,0-2,0.9-2,2v6c0,1.1,0.9,2,2,2h25.1c1.3-1.3,4.9-0.9,4.9-2v-6C40,19.9,39.1,19,38,19z"/>
        <path d="M34.4,31H10c-1.1,0-2,0.9-2,2v6c0,1.1,0.9,2,2,2h28c1.1,0,2-0.9,2-2v-2.4C40,33.5,37.5,31,34.4,31z"/>
    </g>
    <path fill="#009688" d="M46,25H32c-1.1,0-2,0.9-2,2v11.8c0,1.3,0.6,2.4,1.6,3.2l7.4,5.5l7.4-5.5c1-0.8,1.6-1.9,1.6-3.2V27 C48,25.9,47.1,25,46,25z"/>
</svg>
