<svg version="1" xmlns="http://www.w3.org/2000/svg" viewBox="0 0 48 48" enable-background="new 0 0 48 48">
    <g fill="#D1C4E9">
        <path d="M38,7H10C8.9,7,8,7.9,8,9v6c0,1.1,0.9,2,2,2h28c1.1,0,2-0.9,2-2V9C40,7.9,39.1,7,38,7z"/>
        <path d="M38,19H10c-1.1,0-2,0.9-2,2v6c0,1.1,0.9,2,2,2h25.1c1.3-1.3,4.9-0.9,4.9-2v-6C40,19.9,39.1,19,38,19z"/>
        <path d="M34.4,31H10c-1.1,0-2,0.9-2,2v6c0,1.1,0.9,2,2,2h28c1.1,0,2-0.9,2-2v-2.4C40,33.5,37.5,31,34.4,31z"/>
    </g>
    <g fill="#FFA000">
        <polygon points="43,46 41,48 39,48 37,46 37,35.4 43,35.4 43,40 42,41 43,42 43,43 42,44 43,45"/>
        <path d="M47.5,28.5c-0.3-0.9-1-1.6-2-1.8C44.2,26.4,42.2,26,40,26s-4.2,0.4-5.5,0.6c-1,0.2-1.7,0.9-2,1.8 C32.3,29.4,32,30.6,32,32c0,1.4,0.3,2.6,0.5,3.5c0.3,0.9,1,1.6,2,1.8c1.3,0.3,3.2,0.6,5.5,0.6s4.2-0.4,5.5-0.6c1-0.2,1.7-0.9,2-1.8 c0.3-0.9,0.5-2.1,0.5-3.5C48,30.6,47.7,29.4,47.5,28.5z M42.9,31h-5.7c-0.6,0-1.1-0.5-1.1-1.1v-1.4c0-0.3,1.8-0.6,4-0.6 s4,0.3,4,0.6v1.4C44,30.5,43.5,31,42.9,31z"/>
    </g>
    <rect x="39" y="37.1" fill="#D68600" width="1" height="10.9"/>
</svg>
