<svg version="1" xmlns="http://www.w3.org/2000/svg" viewBox="0 0 48 48" enable-background="new 0 0 48 48">
    <path fill="#FFB74D" d="M10,12c-2.8,0-5-2.2-5-5s2.2-5,5-5s5,2.2,5,5S12.8,12,10,12z"/>
    <path fill="#607D8B" d="M2,22v8l3,2l1,14h8l1-14l3-2v-8c0-4.4-3.6-8-8-8h0C5.6,14,2,17.6,2,22z"/>
    <g fill="#263238">
        <path d="M22.4,40.4c-0.6,2.5-1,3.6-2.4,3.6c-0.6,0-1.2-0.5-1.9-1.1c-1-0.8-2.2-1.9-4.1-1.9v2c1.1,0,1.9,0.7,2.8,1.4 c0.9,0.7,1.9,1.6,3.2,1.6c3.1,0,3.8-2.9,4.4-5.2C25,38.2,25.4,37,27,37v-2C23.7,35,22.9,38.1,22.4,40.4z"/>
        <polygon points="14.4,40 10,40 10,44 14.1,44"/>
    </g>
    <circle fill="#4CAF50" cx="36" cy="36" r="10"/>
    <path fill="#fff" d="M35,34c0.1,0.2,0.1,0.3,0.3,0.4c0.1,0.1,0.3,0.2,0.5,0.4c0.2,0.1,0.5,0.2,0.8,0.3c0.5,0.2,0.9,0.4,1.3,0.6 c0.4,0.2,0.7,0.4,1,0.7c0.3,0.3,0.5,0.6,0.7,0.9c0.2,0.4,0.2,0.8,0.2,1.3c0,0.4-0.1,0.8-0.2,1.2c-0.1,0.4-0.3,0.7-0.6,0.9 c-0.3,0.3-0.6,0.5-0.9,0.6c-0.4,0.2-0.8,0.3-1.2,0.3v1.5h-1.2v-1.5c-0.4,0-0.8-0.1-1.2-0.3c-0.4-0.2-0.7-0.4-1-0.6 c-0.3-0.3-0.5-0.6-0.7-1.1c-0.2-0.4-0.3-0.9-0.3-1.5h2.2c0,0.4,0,0.7,0.1,0.9c0.1,0.2,0.2,0.4,0.4,0.6c0.2,0.1,0.3,0.2,0.5,0.3 c0.2,0.1,0.4,0.1,0.6,0.1c0.2,0,0.4,0,0.6-0.1c0.2-0.1,0.3-0.2,0.4-0.3c0.1-0.1,0.2-0.3,0.3-0.4c0.1-0.2,0.1-0.3,0.1-0.5 c0-0.2,0-0.4-0.1-0.6c-0.1-0.2-0.1-0.3-0.3-0.4c-0.1-0.1-0.3-0.3-0.5-0.4c-0.2-0.1-0.4-0.2-0.7-0.3c-0.5-0.2-0.9-0.4-1.3-0.6 c-0.4-0.2-0.7-0.4-1-0.7c-0.3-0.3-0.5-0.6-0.7-0.9c-0.2-0.4-0.2-0.8-0.2-1.3c0-0.4,0.1-0.8,0.2-1.2c0.1-0.3,0.3-0.7,0.6-0.9 c0.3-0.3,0.6-0.5,0.9-0.6c0.4-0.2,0.8-0.3,1.2-0.3v-1.6h1.2v1.6c0.4,0.1,0.8,0.2,1.2,0.4c0.4,0.2,0.6,0.4,0.9,0.7 c0.2,0.3,0.4,0.6,0.6,1c0.1,0.4,0.2,0.9,0.2,1.4h-2.2c0-0.6-0.1-1-0.4-1.3c-0.2-0.3-0.6-0.4-1-0.4c-0.2,0-0.4,0-0.6,0.1 c-0.2,0.1-0.3,0.2-0.4,0.3C35.1,32.7,35,32.8,35,33s-0.1,0.3-0.1,0.5C34.9,33.7,34.9,33.9,35,34z"/>
</svg>
