<svg version="1" xmlns="http://www.w3.org/2000/svg" viewBox="0 0 48 48" enable-background="new 0 0 48 48">
    <path fill="#90CAF9" d="M30,5H18c-2.2,0-4,1.8-4,4v30c0,2.2,1.8,4,4,4h12c2.2,0,4-1.8,4-4V9C34,6.8,32.2,5,30,5z M18,39V9h12l0,30 H18z"/>
    <circle fill="#F44336" cx="38" cy="38" r="10"/>
    <g fill="#fff">
        <rect x="36.5" y="32" transform="matrix(-.707 .707 -.707 -.707 91.74 38)" width="3" height="12"/>
        <rect x="36.5" y="32" transform="matrix(-.707 -.707 .707 -.707 38 91.74)" width="3" height="12"/>
    </g>
</svg>
