<svg version="1" xmlns="http://www.w3.org/2000/svg" viewBox="0 0 48 48" enable-background="new 0 0 48 48">
    <polygon fill="#C5CAE9" points="42,42 6,42 6,9 24,2 42,9"/>
    <rect x="6" y="42" fill="#9FA8DA" width="36" height="2"/>
    <rect x="20" y="35" fill="#BF360C" width="8" height="9"/>
    <g fill="#1565C0">
        <rect x="31" y="27" width="6" height="5"/>
        <rect x="21" y="27" width="6" height="5"/>
        <rect x="11" y="27" width="6" height="5"/>
        <rect x="31" y="35" width="6" height="5"/>
        <rect x="11" y="35" width="6" height="5"/>
        <rect x="31" y="19" width="6" height="5"/>
        <rect x="21" y="19" width="6" height="5"/>
        <rect x="11" y="19" width="6" height="5"/>
        <rect x="31" y="11" width="6" height="5"/>
        <rect x="21" y="11" width="6" height="5"/>
        <rect x="11" y="11" width="6" height="5"/>
    </g>
</svg>
