<svg version="1" xmlns="http://www.w3.org/2000/svg" viewBox="0 0 48 48" enable-background="new 0 0 48 48">
    <polygon fill="#E69329" points="11.7,21.6 16.8,31.5 26.3,27.6 30.7,14.9 15.9,15.7"/>
    <circle fill="#546E7A" cx="15" cy="36" r="7.8"/>
    <g fill="#90A4AE">
        <path d="M15,27c-5,0-9,4-9,9c0,5,4,9,9,9s9-4,9-9C24,31,20,27,15,27z M15,43c-3.9,0-7-3.1-7-7c0-3.9,3.1-7,7-7 s7,3.1,7,7C22,39.9,18.9,43,15,43z"/>
        <rect x="14" y="33" width="2" height="8"/>
    </g>
    <g fill="#FFB74D">
        <path d="M12.9,36L12.9,36c1,1.9,3.2,2.7,5.1,1.7l16.5-8.5c1-0.5,1.7-1.2,2.2-1.9c1.7-3.2,5.6-10.7,8.2-17.2 l-18.2,8.7L21.9,26l-6.8,3.6C12.5,30.9,11.7,33.8,12.9,36z"/>
        <path d="M30.2,3L13.7,9.3c-0.7,0.2-1.5,1-2.2,1.7l-5.6,7.5c-1,1.5-1.2,3.4-0.5,5.1c0.4,1,1.7,3.4,3.1,6.1 c1.6-1.7,3.9-2.7,6.5-2.7c0.4,0,0.9,0,1.3,0.1l-2.1-4.2l4.6-4.1h8c0,0,15.5-2.2,18.2-8.7L30.2,3z"/>
    </g>
    <path fill="#FFCDD2" d="M18.2,36c-1.3,0.6-2.8,0-3.3-1.3c-0.6-1.3,0-2.8,1.3-3.3C17.4,30.8,19.4,35.4,18.2,36z"/>
</svg>
