<svg version="1" xmlns="http://www.w3.org/2000/svg" viewBox="0 0 48 48" enable-background="new 0 0 48 48">
    <circle fill="#B2EBF2" cx="32" cy="24" r="9"/>
    <path fill="#4DD0E1" d="M32,12c-6.6,0-12,5.4-12,12c0,6.6,5.4,12,12,12s12-5.4,12-12C44,17.4,38.6,12,32,12z M32,32 c-4.4,0-8-3.6-8-8s3.6-8,8-8s8,3.6,8,8S36.4,32,32,32z"/>
    <g fill="#3F51B5">
        <polygon points="25.4,22 19.8,5.1 13.6,27.7 11.4,22 4,22 4,26 8.6,26 14.4,40.3 20.2,18.9 22.6,26 30,26 30,22"/>
        <circle cx="32" cy="24" r="4"/>
    </g>
</svg>
