<svg version="1" xmlns="http://www.w3.org/2000/svg" viewBox="0 0 48 48" enable-background="new 0 0 48 48">
    <path fill="#F44336" d="M43.5,16.8l-2.3-2.3c-8.1-7.9-27.5-6.8-34.5,0l-2.3,2.3c-0.6,0.6-0.6,1.6,0,2.3l4.6,4.5 c0.6,0.6,1.7,0.6,2.3,0l5.1-4.9L16,13.4c1.6-1.6,14.4-1.6,16,0l-0.3,5.5l4.9,4.7c0.6,0.6,1.7,0.6,2.3,0l4.6-4.5 C44.2,18.4,44.2,17.4,43.5,16.8z"/>
    <g fill="#B71C1C">
        <polygon points="24,40.5 16,31 32,31"/>
        <rect x="21" y="24" width="6" height="7.5"/>
    </g>
</svg>
