<svg version="1" xmlns="http://www.w3.org/2000/svg" viewBox="0 0 48 48" enable-background="new 0 0 48 48">
    <path fill="#2196F3" d="M38,24v12c0,1.1-0.9,2-2,2H12c-1.1,0-2-0.9-2-2V24c0-3.3-2.7-6-6-6h0v4h0c1.1,0,2,0.9,2,2v12 c0,3.3,2.7,6,6,6h24c3.3,0,6-2.7,6-6V24c0-1.1,0.9-2,2-2h0v-4h0C40.7,18,38,20.7,38,24z"/>
    <g fill="#3F51B5">
        <polygon points="38.6,5.6 29,15.2 29,28 33,28 33,16.8 41.4,8.4"/>
        <polygon points="6.6,8.4 15,16.8 15,28 19,28 19,15.2 9.4,5.6"/>
        <polygon points="37,27 31,33 25,27"/>
        <polygon points="23,27 17,33 11,27"/>
    </g>
</svg>
