<svg version="1" xmlns="http://www.w3.org/2000/svg" viewBox="0 0 48 48" enable-background="new 0 0 48 48">
    <g fill="#FFCC80">
        <circle cx="38" cy="26" r="4"/>
        <circle cx="10" cy="26" r="4"/>
        <path d="M39,19c0-12.7-30-8.3-30,0c0,1.8,0,8.2,0,10c0,8.3,6.7,15,15,15s15-6.7,15-15C39,27.2,39,20.8,39,19z"/>
        <path d="M24,4C15.2,4,8,11.2,8,20c0,1.2,0,3.5,0,3.5l2.1,0.6V19l19.5-6.3l8.2,6.3v5.1l2.1-0.6c0,0,0-2.3,0-3.5 C40,12.5,34.6,4,24,4z"/>
    </g>
    <g fill="#4CAF50">
        <rect x="22" y="16" width="4" height="18"/>
        <rect x="15" y="23" width="18" height="4"/>
    </g>
</svg>
