<svg version="1" xmlns="http://www.w3.org/2000/svg" viewBox="0 0 48 48" enable-background="new 0 0 48 48">
    <path fill="#FFC107" d="M44,36H30V16c0-1.1,0.9-2,2-2h8c0.6,0,1.2,0.3,1.6,0.8l6,7.7c0.3,0.4,0.4,0.8,0.4,1.2V32 C48,34.2,46.2,36,44,36z"/>
    <g fill="#9575CD">
        <path d="M8,36h22V13c0-2.2-1.8-4-4-4H4v23C4,34.2,5.8,36,8,36z"/>
        <rect y="9" width="10" height="2"/>
        <rect y="14" width="10" height="2"/>
        <rect y="19" width="10" height="2"/>
        <rect y="24" width="10" height="2"/>
    </g>
    <g fill="#7E57C2">
        <rect x="4" y="11" width="16" height="2"/>
        <rect x="4" y="16" width="12" height="2"/>
        <rect x="4" y="21" width="8" height="2"/>
        <rect x="4" y="26" width="4" height="2"/>
    </g>
    <g fill="#37474F">
        <circle cx="39" cy="36" r="5"/>
        <circle cx="16" cy="36" r="5"/>
    </g>
    <g fill="#78909C">
        <circle cx="39" cy="36" r="2.5"/>
        <circle cx="16" cy="36" r="2.5"/>
    </g>
    <path fill="#455A64" d="M44,26h-3.6c-0.3,0-0.5-0.1-0.7-0.3l-1.4-1.4c-0.2-0.2-0.4-0.3-0.7-0.3H34c-0.6,0-1-0.4-1-1v-6 c0-0.6,0.4-1,1-1h5.5c0.3,0,0.6,0.1,0.8,0.4l4.5,5.4c0.1,0.2,0.2,0.4,0.2,0.6V25C45,25.6,44.6,26,44,26z"/>
</svg>
