<svg version="1" xmlns="http://www.w3.org/2000/svg" viewBox="0 0 48 48" enable-background="new 0 0 48 48">
    <g fill="#3F51B5">
        <circle cx="8" cy="38" r="3"/>
        <circle cx="16" cy="40" r="3"/>
        <circle cx="24" cy="33" r="3"/>
        <circle cx="32" cy="35" r="3"/>
        <circle cx="40" cy="31" r="3"/>
        <polygon points="39.1,29.2 31.8,32.9 23.5,30.8 15.5,37.8 8.5,36.1 7.5,39.9 16.5,42.2 24.5,35.2 32.2,37.1 40.9,32.8"/>
    </g>
    <g fill="#00BCD4">
        <circle cx="8" cy="20" r="3"/>
        <circle cx="16" cy="22" r="3"/>
        <circle cx="24" cy="15" r="3"/>
        <circle cx="32" cy="20" r="3"/>
        <circle cx="40" cy="8" r="3"/>
        <path d="M38.3,6.9c-2.1,3.2-5.3,8-6.9,10.4c-1.2-0.7-3.1-2-6.4-4l-1.3-0.8l-8.3,7.3l-7-1.7l-1,3.9l9,2.3l7.7-6.7 c2.6,1.6,5.8,3.6,6.5,4.1l0.5,0.5l0.9-0.1c1.1-0.1,1.1-0.1,9.5-12.9L38.3,6.9z"/>
    </g>
</svg>
