<svg version="1" xmlns="http://www.w3.org/2000/svg" viewBox="0 0 48 48" enable-background="new 0 0 48 48">
    <path fill="#37474F" d="M10,41V7c0-2.2,1.8-4,4-4h20c2.2,0,4,1.8,4,4v34c0,2.2-1.8,4-4,4H14C11.8,45,10,43.2,10,41z"/>
    <path fill="#BBDEFB" d="M34,6H14c-0.6,0-1,0.4-1,1v34c0,0.6,0.4,1,1,1h20c0.6,0,1-0.4,1-1V7C35,6.4,34.6,6,34,6z"/>
    <g fill="#3F51B5">
        <path d="M29,30H19c-0.6,0-1-0.4-1-1v-6c0-0.6,0.4-1,1-1h10c0.6,0,1,0.4,1,1v6C30,29.6,29.6,30,29,30z"/>
        <path d="M24,16c-2.2,0-4,1.8-4,4v3h2v-3c0-1.1,0.9-2,2-2s2,0.9,2,2v3h2v-3C28,17.8,26.2,16,24,16z"/>
    </g>
</svg>
