<svg version="1" xmlns="http://www.w3.org/2000/svg" viewBox="0 0 48 48" enable-background="new 0 0 48 48">
    <path fill="#37474F" d="M7,10h34c2.2,0,4,1.8,4,4v20c0,2.2-1.8,4-4,4H7c-2.2,0-4-1.8-4-4V14C3,11.8,4.8,10,7,10z"/>
    <path fill="#BBDEFB" d="M42,34V14c0-0.6-0.4-1-1-1H7c-0.6,0-1,0.4-1,1v20c0,0.6,0.4,1,1,1h34C41.6,35,42,34.6,42,34z"/>
    <g fill="#3F51B5">
        <path d="M29,31H19c-0.6,0-1-0.4-1-1v-6c0-0.6,0.4-1,1-1h10c0.6,0,1,0.4,1,1v6C30,30.6,29.6,31,29,31z"/>
        <path d="M24,17c-2.2,0-4,1.8-4,4v3h2v-3c0-1.1,0.9-2,2-2s2,0.9,2,2v3h2v-3C28,18.8,26.2,17,24,17z"/>
    </g>
</svg>
