<svg version="1" xmlns="http://www.w3.org/2000/svg" viewBox="0 0 48 48" enable-background="new 0 0 48 48">
    <g fill="#FFCC80">
        <circle cx="38" cy="26" r="4"/>
        <circle cx="10" cy="26" r="4"/>
        <path d="M39,19c0-12.7-30-8.3-30,0c0,1.8,0,8.2,0,10c0,8.3,6.7,15,15,15s15-6.7,15-15C39,27.2,39,20.8,39,19z"/>
        <path d="M24,4C15.2,4,8,11.2,8,20c0,1.2,0,3.5,0,3.5l2.1,0.6V19l19.5-6.3l8.2,6.3v5.1l2.1-0.6c0,0,0-2.3,0-3.5 C40,12.5,34.6,4,24,4z"/>
    </g>
    <polygon fill="#FF5722" points="24,23.5 24,12.5 30.6,18"/>
    <path fill="#FF5722" d="M28.9,24.4c0,0.2,0.1,0.4,0.1,0.6c0,2.8-2.2,5-5,5s-5-2.2-5-5s2.2-5,5-5c0.7,0,1.4,0.2,2,0.4v-4.2 c-0.6-0.1-1.3-0.2-2-0.2c-5,0-9,4-9,9s4,9,9,9s9-4,9-9c0-1.2-0.2-2.4-0.7-3.4L28.9,24.4z"/>
</svg>
