<svg version="1" xmlns="http://www.w3.org/2000/svg" viewBox="0 0 48 48" enable-background="new 0 0 48 48">
    <path fill="#455A64" d="M4,31V8c0-2.2,1.8-4,4-4h12c2.2,0,4,1.8,4,4v23c0,2.2-1.8,4-4,4H8C5.8,35,4,33.2,4,31z"/>
    <path fill="#BBDEFB" d="M20,7H8C7.4,7,7,7.4,7,8v21c0,0.6,0.4,1,1,1h12c0.6,0,1-0.4,1-1V8C21,7.4,20.6,7,20,7z"/>
    <circle fill="#37474F" cx="14" cy="32.5" r="1.5"/>
    <path fill="#546E7A" d="M14,36V13c0-2.2,1.8-4,4-4h12c2.2,0,4,1.8,4,4v23c0,2.2-1.8,4-4,4H18C15.8,40,14,38.2,14,36z"/>
    <path fill="#BBDEFB" d="M30,12H18c-0.6,0-1,0.4-1,1v21c0,0.6,0.4,1,1,1h12c0.6,0,1-0.4,1-1V13C31,12.4,30.6,12,30,12z"/>
    <circle fill="#37474F" cx="24" cy="37.5" r="1.5"/>
    <path fill="#E38939" d="M24,40V18c0-2.2,1.8-4,4-4h12c2.2,0,4,1.8,4,4v22c0,2.2-1.8,4-4,4H28C25.8,44,24,42.2,24,40z"/>
    <path fill="#FFF3E0" d="M40,17H28c-0.6,0-1,0.4-1,1v20c0,0.6,0.4,1,1,1h12c0.6,0,1-0.4,1-1V18C41,17.4,40.6,17,40,17z"/>
    <circle fill="#A6642A" cx="34" cy="41.5" r="1.5"/>
</svg>
