<svg version="1" xmlns="http://www.w3.org/2000/svg" viewBox="0 0 48 48" enable-background="new 0 0 48 48">
    <path fill="#546E7A" d="M14,13H8v-1.8C8,10.5,8.5,10,9.2,10h3.6c0.7,0,1.2,0.5,1.2,1.2V13z"/>
    <path fill="#5E35B1" d="M40,40H8c-2.2,0-4-1.8-4-4V22h40v14C44,38.2,42.2,40,40,40z"/>
    <path fill="#42257A" d="M12.7,22c-0.4,1.3-0.7,2.6-0.7,4c0,6.6,5.4,12,12,12s12-5.4,12-12c0-1.4-0.3-2.7-0.7-4H12.7z"/>
    <path fill="#78909C" d="M8,12h32c2.2,0,4,1.8,4,4v6H4v-6C4,13.8,5.8,12,8,12z"/>
    <path fill="#78909C" d="M33.9,13.1H14.2L17.6,8c0.4-0.6,1-0.9,1.7-0.9h9.6c0.7,0,1.3,0.3,1.7,0.9L33.9,13.1z"/>
    <path fill="#455A64" d="M35.3,22c-1.6-4.7-6.1-8-11.3-8s-9.7,3.3-11.3,8H35.3z"/>
    <circle fill="#B388FF" cx="24" cy="26" r="9"/>
    <path fill="#C7A7FF" d="M29,23c-1.2-1.4-3-2.2-4.8-2.2c-1.8,0-3.6,0.8-4.8,2.2c-0.5,0.5-0.4,1.3,0.1,1.8c0.5,0.5,1.3,0.4,1.8-0.1 c1.5-1.7,4.3-1.7,5.8,0c0.3,0.3,0.6,0.4,1,0.4c0.3,0,0.6-0.1,0.9-0.3C29.4,24.4,29.5,23.5,29,23z"/>
    <rect x="36" y="15" fill="#DBE2E5" width="5" height="4"/>
</svg>
