<svg version="1" xmlns="http://www.w3.org/2000/svg" viewBox="0 0 48 48" enable-background="new 0 0 48 48">
    <path fill="#90CAF9" d="M42,42H6V10c0-2.2,1.8-4,4-4h28c2.2,0,4,1.8,4,4V42z"/>
    <rect x="6" y="42" fill="#64B5F6" width="36" height="2"/>
    <g fill="#1565C0">
        <rect x="31" y="27" width="6" height="5"/>
        <rect x="21" y="27" width="6" height="5"/>
        <rect x="11" y="27" width="6" height="5"/>
        <rect x="31" y="35" width="6" height="5"/>
        <rect x="11" y="35" width="6" height="5"/>
        <rect x="31" y="19" width="6" height="5"/>
        <rect x="21" y="19" width="6" height="5"/>
        <rect x="11" y="19" width="6" height="5"/>
        <rect x="31" y="11" width="6" height="5"/>
        <rect x="21" y="11" width="6" height="5"/>
        <rect x="11" y="11" width="6" height="5"/>
        <rect x="21" y="35" width="6" height="9"/>
    </g>
</svg>
