<svg version="1" xmlns="http://www.w3.org/2000/svg" viewBox="0 0 48 48" enable-background="new 0 0 48 48">
    <path fill="#F57C00" d="M4,9v32c0,0,8.4-3,20-3s20,3,20,3V9c0,0-6.7,3-20,3S4,9,4,9z"/>
    <path fill="#942A09" d="M24,34c0.1,0,0.3,0,0.4,0L15,19L6.9,36.2C10.3,35.3,16.5,34,24,34z"/>
    <path fill="#BF360C" d="M24,34c3.3,0,6.3,0.2,9,0.6l-8-11.8l-7.8,11.5C19.3,34.1,21.6,34,24,34z"/>
    <path fill="#E65100" d="M40.7,36L35,26.5l-5,7.8C34.5,34.7,38.2,35.4,40.7,36z"/>
    <ellipse fill="#FFF9C4" cx="36" cy="19.5" rx="2" ry="2.5"/>
</svg>
