<svg version="1" xmlns="http://www.w3.org/2000/svg" viewBox="0 0 48 48" enable-background="new 0 0 48 48">
    <g fill="#9C27B0">
        <polygon points="31,8 42.9,9.6 33.1,19.4"/>
        <polygon points="17,40 5.1,38.4 14.9,28.6"/>
        <polygon points="8,17 9.6,5.1 19.4,14.9"/>
        <path d="M9.3,21.2L5.1,22C5,22.7,5,23.3,5,24c0,4.6,1.6,9,4.6,12.4l3-2.6C10.3,31.1,9,27.6,9,24 C9,23.1,9.1,22.1,9.3,21.2z"/>
        <path d="M24,5c-5.4,0-10.2,2.3-13.7,5.9l2.8,2.8C15.9,10.8,19.7,9,24,9c0.9,0,1.9,0.1,2.8,0.3l0.7-3.9 C26.4,5.1,25.2,5,24,5z"/>
        <path d="M38.7,26.8l4.2-0.8c0.1-0.7,0.1-1.3,0.1-2c0-4.4-1.5-8.7-4.3-12.1l-3.1,2.5c2.2,2.7,3.4,6.1,3.4,9.5 C39,24.9,38.9,25.9,38.7,26.8z"/>
        <path d="M34.9,34.3C32.1,37.2,28.3,39,24,39c-0.9,0-1.9-0.1-2.8-0.3l-0.7,3.9c1.2,0.2,2.4,0.3,3.5,0.3 c5.4,0,10.2-2.3,13.7-5.9L34.9,34.3z"/>
        <polygon points="40,31 38.4,42.9 28.6,33.1"/>
    </g>
</svg>
