<svg version="1" xmlns="http://www.w3.org/2000/svg" viewBox="0 0 48 48" enable-background="new 0 0 48 48">
    <path fill="#2196F3" d="M33.5,27c-2.2-3-5.2-5-9.5-5s-7.3,2-9.5,5H33.5z"/>
    <path fill="#546E7A" d="M34.1,43H13.9c-1.1,0-1.9-0.8-2-1.9l-0.8-13C11.1,27,12,26,13.1,26h21.8c1.2,0,2.1,1,2,2.1l-0.8,13 C36,42.2,35.2,43,34.1,43z"/>
    <circle fill="#B0BEC5" cx="34" cy="29" r="1"/>
    <g fill="#FFB74D">
        <circle cx="24" cy="12" r="8"/>
        <path d="M16.1,42.4L15,43.5c-0.6,0.6-1.6,0.6-2.2,0l-3.3-3.3c-0.6-0.6-0.6-1.6,0-2.2l1.1-1.1c1.3-1.3,3.1-1.3,4.4,0 l1.1,1.1C17.3,39.3,17.3,41.2,16.1,42.4z"/>
        <path d="M31.9,38l1.1-1.1c1.3-1.3,3.1-1.3,4.4,0l1.1,1.1c0.6,0.6,0.6,1.6,0,2.2l-3.3,3.3c-0.6,0.6-1.6,0.6-2.2,0 l-1.1-1.1C30.7,41.2,30.7,39.3,31.9,38z"/>
    </g>
</svg>
