<svg version="1" xmlns="http://www.w3.org/2000/svg" viewBox="0 0 48 48" enable-background="new 0 0 48 48">
    <path fill="#5C6BC0" d="M40,40c-6.9,0-16,4-16,4V22c0,0,9-4,18-4L40,40z"/>
    <path fill="#7986CB" d="M8,40c6.9,0,16,4,16,4V22c0,0-9-4-18-4L8,40z"/>
    <g fill="#FFB74D">
        <circle cx="24" cy="12" r="8"/>
        <path d="M41,32h1c0.6,0,1-0.4,1-1v-4c0-0.6-0.4-1-1-1h-1c-1.7,0-3,1.3-3,3v0C38,30.7,39.3,32,41,32z"/>
        <path d="M7,26H6c-0.6,0-1,0.4-1,1v4c0,0.6,0.4,1,1,1h1c1.7,0,3-1.3,3-3v0C10,27.3,8.7,26,7,26z"/>
    </g>
</svg>
