<svg version="1" xmlns="http://www.w3.org/2000/svg" viewBox="0 0 48 48" enable-background="new 0 0 48 48">
    <g fill="#1565C0">
        <path d="M13,13c0-3.3,2.7-6,6-6h10c3.3,0,6,2.7,6,6h4c0-5.5-4.5-10-10-10H19C13.5,3,9,7.5,9,13v11.2h4V13z"/>
        <polygon points="4.6,22 11,30.4 17.4,22"/>
    </g>
    <g fill="#1565C0">
        <path d="M35,35c0,3.3-2.7,6-6,6H19c-3.3,0-6-2.7-6-6H9c0,5.5,4.5,10,10,10h10c5.5,0,10-4.5,10-10V23h-4V35z"/>
        <polygon points="30.6,26 37,17.6 43.4,26"/>
    </g>
</svg>
