<svg version="1" xmlns="http://www.w3.org/2000/svg" viewBox="0 0 48 48" enable-background="new 0 0 48 48">
    <circle fill="#9C27B0" cx="24" cy="24" r="21"/>
    <path fill="#E1BEE7" d="M25,26.8h-4.5v9h-4V12.5h8.2c1.3,0,2.5,0.2,3.6,0.5c1,0.3,1.9,0.8,2.6,1.3c0.7,0.6,1.3,1.3,1.6,2.2 s0.6,1.9,0.6,3c0,1.6-0.4,2.9-1.1,3.9c-0.8,1-1.8,1.9-3.1,2.4l5.2,9.7v0.2h-4.3L25,26.8z M20.5,23.6h4.2c0.7,0,1.4-0.1,1.9-0.3 c0.5-0.2,1-0.5,1.4-0.8c0.4-0.3,0.6-0.7,0.8-1.2c0.2-0.5,0.3-1,0.3-1.6c0-0.6-0.1-1.1-0.3-1.6c-0.2-0.5-0.4-0.9-0.8-1.2 c-0.4-0.3-0.8-0.6-1.4-0.8c-0.5-0.2-1.2-0.3-2-0.3h-4.1V23.6z"/>
</svg>
