<svg version="1" xmlns="http://www.w3.org/2000/svg" viewBox="0 0 48 48" enable-background="new 0 0 48 48">
    <rect x="16.7" y="1.6" transform="matrix(-.707 -.707 .707 -.707 24 57.941)" fill="#FFA000" width="14.6" height="44.8"/>
    <g fill="#9E6400">
        <rect x="17.9" y="20.2" transform="matrix(-.707 -.707 .707 -.707 21.177 51.125)" width="6.6" height="2"/>
        <rect x="22.3" y="15.2" transform="matrix(-.707 -.707 .707 -.707 29.833 44.71)" width="3.7" height="2"/>
        <rect x="25.9" y="12.2" transform="matrix(-.707 -.707 .707 -.707 40.49 43.125)" width="6.6" height="2"/>
        <rect x="31.2" y="6.3" transform="matrix(.707 -.707 .707 .707 3.643 25.147)" width="2" height="3.7"/>
        <rect x="6.3" y="31.2" transform="matrix(-.707 -.707 .707 -.707 -8.794 60.71)" width="3.7" height="2"/>
        <rect x="9.9" y="28.2" transform="matrix(-.707 -.707 .707 -.707 1.863 59.125)" width="6.6" height="2"/>
        <rect x="14.3" y="23.2" transform="matrix(-.707 -.707 .707 -.707 10.52 52.71)" width="3.7" height="2"/>
    </g>
</svg>
