<svg version="1" xmlns="http://www.w3.org/2000/svg" viewBox="0 0 48 48" enable-background="new 0 0 48 48">
    <rect x="8" y="39" fill="#455A64" width="6" height="3"/>
    <rect x="34" y="39" fill="#455A64" width="6" height="3"/>
    <path fill="#78909C" d="M40,41H8c-2.2,0-4-1.8-4-4V11c0-2.2,1.8-4,4-4h32c2.2,0,4,1.8,4,4v26C44,39.2,42.2,41,40,41z"/>
    <path fill="#90A4AE" d="M40,38H8c-0.6,0-1-0.4-1-1V11c0-0.6,0.4-1,1-1h32c0.6,0,1,0.4,1,1v26C41,37.6,40.6,38,40,38z"/>
    <path fill="#37474F" d="M29,14c-5.5,0-10,4.5-10,10c0,5.5,4.5,10,10,10s10-4.5,10-10C39,18.5,34.5,14,29,14z M29,31 c-3.9,0-7-3.1-7-7c0-3.9,3.1-7,7-7s7,3.1,7,7C36,27.9,32.9,31,29,31z"/>
    <g fill="#B0BEC5">
        <path d="M35.3,19.1l0.4-0.4c0.4-0.4,0.4-1,0-1.4s-1-0.4-1.4,0l-0.4,0.4C34.4,18.1,34.9,18.6,35.3,19.1z"/>
        <path d="M22.7,19.1c0.4-0.5,0.9-1,1.4-1.4l-0.4-0.4c-0.4-0.4-1-0.4-1.4,0s-0.4,1,0,1.4L22.7,19.1z"/>
        <path d="M21,24c0-0.3,0-0.7,0.1-1h-0.6c-0.6,0-1,0.4-1,1s0.4,1,1,1h0.6C21,24.7,21,24.3,21,24z"/>
        <path d="M29,16c0.3,0,0.7,0,1,0.1v-0.6c0-0.6-0.4-1-1-1s-1,0.4-1,1v0.6C28.3,16,28.7,16,29,16z"/>
        <path d="M35.3,28.9c-0.4,0.5-0.9,1-1.4,1.4l0.4,0.4c0.2,0.2,0.5,0.3,0.7,0.3s0.5-0.1,0.7-0.3c0.4-0.4,0.4-1,0-1.4 L35.3,28.9z"/>
        <path d="M22.7,28.9l-0.4,0.4c-0.4,0.4-0.4,1,0,1.4c0.2,0.2,0.5,0.3,0.7,0.3s0.5-0.1,0.7-0.3l0.4-0.4 C23.6,29.9,23.1,29.4,22.7,28.9z"/>
        <path d="M37.5,23h-0.6c0,0.3,0.1,0.7,0.1,1s0,0.7-0.1,1h0.6c0.6,0,1-0.4,1-1S38.1,23,37.5,23z"/>
        <path d="M29,32c-0.3,0-0.7,0-1-0.1v0.6c0,0.6,0.4,1,1,1s1-0.4,1-1v-0.6C29.7,32,29.3,32,29,32z"/>
    </g>
    <path fill="#455A64" d="M12,20c-1.1,0-2,0.9-2,2v8c0,1.1,0.9,2,2,2s2-0.9,2-2v-8C14,20.9,13.1,20,12,20z"/>
    <path fill="#CFD8DC" d="M12,18c-1.1,0-2,0.9-2,2v8c0,1.1,0.9,2,2,2s2-0.9,2-2v-8C14,18.9,13.1,18,12,18z"/>
</svg>
