<svg version="1" xmlns="http://www.w3.org/2000/svg" viewBox="0 0 48 48" enable-background="new 0 0 48 48">
    <g fill="#FFA000">
        <path d="M38,13c-3.3,0-6-0.9-6-2c0,0.4,0,1.6,0,2c0,1.1,2.7,2,6,2s6-0.9,6-2c0-0.4,0-1.6,0-2C44,12.1,41.3,13,38,13 z"/>
        <path d="M38,10c-3.3,0-6-0.9-6-2c0,0.4,0,1.6,0,2c0,1.1,2.7,2,6,2s6-0.9,6-2c0-0.4,0-1.6,0-2C44,9.1,41.3,10,38,10z"/>
        <path d="M38,16c-3.3,0-6-0.9-6-2c0,0.4,0,1.6,0,2c0,1.1,2.7,2,6,2s6-0.9,6-2c0-0.4,0-1.6,0-2C44,15.1,41.3,16,38,16 z"/>
        <path d="M38,19c-3.3,0-6-0.9-6-2c0,0.4,0,1.6,0,2c0,1.1,2.7,2,6,2s6-0.9,6-2c0-0.4,0-1.6,0-2C44,18.1,41.3,19,38,19 z"/>
        <path d="M38,22c-3.3,0-6-0.9-6-2c0,0.4,0,1.6,0,2c0,1.1,2.7,2,6,2s6-0.9,6-2c0-0.4,0-1.6,0-2C44,21.1,41.3,22,38,22 z"/>
        <path d="M38,25c-3.3,0-6-0.9-6-2c0,0.4,0,1.6,0,2c0,1.1,2.7,2,6,2s6-0.9,6-2c0-0.4,0-1.6,0-2C44,24.1,41.3,25,38,25 z"/>
        <path d="M38,28c-3.3,0-6-0.9-6-2c0,0.4,0,1.6,0,2c0,1.1,2.7,2,6,2s6-0.9,6-2c0-0.4,0-1.6,0-2C44,27.1,41.3,28,38,28 z"/>
        <path d="M38,31c-3.3,0-6-0.9-6-2c0,0.4,0,1.6,0,2c0,1.1,2.7,2,6,2s6-0.9,6-2c0-0.4,0-1.6,0-2C44,30.1,41.3,31,38,31 z"/>
        <path d="M38,34c-3.3,0-6-0.9-6-2c0,0.4,0,1.6,0,2c0,1.1,2.7,2,6,2s6-0.9,6-2c0-0.4,0-1.6,0-2C44,33.1,41.3,34,38,34 z"/>
        <path d="M38,37c-3.3,0-6-0.9-6-2c0,0.4,0,1.6,0,2c0,1.1,2.7,2,6,2s6-0.9,6-2c0-0.4,0-1.6,0-2C44,36.1,41.3,37,38,37 z"/>
        <path d="M38,40c-3.3,0-6-0.9-6-2c0,0.4,0,1.6,0,2c0,1.1,2.7,2,6,2s6-0.9,6-2c0-0.4,0-1.6,0-2C44,39.1,41.3,40,38,40 z"/>
    </g>
    <g fill="#FFC107">
        <ellipse cx="38" cy="8" rx="6" ry="2"/>
        <path d="M38,12c-2.8,0-5.1-0.6-5.8-1.5C32.1,10.7,32,10.8,32,11c0,1.1,2.7,2,6,2s6-0.9,6-2c0-0.2-0.1-0.3-0.2-0.5 C43.1,11.4,40.8,12,38,12z"/>
        <path d="M38,15c-2.8,0-5.1-0.6-5.8-1.5C32.1,13.7,32,13.8,32,14c0,1.1,2.7,2,6,2s6-0.9,6-2c0-0.2-0.1-0.3-0.2-0.5 C43.1,14.4,40.8,15,38,15z"/>
        <path d="M38,18c-2.8,0-5.1-0.6-5.8-1.5C32.1,16.7,32,16.8,32,17c0,1.1,2.7,2,6,2s6-0.9,6-2c0-0.2-0.1-0.3-0.2-0.5 C43.1,17.4,40.8,18,38,18z"/>
        <path d="M38,21c-2.8,0-5.1-0.6-5.8-1.5C32.1,19.7,32,19.8,32,20c0,1.1,2.7,2,6,2s6-0.9,6-2c0-0.2-0.1-0.3-0.2-0.5 C43.1,20.4,40.8,21,38,21z"/>
        <path d="M38,24c-2.8,0-5.1-0.6-5.8-1.5C32.1,22.7,32,22.8,32,23c0,1.1,2.7,2,6,2s6-0.9,6-2c0-0.2-0.1-0.3-0.2-0.5 C43.1,23.4,40.8,24,38,24z"/>
        <path d="M38,27c-2.8,0-5.1-0.6-5.8-1.5C32.1,25.7,32,25.8,32,26c0,1.1,2.7,2,6,2s6-0.9,6-2c0-0.2-0.1-0.3-0.2-0.5 C43.1,26.4,40.8,27,38,27z"/>
        <path d="M38,30c-2.8,0-5.1-0.6-5.8-1.5C32.1,28.7,32,28.8,32,29c0,1.1,2.7,2,6,2s6-0.9,6-2c0-0.2-0.1-0.3-0.2-0.5 C43.1,29.4,40.8,30,38,30z"/>
        <path d="M38,33c-2.8,0-5.1-0.6-5.8-1.5C32.1,31.7,32,31.8,32,32c0,1.1,2.7,2,6,2s6-0.9,6-2c0-0.2-0.1-0.3-0.2-0.5 C43.1,32.4,40.8,33,38,33z"/>
        <path d="M38,36c-2.8,0-5.1-0.6-5.8-1.5C32.1,34.7,32,34.8,32,35c0,1.1,2.7,2,6,2s6-0.9,6-2c0-0.2-0.1-0.3-0.2-0.5 C43.1,35.4,40.8,36,38,36z"/>
        <path d="M38,39c-2.8,0-5.1-0.6-5.8-1.5C32.1,37.7,32,37.8,32,38c0,1.1,2.7,2,6,2s6-0.9,6-2c0-0.2-0.1-0.3-0.2-0.5 C43.1,38.4,40.8,39,38,39z"/>
    </g>
    <g fill="#FFA000">
        <path d="M10,19c-3.3,0-6-0.9-6-2c0,0.4,0,1.6,0,2c0,1.1,2.7,2,6,2s6-0.9,6-2c0-0.4,0-1.6,0-2C16,18.1,13.3,19,10,19 z"/>
        <path d="M10,16c-3.3,0-6-0.9-6-2c0,0.4,0,1.6,0,2c0,1.1,2.7,2,6,2s6-0.9,6-2c0-0.4,0-1.6,0-2C16,15.1,13.3,16,10,16 z"/>
        <path d="M10,22c-3.3,0-6-0.9-6-2c0,0.4,0,1.6,0,2c0,1.1,2.7,2,6,2s6-0.9,6-2c0-0.4,0-1.6,0-2C16,21.1,13.3,22,10,22 z"/>
        <path d="M10,25c-3.3,0-6-0.9-6-2c0,0.4,0,1.6,0,2c0,1.1,2.7,2,6,2s6-0.9,6-2c0-0.4,0-1.6,0-2C16,24.1,13.3,25,10,25 z"/>
        <path d="M10,28c-3.3,0-6-0.9-6-2c0,0.4,0,1.6,0,2c0,1.1,2.7,2,6,2s6-0.9,6-2c0-0.4,0-1.6,0-2C16,27.1,13.3,28,10,28 z"/>
        <path d="M10,31c-3.3,0-6-0.9-6-2c0,0.4,0,1.6,0,2c0,1.1,2.7,2,6,2s6-0.9,6-2c0-0.4,0-1.6,0-2C16,30.1,13.3,31,10,31 z"/>
        <path d="M10,34c-3.3,0-6-0.9-6-2c0,0.4,0,1.6,0,2c0,1.1,2.7,2,6,2s6-0.9,6-2c0-0.4,0-1.6,0-2C16,33.1,13.3,34,10,34 z"/>
        <path d="M10,37c-3.3,0-6-0.9-6-2c0,0.4,0,1.6,0,2c0,1.1,2.7,2,6,2s6-0.9,6-2c0-0.4,0-1.6,0-2C16,36.1,13.3,37,10,37 z"/>
        <path d="M10,40c-3.3,0-6-0.9-6-2c0,0.4,0,1.6,0,2c0,1.1,2.7,2,6,2s6-0.9,6-2c0-0.4,0-1.6,0-2C16,39.1,13.3,40,10,40 z"/>
    </g>
    <g fill="#FFC107">
        <ellipse cx="10" cy="14" rx="6" ry="2"/>
        <path d="M10,18c-2.8,0-5.1-0.6-5.8-1.5C4.1,16.7,4,16.8,4,17c0,1.1,2.7,2,6,2s6-0.9,6-2c0-0.2-0.1-0.3-0.2-0.5 C15.1,17.4,12.8,18,10,18z"/>
        <path d="M10,21c-2.8,0-5.1-0.6-5.8-1.5C4.1,19.7,4,19.8,4,20c0,1.1,2.7,2,6,2s6-0.9,6-2c0-0.2-0.1-0.3-0.2-0.5 C15.1,20.4,12.8,21,10,21z"/>
        <path d="M10,24c-2.8,0-5.1-0.6-5.8-1.5C4.1,22.7,4,22.8,4,23c0,1.1,2.7,2,6,2s6-0.9,6-2c0-0.2-0.1-0.3-0.2-0.5 C15.1,23.4,12.8,24,10,24z"/>
        <path d="M10,27c-2.8,0-5.1-0.6-5.8-1.5C4.1,25.7,4,25.8,4,26c0,1.1,2.7,2,6,2s6-0.9,6-2c0-0.2-0.1-0.3-0.2-0.5 C15.1,26.4,12.8,27,10,27z"/>
        <path d="M10,30c-2.8,0-5.1-0.6-5.8-1.5C4.1,28.7,4,28.8,4,29c0,1.1,2.7,2,6,2s6-0.9,6-2c0-0.2-0.1-0.3-0.2-0.5 C15.1,29.4,12.8,30,10,30z"/>
        <path d="M10,33c-2.8,0-5.1-0.6-5.8-1.5C4.1,31.7,4,31.8,4,32c0,1.1,2.7,2,6,2s6-0.9,6-2c0-0.2-0.1-0.3-0.2-0.5 C15.1,32.4,12.8,33,10,33z"/>
        <path d="M10,36c-2.8,0-5.1-0.6-5.8-1.5C4.1,34.7,4,34.8,4,35c0,1.1,2.7,2,6,2s6-0.9,6-2c0-0.2-0.1-0.3-0.2-0.5 C15.1,35.4,12.8,36,10,36z"/>
        <path d="M10,39c-2.8,0-5.1-0.6-5.8-1.5C4.1,37.7,4,37.8,4,38c0,1.1,2.7,2,6,2s6-0.9,6-2c0-0.2-0.1-0.3-0.2-0.5 C15.1,38.4,12.8,39,10,39z"/>
    </g>
    <g fill="#FFA000">
        <path d="M24,28c-3.3,0-6-0.9-6-2c0,0.4,0,1.6,0,2c0,1.1,2.7,2,6,2s6-0.9,6-2c0-0.4,0-1.6,0-2C30,27.1,27.3,28,24,28 z"/>
        <path d="M24,25c-3.3,0-6-0.9-6-2c0,0.4,0,1.6,0,2c0,1.1,2.7,2,6,2s6-0.9,6-2c0-0.4,0-1.6,0-2C30,24.1,27.3,25,24,25 z"/>
        <path d="M24,31c-3.3,0-6-0.9-6-2c0,0.4,0,1.6,0,2c0,1.1,2.7,2,6,2s6-0.9,6-2c0-0.4,0-1.6,0-2C30,30.1,27.3,31,24,31 z"/>
        <path d="M24,34c-3.3,0-6-0.9-6-2c0,0.4,0,1.6,0,2c0,1.1,2.7,2,6,2s6-0.9,6-2c0-0.4,0-1.6,0-2C30,33.1,27.3,34,24,34 z"/>
        <path d="M24,37c-3.3,0-6-0.9-6-2c0,0.4,0,1.6,0,2c0,1.1,2.7,2,6,2s6-0.9,6-2c0-0.4,0-1.6,0-2C30,36.1,27.3,37,24,37 z"/>
        <path d="M24,40c-3.3,0-6-0.9-6-2c0,0.4,0,1.6,0,2c0,1.1,2.7,2,6,2s6-0.9,6-2c0-0.4,0-1.6,0-2C30,39.1,27.3,40,24,40 z"/>
    </g>
    <g fill="#FFC107">
        <ellipse cx="24" cy="23" rx="6" ry="2"/>
        <path d="M24,27c-2.8,0-5.1-0.6-5.8-1.5C18.1,25.7,18,25.8,18,26c0,1.1,2.7,2,6,2s6-0.9,6-2c0-0.2-0.1-0.3-0.2-0.5 C29.1,26.4,26.8,27,24,27z"/>
        <path d="M24,30c-2.8,0-5.1-0.6-5.8-1.5C18.1,28.7,18,28.8,18,29c0,1.1,2.7,2,6,2s6-0.9,6-2c0-0.2-0.1-0.3-0.2-0.5 C29.1,29.4,26.8,30,24,30z"/>
        <path d="M24,33c-2.8,0-5.1-0.6-5.8-1.5C18.1,31.7,18,31.8,18,32c0,1.1,2.7,2,6,2s6-0.9,6-2c0-0.2-0.1-0.3-0.2-0.5 C29.1,32.4,26.8,33,24,33z"/>
        <path d="M24,36c-2.8,0-5.1-0.6-5.8-1.5C18.1,34.7,18,34.8,18,35c0,1.1,2.7,2,6,2s6-0.9,6-2c0-0.2-0.1-0.3-0.2-0.5 C29.1,35.4,26.8,36,24,36z"/>
        <path d="M24,39c-2.8,0-5.1-0.6-5.8-1.5C18.1,37.7,18,37.8,18,38c0,1.1,2.7,2,6,2s6-0.9,6-2c0-0.2-0.1-0.3-0.2-0.5 C29.1,38.4,26.8,39,24,39z"/>
    </g>
</svg>
