<svg version="1" xmlns="http://www.w3.org/2000/svg" viewBox="0 0 48 48" enable-background="new 0 0 48 48">
    <circle fill="#9C27B0" cx="24" cy="24" r="21"/>
    <g fill="#E1BEE7">
        <path d="M16.7,28.2c0-3.8-7.3-2.2-7.3-8.1c0-0.7,0.4-4.8,5.5-4.8c5.1,0,5.4,4.5,5.4,5.3h-3.5c0-0.4,0-2.5-2-2.5 c-1.8,0-1.9,1.7-1.9,2c0,3,7.4,2,7.4,8.1c0,2-1.1,4.8-5.3,4.8C10.3,33,9,29.6,9,27.3h3.5c0,0.5-0.2,2.8,2.5,2.8 C16.8,30.2,16.7,28.5,16.7,28.2z"/>
        <path d="M27.1,15.6L30.3,28l3.2-12.4h4.5v17.2h-3.5v-4.6l0.3-7.2l-3.4,11.8h-2.4l-3.4-11.8l0.3,7.2v4.6h-3.5V15.6 H27.1z"/>
    </g>
</svg>
