<svg version="1" xmlns="http://www.w3.org/2000/svg" viewBox="0 0 48 48" enable-background="new 0 0 48 48">
    <path fill="#607D8B" d="M44.7,11L36,19.6c0,0-2.6,0-5.2-2.6s-2.6-5.2-2.6-5.2l8.7-8.7c-4.9-1.2-10.8,0.4-14.4,4 c-5.4,5.4-0.6,12.3-2,13.7C12.9,28.7,5.1,34.7,4.9,35c-2.3,2.3-2.4,6-0.2,8.2c2.2,2.2,5.9,2.1,8.2-0.2c0.3-0.3,6.7-8.4,14.2-15.9 c1.4-1.4,8,3.7,13.6-1.8C44.2,21.7,45.9,15.9,44.7,11z M9.4,41.1c-1.4,0-2.5-1.1-2.5-2.5C6.9,37.1,8,36,9.4,36 c1.4,0,2.5,1.1,2.5,2.5C11.9,39.9,10.8,41.1,9.4,41.1z"/>
</svg>
