<svg version="1" xmlns="http://www.w3.org/2000/svg" viewBox="0 0 48 48" enable-background="new 0 0 48 48">
    <g fill="#5E35B1">
        <path d="M33.9,12.1H14.2L17.6,7c0.4-0.6,1-0.9,1.7-0.9h9.6c0.7,0,1.3,0.3,1.7,0.9L33.9,12.1z"/>
        <path d="M14,11H8V9.2C8,8.5,8.5,8,9.2,8h3.6C13.5,8,14,8.5,14,9.2V11z"/>
        <path d="M40,42H8c-2.2,0-4-1.8-4-4V14c0-2.2,1.8-4,4-4h32c2.2,0,4,1.8,4,4v24C44,40.2,42.2,42,40,42z"/>
    </g>
    <path fill="#E8EAF6" d="M34,25c0-5.5-4.5-10-10-10c-2.4,0-4.6,0.8-6.3,2.2l1.2,1.6c1.4-1.1,3.1-1.8,5.1-1.8c4.4,0,8,3.6,8,8h-3.5 l4.5,5.6l4.5-5.6H34z"/>
    <path fill="#E8EAF6" d="M29.1,31.2C27.7,32.3,25.9,33,24,33c-4.4,0-8-3.6-8-8h3.5L15,19.4L10.5,25H14c0,5.5,4.5,10,10,10 c2.4,0,4.6-0.8,6.3-2.2L29.1,31.2z"/>
</svg>
