<svg version="1" xmlns="http://www.w3.org/2000/svg" viewBox="0 0 48 48" enable-background="new 0 0 48 48">
    <path fill="#455A64" d="M36.5,44H11.5c-1.1,0-1.8-1.2-1.3-2.2L13,37h22l2.7,4.8C38.3,42.8,37.6,44,36.5,44z"/>
    <circle fill="#78909C" cx="24" cy="23" r="18"/>
    <path fill="#455A64" d="M24,35c-6.6,0-12-5.4-12-12c0-6.6,5.4-12,12-12s12,5.4,12,12C36,29.6,30.6,35,24,35z"/>
    <circle fill="#42A5F5" cx="24" cy="23" r="9"/>
    <path fill="#90CAF9" d="M28.8,20c-1.2-1.4-3-2.2-4.8-2.2s-3.6,0.8-4.8,2.2c-0.5,0.5-0.4,1.3,0.1,1.8c0.5,0.5,1.3,0.4,1.8-0.1 c1.5-1.7,4.3-1.7,5.8,0c0.3,0.3,0.6,0.4,1,0.4c0.3,0,0.6-0.1,0.9-0.3C29.2,21.4,29.3,20.5,28.8,20z"/>
</svg>
