<?xml version="1.0" encoding="UTF-8" standalone="no"?>
<!DOCTYPE svg PUBLIC "-//W3C//DTD SVG 1.1//EN"
 "http://www.w3.org/Graphics/SVG/1.1/DTD/svg11.dtd">
<!-- Generated by graphviz version 2.40.1 (20161225.0304)
 -->
<!-- Title: %3 Pages: 1 -->
<svg width="721pt" height="485pt"
 viewBox="0.00 0.00 721.00 484.74" xmlns="http://www.w3.org/2000/svg" xmlns:xlink="http://www.w3.org/1999/xlink">
<g id="graph0" class="graph" transform="scale(1 1) rotate(0) translate(4 480.7351)">
<title>%3</title>
<polygon fill="#ffffff" stroke="transparent" points="-4,4 -4,-480.7351 717,-480.7351 717,4 -4,4"/>
<g id="clust1" class="cluster">
<title>cluster_0</title>
<polygon fill="none" stroke="#000000" points="126,-379.8234 126,-468.7351 705,-468.7351 705,-379.8234 126,-379.8234"/>
<text text-anchor="middle" x="415.5" y="-453.5351" font-family="Times,serif" font-size="14.00" fill="#000000">Collection of Files or Input Streams</text>
</g>
<g id="clust2" class="cluster">
<title>cluster_2</title>
<polygon fill="none" stroke="#000000" points="77,-268.9117 77,-371.8234 269,-371.8234 269,-268.9117 77,-268.9117"/>
<text text-anchor="middle" x="173" y="-356.6234" font-family="Times,serif" font-size="14.00" fill="#000000">DataVec</text>
<text text-anchor="middle" x="173" y="-342.6234" font-family="Times,serif" font-size="14.00" fill="#000000">Transform Process</text>
</g>
<g id="clust3" class="cluster">
<title>cluster_3</title>
<polygon fill="none" stroke="#000000" points="395,-268.9117 395,-357.8234 693,-357.8234 693,-268.9117 395,-268.9117"/>
<text text-anchor="middle" x="544" y="-342.6234" font-family="Times,serif" font-size="14.00" fill="#000000">Label Generators</text>
</g>
<g id="clust4" class="cluster">
<title>cluster_4</title>
<polygon fill="none" stroke="#000000" points="69,-172 69,-260.9117 673,-260.9117 673,-172 69,-172"/>
<text text-anchor="middle" x="371" y="-245.7117" font-family="Times,serif" font-size="14.00" fill="#000000">DataVec Record Readers</text>
</g>
<g id="clust5" class="cluster">
<title>cluster_5</title>
<polygon fill="none" stroke="#000000" points="210,-90 210,-164 456,-164 456,-90 210,-90"/>
<text text-anchor="middle" x="333" y="-148.8" font-family="Times,serif" font-size="14.00" fill="#000000">Convert to INDArray</text>
</g>
<g id="clust6" class="cluster">
<title>cluster_6</title>
<polygon fill="none" stroke="#000000" points="8,-8 8,-82 660,-82 660,-8 8,-8"/>
<text text-anchor="middle" x="334" y="-66.8" font-family="Times,serif" font-size="14.00" fill="#000000">ND4J Pre&#45;Processor</text>
</g>
<!-- Data.CSV -->
<g id="node1" class="node">
<title>Data.CSV</title>
<ellipse fill="none" stroke="#000000" cx="180" cy="-413.2792" rx="46.4305" ry="18"/>
<text text-anchor="middle" x="180" y="-409.0792" font-family="Times,serif" font-size="14.00" fill="#000000">Data.CSV</text>
</g>
<!-- DataVec\n Transform Process -->
<g id="node5" class="node">
<title>DataVec\n Transform Process</title>
<ellipse fill="none" stroke="#000000" cx="173" cy="-302.3675" rx="87.5481" ry="25.4118"/>
<text text-anchor="middle" x="173" y="-305.1675" font-family="Times,serif" font-size="14.00" fill="#000000">DataVec</text>
<text text-anchor="middle" x="173" y="-291.1675" font-family="Times,serif" font-size="14.00" fill="#000000"> Transform Process</text>
</g>
<!-- Data.CSV&#45;&gt;DataVec\n Transform Process -->
<g id="edge1" class="edge">
<title>Data.CSV&#45;&gt;DataVec\n Transform Process</title>
<path fill="none" stroke="#000000" d="M178.8441,-394.9644C177.8743,-379.5979 176.46,-357.1901 175.2657,-338.2667"/>
<polygon fill="#000000" stroke="#000000" points="178.7521,-337.9386 174.629,-328.179 171.766,-338.3796 178.7521,-337.9386"/>
</g>
<!-- CSV\nRecordReader -->
<g id="node8" class="node">
<title>CSV\nRecordReader</title>
<ellipse fill="none" stroke="#000000" cx="289" cy="-205.4558" rx="67.8626" ry="25.4118"/>
<text text-anchor="middle" x="289" y="-208.2558" font-family="Times,serif" font-size="14.00" fill="#000000">CSV</text>
<text text-anchor="middle" x="289" y="-194.2558" font-family="Times,serif" font-size="14.00" fill="#000000">RecordReader</text>
</g>
<!-- Data.CSV&#45;&gt;CSV\nRecordReader -->
<g id="edge5" class="edge">
<title>Data.CSV&#45;&gt;CSV\nRecordReader</title>
<path fill="none" stroke="#000000" d="M202.1088,-397.4621C211.8071,-391.1626 223.5693,-384.3492 235,-379.8234 251.0471,-373.4698 261.4957,-384.6891 273,-371.8234 304.6458,-336.4325 302.3758,-278.3214 296.6164,-240.9891"/>
<polygon fill="#000000" stroke="#000000" points="300.0525,-240.3179 294.9247,-231.0467 293.1517,-241.4921 300.0525,-240.3179"/>
</g>
<!-- video.mov -->
<g id="node2" class="node">
<title>video.mov</title>
<ellipse fill="none" stroke="#000000" cx="292" cy="-413.2792" rx="47.8752" ry="18"/>
<text text-anchor="middle" x="292" y="-409.0792" font-family="Times,serif" font-size="14.00" fill="#000000">video.mov</text>
</g>
<!-- Video\nRecordReader -->
<g id="node10" class="node">
<title>Video\nRecordReader</title>
<ellipse fill="none" stroke="#000000" cx="443" cy="-205.4558" rx="67.8626" ry="25.4118"/>
<text text-anchor="middle" x="443" y="-208.2558" font-family="Times,serif" font-size="14.00" fill="#000000">Video</text>
<text text-anchor="middle" x="443" y="-194.2558" font-family="Times,serif" font-size="14.00" fill="#000000">RecordReader</text>
</g>
<!-- video.mov&#45;&gt;Video\nRecordReader -->
<g id="edge8" class="edge">
<title>video.mov&#45;&gt;Video\nRecordReader</title>
<path fill="none" stroke="#000000" d="M303.4158,-395.608C321.3724,-368.0525 357.6176,-313.394 391,-268.9117 398.7478,-258.5877 407.5266,-247.621 415.6356,-237.7604"/>
<polygon fill="#000000" stroke="#000000" points="418.5664,-239.709 422.2523,-229.776 413.1766,-235.2425 418.5664,-239.709"/>
</g>
<!-- Directory of\n Labelled Images -->
<g id="node3" class="node">
<title>Directory of\n Labelled Images</title>
<ellipse fill="none" stroke="#000000" cx="618" cy="-413.2792" rx="79.4582" ry="25.4118"/>
<text text-anchor="middle" x="618" y="-416.0792" font-family="Times,serif" font-size="14.00" fill="#000000">Directory of</text>
<text text-anchor="middle" x="618" y="-402.0792" font-family="Times,serif" font-size="14.00" fill="#000000"> Labelled Images</text>
</g>
<!-- Parent Path\n Label Generator -->
<g id="node6" class="node">
<title>Parent Path\n Label Generator</title>
<ellipse fill="none" stroke="#000000" cx="607" cy="-302.3675" rx="78.2445" ry="25.4118"/>
<text text-anchor="middle" x="607" y="-305.1675" font-family="Times,serif" font-size="14.00" fill="#000000">Parent Path</text>
<text text-anchor="middle" x="607" y="-291.1675" font-family="Times,serif" font-size="14.00" fill="#000000"> Label Generator</text>
</g>
<!-- Directory of\n Labelled Images&#45;&gt;Parent Path\n Label Generator -->
<g id="edge3" class="edge">
<title>Directory of\n Labelled Images&#45;&gt;Parent Path\n Label Generator</title>
<path fill="none" stroke="#000000" d="M615.4764,-387.8338C614.0195,-373.1442 612.1639,-354.4343 610.5605,-338.2675"/>
<polygon fill="#000000" stroke="#000000" points="614.0199,-337.6843 609.55,-328.0786 607.0541,-338.3752 614.0199,-337.6843"/>
</g>
<!-- Directory of Images -->
<g id="node4" class="node">
<title>Directory of Images</title>
<ellipse fill="none" stroke="#000000" cx="439" cy="-413.2792" rx="81.1336" ry="18"/>
<text text-anchor="middle" x="439" y="-409.0792" font-family="Times,serif" font-size="14.00" fill="#000000">Directory of Images</text>
</g>
<!-- Directory of Images&#45;&gt;DataVec\n Transform Process -->
<g id="edge2" class="edge">
<title>Directory of Images&#45;&gt;DataVec\n Transform Process</title>
<path fill="none" stroke="#000000" d="M400.6054,-397.2702C356.5861,-378.9158 283.9,-348.6085 232.5271,-327.188"/>
<polygon fill="#000000" stroke="#000000" points="233.7711,-323.9147 223.1943,-323.2966 231.0772,-330.3756 233.7711,-323.9147"/>
</g>
<!-- Path Label\n Generator -->
<g id="node7" class="node">
<title>Path Label\n Generator</title>
<ellipse fill="none" stroke="#000000" cx="457" cy="-302.3675" rx="53.8463" ry="25.4118"/>
<text text-anchor="middle" x="457" y="-305.1675" font-family="Times,serif" font-size="14.00" fill="#000000">Path Label</text>
<text text-anchor="middle" x="457" y="-291.1675" font-family="Times,serif" font-size="14.00" fill="#000000"> Generator</text>
</g>
<!-- Directory of Images&#45;&gt;Path Label\n Generator -->
<g id="edge4" class="edge">
<title>Directory of Images&#45;&gt;Path Label\n Generator</title>
<path fill="none" stroke="#000000" d="M441.9723,-394.9644C444.483,-379.4941 448.152,-356.887 451.2361,-337.8836"/>
<polygon fill="#000000" stroke="#000000" points="454.731,-338.1967 452.8782,-327.7651 447.8214,-337.0752 454.731,-338.1967"/>
</g>
<!-- Record Reader -->
<g id="node11" class="node">
<title>Record Reader</title>
<ellipse fill="none" stroke="#000000" cx="140" cy="-205.4558" rx="62.7913" ry="18"/>
<text text-anchor="middle" x="140" y="-201.2558" font-family="Times,serif" font-size="14.00" fill="#000000">Record Reader</text>
</g>
<!-- DataVec\n Transform Process&#45;&gt;Record Reader -->
<g id="edge9" class="edge">
<title>DataVec\n Transform Process&#45;&gt;Record Reader</title>
<path fill="none" stroke="#000000" d="M164.3296,-276.9051C159.7197,-263.3669 154.0482,-246.7113 149.341,-232.8877"/>
<polygon fill="#000000" stroke="#000000" points="152.6495,-231.7455 146.1128,-223.4075 146.0231,-234.002 152.6495,-231.7455"/>
</g>
<!-- Image\nRecordReader -->
<g id="node9" class="node">
<title>Image\nRecordReader</title>
<ellipse fill="none" stroke="#000000" cx="597" cy="-205.4558" rx="67.8626" ry="25.4118"/>
<text text-anchor="middle" x="597" y="-208.2558" font-family="Times,serif" font-size="14.00" fill="#000000">Image</text>
<text text-anchor="middle" x="597" y="-194.2558" font-family="Times,serif" font-size="14.00" fill="#000000">RecordReader</text>
</g>
<!-- Parent Path\n Label Generator&#45;&gt;Image\nRecordReader -->
<g id="edge6" class="edge">
<title>Parent Path\n Label Generator&#45;&gt;Image\nRecordReader</title>
<path fill="none" stroke="#000000" d="M604.3726,-276.9051C603.2447,-265.9747 601.9072,-253.0121 600.683,-241.1486"/>
<polygon fill="#000000" stroke="#000000" points="604.1526,-240.6726 599.6446,-231.0847 597.1895,-241.3911 604.1526,-240.6726"/>
</g>
<!-- Path Label\n Generator&#45;&gt;Image\nRecordReader -->
<g id="edge7" class="edge">
<title>Path Label\n Generator&#45;&gt;Image\nRecordReader</title>
<path fill="none" stroke="#000000" d="M488.9009,-281.7495C498.915,-275.1775 509.9715,-267.818 520,-260.9117 532.4571,-252.3329 545.883,-242.7745 557.9805,-234.0427"/>
<polygon fill="#000000" stroke="#000000" points="560.0688,-236.8519 566.1153,-228.1519 555.9631,-231.1824 560.0688,-236.8519"/>
</g>
<!-- RecordReaderDataSetIterator -->
<g id="node12" class="node">
<title>RecordReaderDataSetIterator</title>
<ellipse fill="none" stroke="#000000" cx="333" cy="-116" rx="114.9" ry="18"/>
<text text-anchor="middle" x="333" y="-111.8" font-family="Times,serif" font-size="14.00" fill="#000000">RecordReaderDataSetIterator</text>
</g>
<!-- CSV\nRecordReader&#45;&gt;RecordReaderDataSetIterator -->
<g id="edge11" class="edge">
<title>CSV\nRecordReader&#45;&gt;RecordReaderDataSetIterator</title>
<path fill="none" stroke="#000000" d="M301.4909,-180.0607C307.1281,-168.5998 313.7967,-155.042 319.5441,-143.3569"/>
<polygon fill="#000000" stroke="#000000" points="322.8395,-144.5872 324.1125,-134.0691 316.5582,-141.4976 322.8395,-144.5872"/>
</g>
<!-- Image\nRecordReader&#45;&gt;RecordReaderDataSetIterator -->
<g id="edge10" class="edge">
<title>Image\nRecordReader&#45;&gt;RecordReaderDataSetIterator</title>
<path fill="none" stroke="#000000" d="M553.793,-185.6104C542.8688,-180.8905 531.0886,-176.053 520,-172 481.1585,-157.8031 436.8571,-144.4166 401.1263,-134.2938"/>
<polygon fill="#000000" stroke="#000000" points="401.8615,-130.8648 391.2874,-131.5272 399.9666,-137.6035 401.8615,-130.8648"/>
</g>
<!-- Video\nRecordReader&#45;&gt;RecordReaderDataSetIterator -->
<g id="edge12" class="edge">
<title>Video\nRecordReader&#45;&gt;RecordReaderDataSetIterator</title>
<path fill="none" stroke="#000000" d="M414.3859,-182.1859C398.5572,-169.3134 378.9072,-153.3334 362.8811,-140.3003"/>
<polygon fill="#000000" stroke="#000000" points="364.8368,-137.3795 354.8701,-133.7856 360.4202,-142.8104 364.8368,-137.3795"/>
</g>
<!-- Record Reader&#45;&gt;RecordReaderDataSetIterator -->
<g id="edge13" class="edge">
<title>Record Reader&#45;&gt;RecordReaderDataSetIterator</title>
<path fill="none" stroke="#000000" d="M172.9712,-190.1225C185.2245,-184.4274 199.2455,-177.9147 212,-172 236.6219,-160.5819 264.0721,-147.8758 286.5948,-137.4567"/>
<polygon fill="#000000" stroke="#000000" points="288.3165,-140.5167 295.9231,-133.1418 285.3777,-134.1634 288.3165,-140.5167"/>
</g>
<!-- ImagePreProcessingScaler -->
<g id="node13" class="node">
<title>ImagePreProcessingScaler</title>
<ellipse fill="none" stroke="#000000" cx="548" cy="-34" rx="104.311" ry="18"/>
<text text-anchor="middle" x="548" y="-29.8" font-family="Times,serif" font-size="14.00" fill="#000000">ImagePreProcessingScaler</text>
</g>
<!-- RecordReaderDataSetIterator&#45;&gt;ImagePreProcessingScaler -->
<g id="edge14" class="edge">
<title>RecordReaderDataSetIterator&#45;&gt;ImagePreProcessingScaler</title>
<path fill="none" stroke="#000000" d="M383.6058,-99.7777C399.795,-94.3714 417.7333,-88.1529 434,-82 456.1079,-73.6376 480.2792,-63.5928 500.6526,-54.8581"/>
<polygon fill="#000000" stroke="#000000" points="502.2257,-57.9914 510.0233,-50.8187 499.4546,-51.5633 502.2257,-57.9914"/>
</g>
<!-- NormalizerStandardize -->
<g id="node14" class="node">
<title>NormalizerStandardize</title>
<ellipse fill="none" stroke="#000000" cx="333" cy="-34" rx="92.2324" ry="18"/>
<text text-anchor="middle" x="333" y="-29.8" font-family="Times,serif" font-size="14.00" fill="#000000">NormalizerStandardize</text>
</g>
<!-- RecordReaderDataSetIterator&#45;&gt;NormalizerStandardize -->
<g id="edge15" class="edge">
<title>RecordReaderDataSetIterator&#45;&gt;NormalizerStandardize</title>
<path fill="none" stroke="#000000" d="M333,-97.8015C333,-87.3976 333,-74.1215 333,-62.3768"/>
<polygon fill="#000000" stroke="#000000" points="336.5001,-62.1476 333,-52.1476 329.5001,-62.1476 336.5001,-62.1476"/>
</g>
<!-- NormalizerMinMaxScaler -->
<g id="node15" class="node">
<title>NormalizerMinMaxScaler</title>
<ellipse fill="none" stroke="#000000" cx="119" cy="-34" rx="103.3419" ry="18"/>
<text text-anchor="middle" x="119" y="-29.8" font-family="Times,serif" font-size="14.00" fill="#000000">NormalizerMinMaxScaler</text>
</g>
<!-- RecordReaderDataSetIterator&#45;&gt;NormalizerMinMaxScaler -->
<g id="edge16" class="edge">
<title>RecordReaderDataSetIterator&#45;&gt;NormalizerMinMaxScaler</title>
<path fill="none" stroke="#000000" d="M282.3825,-99.8086C266.1927,-94.404 248.257,-88.1786 232,-82 210.0698,-73.6652 186.1083,-63.6242 165.9163,-54.885"/>
<polygon fill="#000000" stroke="#000000" points="167.1954,-51.6247 156.6295,-50.8428 164.4017,-58.043 167.1954,-51.6247"/>
</g>
</g>
</svg>
