<?xml version="1.0" encoding="UTF-8" standalone="no"?>
<!DOCTYPE svg PUBLIC "-//W3C//DTD SVG 1.1//EN"
 "http://www.w3.org/Graphics/SVG/1.1/DTD/svg11.dtd">
<!-- Generated by graphviz version 2.40.1 (20161225.0304)
 -->
<!-- Title: %3 Pages: 1 -->
<svg width="248pt" height="344pt"
 viewBox="0.00 0.00 248.00 344.00" xmlns="http://www.w3.org/2000/svg" xmlns:xlink="http://www.w3.org/1999/xlink">
<g id="graph0" class="graph" transform="scale(1 1) rotate(0) translate(4 340)">
<title>%3</title>
<polygon fill="#ffffff" stroke="transparent" points="-4,4 -4,-340 244,-340 244,4 -4,4"/>
<g id="clust1" class="cluster">
<title>cluster_0</title>
<polygon fill="none" stroke="#000000" points="65,-254 65,-328 175,-328 175,-254 65,-254"/>
<text text-anchor="middle" x="120" y="-312.8" font-family="Times,serif" font-size="14.00" fill="#000000">Input</text>
</g>
<g id="clust2" class="cluster">
<title>cluster_1</title>
<polygon fill="none" stroke="#000000" points="27,-172 27,-246 213,-246 213,-172 27,-172"/>
<text text-anchor="middle" x="120" y="-230.8" font-family="Times,serif" font-size="14.00" fill="#000000">Native Image Loader</text>
</g>
<g id="clust3" class="cluster">
<title>cluster_2</title>
<polygon fill="none" stroke="#000000" points="8,-90 8,-164 232,-164 232,-90 8,-90"/>
<text text-anchor="middle" x="120" y="-148.8" font-family="Times,serif" font-size="14.00" fill="#000000">ND4j PreProcessing</text>
</g>
<g id="clust4" class="cluster">
<title>cluster_3</title>
<polygon fill="none" stroke="#000000" points="66,-8 66,-82 174,-82 174,-8 66,-8"/>
<text text-anchor="middle" x="120" y="-66.8" font-family="Times,serif" font-size="14.00" fill="#000000">Model Inference</text>
</g>
<!-- image.png -->
<g id="node1" class="node">
<title>image.png</title>
<ellipse fill="none" stroke="#000000" cx="120" cy="-280" rx="47.3821" ry="18"/>
<text text-anchor="middle" x="120" y="-275.8" font-family="Times,serif" font-size="14.00" fill="#000000">image.png</text>
</g>
<!-- Native Image Loader -->
<g id="node2" class="node">
<title>Native Image Loader</title>
<ellipse fill="none" stroke="#000000" cx="120" cy="-198" rx="85.4755" ry="18"/>
<text text-anchor="middle" x="120" y="-193.8" font-family="Times,serif" font-size="14.00" fill="#000000">Native Image Loader</text>
</g>
<!-- image.png&#45;&gt;Native Image Loader -->
<g id="edge1" class="edge">
<title>image.png&#45;&gt;Native Image Loader</title>
<path fill="none" stroke="#000000" d="M120,-261.8015C120,-251.3976 120,-238.1215 120,-226.3768"/>
<polygon fill="#000000" stroke="#000000" points="123.5001,-226.1476 120,-216.1476 116.5001,-226.1476 123.5001,-226.1476"/>
</g>
<!-- ImagePreProcessingScaler -->
<g id="node3" class="node">
<title>ImagePreProcessingScaler</title>
<ellipse fill="none" stroke="#000000" cx="120" cy="-116" rx="104.311" ry="18"/>
<text text-anchor="middle" x="120" y="-111.8" font-family="Times,serif" font-size="14.00" fill="#000000">ImagePreProcessingScaler</text>
</g>
<!-- Native Image Loader&#45;&gt;ImagePreProcessingScaler -->
<g id="edge2" class="edge">
<title>Native Image Loader&#45;&gt;ImagePreProcessingScaler</title>
<path fill="none" stroke="#000000" d="M120,-179.8015C120,-169.3976 120,-156.1215 120,-144.3768"/>
<polygon fill="#000000" stroke="#000000" points="123.5001,-144.1476 120,-134.1476 116.5001,-144.1476 123.5001,-144.1476"/>
</g>
<!-- Model.fit -->
<g id="node4" class="node">
<title>Model.fit</title>
<ellipse fill="none" stroke="#000000" cx="120" cy="-34" rx="42.5649" ry="18"/>
<text text-anchor="middle" x="120" y="-29.8" font-family="Times,serif" font-size="14.00" fill="#000000">Model.fit</text>
</g>
<!-- ImagePreProcessingScaler&#45;&gt;Model.fit -->
<g id="edge3" class="edge">
<title>ImagePreProcessingScaler&#45;&gt;Model.fit</title>
<path fill="none" stroke="#000000" d="M120,-97.8015C120,-87.3976 120,-74.1215 120,-62.3768"/>
<polygon fill="#000000" stroke="#000000" points="123.5001,-62.1476 120,-52.1476 116.5001,-62.1476 123.5001,-62.1476"/>
</g>
</g>
</svg>
