<?xml version="1.0" encoding="UTF-8" standalone="no"?>
<!DOCTYPE svg PUBLIC "-//W3C//DTD SVG 1.1//EN"
 "http://www.w3.org/Graphics/SVG/1.1/DTD/svg11.dtd">
<!-- Generated by graphviz version 2.40.1 (20161225.0304)
 -->
<!-- Title: %3 Pages: 1 -->
<svg width="327pt" height="170pt"
 viewBox="0.00 0.00 327.00 170.00" xmlns="http://www.w3.org/2000/svg" xmlns:xlink="http://www.w3.org/1999/xlink">
<g id="graph0" class="graph" transform="scale(1 1) rotate(0) translate(4 166)">
<title>%3</title>
<polygon fill="#ffffff" stroke="transparent" points="-4,4 -4,-166 323,-166 323,4 -4,4"/>
<g id="clust1" class="cluster">
<title>cluster_0</title>
<polygon fill="none" stroke="#000000" points="8,-80 8,-154 311,-154 311,-80 8,-80"/>
<text text-anchor="middle" x="159.5" y="-138.8" font-family="Times,serif" font-size="14.00" fill="#000000">The quick brown fox</text>
</g>
<g id="clust2" class="cluster">
<title>cluster_1</title>
<polygon fill="none" stroke="#000000" points="11,-8 11,-60 305,-60 305,-8 11,-8"/>
</g>
<!-- fox -->
<g id="node1" class="node">
<title>fox</title>
<ellipse fill="none" stroke="#000000" cx="276" cy="-106" rx="27" ry="18"/>
<text text-anchor="middle" x="276" y="-101.8" font-family="Times,serif" font-size="14.00" fill="#000000">fox</text>
</g>
<!-- 0001 -->
<g id="node8" class="node">
<title>0001</title>
<ellipse fill="none" stroke="#000000" cx="269" cy="-34" rx="27.589" ry="18"/>
<text text-anchor="middle" x="269" y="-29.8" font-family="Times,serif" font-size="14.00" fill="#000000">0001</text>
</g>
<!-- fox&#45;&gt;0001 -->
<g id="edge4" class="edge">
<title>fox&#45;&gt;0001</title>
<path fill="none" stroke="#000000" d="M274.2336,-87.8314C273.485,-80.131 272.5947,-70.9743 271.7627,-62.4166"/>
<polygon fill="#000000" stroke="#000000" points="275.2415,-62.0276 270.7902,-52.4133 268.2744,-62.7051 275.2415,-62.0276"/>
</g>
<!-- brown -->
<g id="node2" class="node">
<title>brown</title>
<ellipse fill="none" stroke="#000000" cx="198" cy="-106" rx="32.9081" ry="18"/>
<text text-anchor="middle" x="198" y="-101.8" font-family="Times,serif" font-size="14.00" fill="#000000">brown</text>
</g>
<!-- 0010 -->
<g id="node7" class="node">
<title>0010</title>
<ellipse fill="none" stroke="#000000" cx="195" cy="-34" rx="27.589" ry="18"/>
<text text-anchor="middle" x="195" y="-29.8" font-family="Times,serif" font-size="14.00" fill="#000000">0010</text>
</g>
<!-- brown&#45;&gt;0010 -->
<g id="edge3" class="edge">
<title>brown&#45;&gt;0010</title>
<path fill="none" stroke="#000000" d="M197.243,-87.8314C196.9221,-80.131 196.5406,-70.9743 196.184,-62.4166"/>
<polygon fill="#000000" stroke="#000000" points="199.6806,-62.2589 195.7672,-52.4133 192.6867,-62.5503 199.6806,-62.2589"/>
</g>
<!-- quick -->
<g id="node3" class="node">
<title>quick</title>
<ellipse fill="none" stroke="#000000" cx="118" cy="-106" rx="29.5104" ry="18"/>
<text text-anchor="middle" x="118" y="-101.8" font-family="Times,serif" font-size="14.00" fill="#000000">quick</text>
</g>
<!-- 0100 -->
<g id="node6" class="node">
<title>0100</title>
<ellipse fill="none" stroke="#000000" cx="121" cy="-34" rx="27.589" ry="18"/>
<text text-anchor="middle" x="121" y="-29.8" font-family="Times,serif" font-size="14.00" fill="#000000">0100</text>
</g>
<!-- quick&#45;&gt;0100 -->
<g id="edge2" class="edge">
<title>quick&#45;&gt;0100</title>
<path fill="none" stroke="#000000" d="M118.757,-87.8314C119.0779,-80.131 119.4594,-70.9743 119.816,-62.4166"/>
<polygon fill="#000000" stroke="#000000" points="123.3133,-62.5503 120.2328,-52.4133 116.3194,-62.2589 123.3133,-62.5503"/>
</g>
<!-- The -->
<g id="node4" class="node">
<title>The</title>
<ellipse fill="none" stroke="#000000" cx="43" cy="-106" rx="27" ry="18"/>
<text text-anchor="middle" x="43" y="-101.8" font-family="Times,serif" font-size="14.00" fill="#000000">The</text>
</g>
<!-- 1000 -->
<g id="node5" class="node">
<title>1000</title>
<ellipse fill="none" stroke="#000000" cx="47" cy="-34" rx="27.589" ry="18"/>
<text text-anchor="middle" x="47" y="-29.8" font-family="Times,serif" font-size="14.00" fill="#000000">1000</text>
</g>
<!-- The&#45;&gt;1000 -->
<g id="edge1" class="edge">
<title>The&#45;&gt;1000</title>
<path fill="none" stroke="#000000" d="M44.0094,-87.8314C44.4372,-80.131 44.9459,-70.9743 45.4213,-62.4166"/>
<polygon fill="#000000" stroke="#000000" points="48.9169,-62.592 45.977,-52.4133 41.9276,-62.2037 48.9169,-62.592"/>
</g>
</g>
</svg>
